FiraSansMM-1.ufo
<glyph name="exclam" format="1">
  <advance width="241"/>
  <unicode hex="0021"/>
  <outline>
    <contour>
      <point x="73" y="688" type="line"/>
      <point x="165" y="688" type="line"/>
      <point x="157" y="227" type="line"/>
      <point x="82" y="227" type="line"/>
    </contour>
    <contour>
      <point x="120" y="117" type="qcurve" smooth="yes"/>
      <point x="148" y="117"/>
      <point x="185" y="79"/>
      <point x="185" y="53" type="qcurve" smooth="yes"/>
      <point x="185" y="26"/>
      <point x="148" y="-12"/>
      <point x="120" y="-12" type="qcurve" smooth="yes"/>
      <point x="93" y="-12"/>
      <point x="56" y="26"/>
      <point x="56" y="53" type="qcurve" smooth="yes"/>
      <point x="56" y="79"/>
      <point x="93" y="117"/>
    </contour>
  </outline>
</glyph>
<glyph name="dollar" format="1">
  <advance width="530"/>
  <unicode hex="0024"/>
  <outline>
    <contour>
      <point x="232" y="-6" type="line"/>
      <point x="305" y="2" type="line"/>
      <point x="305" y="-154" type="line"/>
      <point x="232" y="-154" type="line"/>
    </contour>
    <contour>
      <point x="232" y="823" type="line"/>
      <point x="305" y="823" type="line"/>
      <point x="305" y="664" type="line"/>
      <point x="232" y="662" type="line"/>
    </contour>
    <contour>
      <point x="262" y="679" type="qcurve" smooth="yes"/>
      <point x="331" y="679"/>
      <point x="425" y="640"/>
      <point x="466" y="602" type="qcurve"/>
      <point x="417" y="549" type="line"/>
      <point x="383" y="581"/>
      <point x="309" y="609"/>
      <point x="266" y="609" type="qcurve" smooth="yes"/>
      <point x="213" y="609"/>
      <point x="142" y="559"/>
      <point x="142" y="510" type="qcurve" smooth="yes"/>
      <point x="142" y="481"/>
      <point x="166" y="439"/>
      <point x="230" y="405"/>
      <point x="290" y="387" type="qcurve" smooth="yes"/>
      <point x="345" y="370"/>
      <point x="434" y="324"/>
      <point x="486" y="248"/>
      <point x="486" y="185" type="qcurve" smooth="yes"/>
      <point x="486" y="127"/>
      <point x="430" y="38"/>
      <point x="326" y="-12"/>
      <point x="252" y="-12" type="qcurve" smooth="yes"/>
      <point x="181" y="-12"/>
      <point x="70" y="34"/>
      <point x="28" y="74" type="qcurve"/>
      <point x="78" y="128" type="line"/>
      <point x="112" y="96"/>
      <point x="196" y="58"/>
      <point x="251" y="58" type="qcurve" smooth="yes"/>
      <point x="292" y="58"/>
      <point x="359" y="86"/>
      <point x="399" y="141"/>
      <point x="399" y="182" type="qcurve" smooth="yes"/>
      <point x="399" y="217"/>
      <point x="373" y="263"/>
      <point x="309" y="299"/>
      <point x="251" y="316" type="qcurve" smooth="yes"/>
      <point x="186" y="336"/>
      <point x="98" y="386"/>
      <point x="55" y="456"/>
      <point x="55" y="506" type="qcurve" smooth="yes"/>
      <point x="55" y="557"/>
      <point x="108" y="635"/>
      <point x="202" y="679"/>
    </contour>
  </outline>
</glyph>
<glyph name="ampersand" format="1">
  <advance width="758"/>
  <unicode hex="0026"/>
  <outline>
    <contour>
      <point x="302" y="700" type="qcurve" smooth="yes"/>
      <point x="355" y="700"/>
      <point x="436" y="661"/>
      <point x="481" y="593"/>
      <point x="481" y="549" type="qcurve" smooth="yes"/>
      <point x="481" y="506"/>
      <point x="442" y="441"/>
      <point x="377" y="389"/>
      <point x="337" y="365" type="qcurve"/>
      <point x="520" y="193" type="line"/>
      <point x="538" y="231"/>
      <point x="570" y="317"/>
      <point x="581" y="367" type="qcurve"/>
      <point x="660" y="345" type="line"/>
      <point x="641" y="283"/>
      <point x="597" y="184"/>
      <point x="572" y="144" type="qcurve"/>
      <point x="687" y="37" type="line"/>
      <point x="626" y="-12" type="line"/>
      <point x="525" y="85" type="line"/>
      <point x="484" y="39"/>
      <point x="377" y="-12"/>
      <point x="304" y="-12" type="qcurve" smooth="yes"/>
      <point x="240" y="-12"/>
      <point x="140" y="34"/>
      <point x="83" y="118"/>
      <point x="83" y="174" type="qcurve" smooth="yes"/>
      <point x="83" y="240"/>
      <point x="160" y="333"/>
      <point x="224" y="373" type="qcurve"/>
      <point x="194" y="402"/>
      <point x="149" y="454"/>
      <point x="125" y="511"/>
      <point x="125" y="545" type="qcurve" smooth="yes"/>
      <point x="125" y="589"/>
      <point x="166" y="659"/>
      <point x="245" y="700"/>
    </contour>
    <contour>
      <point x="476" y="132" type="qcurve"/>
      <point x="272" y="327" type="line"/>
      <point x="220" y="294"/>
      <point x="169" y="223"/>
      <point x="169" y="177" type="qcurve" smooth="yes"/>
      <point x="169" y="139"/>
      <point x="206" y="84"/>
      <point x="271" y="55"/>
      <point x="313" y="55" type="qcurve" smooth="yes"/>
      <point x="364" y="55"/>
      <point x="442" y="95"/>
    </contour>
    <contour>
      <point x="303" y="637" type="qcurve" smooth="yes"/>
      <point x="257" y="637"/>
      <point x="208" y="585"/>
      <point x="208" y="546" type="qcurve" smooth="yes"/>
      <point x="208" y="521"/>
      <point x="226" y="478"/>
      <point x="263" y="436"/>
      <point x="289" y="411" type="qcurve"/>
      <point x="323" y="431"/>
      <point x="372" y="472"/>
      <point x="398" y="517"/>
      <point x="398" y="544" type="qcurve" smooth="yes"/>
      <point x="398" y="588"/>
      <point x="346" y="637"/>
    </contour>
  </outline>
</glyph>
<glyph name="parenleft" format="1">
  <advance width="324"/>
  <unicode hex="0028"/>
  <outline>
    <contour>
      <point x="228" y="843" type="qcurve"/>
      <point x="281" y="807" type="line"/>
      <point x="247" y="757"/>
      <point x="192" y="662"/>
      <point x="152" y="557"/>
      <point x="131" y="431"/>
      <point x="131" y="350" type="qcurve" smooth="yes"/>
      <point x="131" y="269"/>
      <point x="152" y="143"/>
      <point x="192" y="38"/>
      <point x="247" y="-57"/>
      <point x="281" y="-107" type="qcurve"/>
      <point x="228" y="-143" type="line"/>
      <point x="191" y="-91"/>
      <point x="125" y="10"/>
      <point x="73" y="123"/>
      <point x="43" y="262"/>
      <point x="43" y="350" type="qcurve" smooth="yes"/>
      <point x="43" y="439"/>
      <point x="73" y="577"/>
      <point x="125" y="690"/>
      <point x="191" y="791"/>
    </contour>
  </outline>
</glyph>
<glyph name="parenright" format="1">
  <advance width="324"/>
  <unicode hex="0029"/>
  <outline>
    <contour>
      <point x="43" y="807" type="qcurve"/>
      <point x="96" y="843" type="line"/>
      <point x="133" y="791"/>
      <point x="199" y="690"/>
      <point x="251" y="577"/>
      <point x="281" y="439"/>
      <point x="281" y="350" type="qcurve" smooth="yes"/>
      <point x="281" y="262"/>
      <point x="251" y="123"/>
      <point x="199" y="10"/>
      <point x="133" y="-91"/>
      <point x="96" y="-143" type="qcurve"/>
      <point x="43" y="-107" type="line"/>
      <point x="77" y="-57"/>
      <point x="132" y="38"/>
      <point x="172" y="143"/>
      <point x="193" y="269"/>
      <point x="193" y="350" type="qcurve" smooth="yes"/>
      <point x="193" y="431"/>
      <point x="172" y="557"/>
      <point x="132" y="662"/>
      <point x="77" y="757"/>
    </contour>
  </outline>
</glyph>
<glyph name="comma" format="1">
  <advance width="232"/>
  <unicode hex="002C"/>
  <outline>
    <contour>
      <point x="115" y="117" type="qcurve" smooth="yes"/>
      <point x="144" y="117"/>
      <point x="180" y="79"/>
      <point x="180" y="53" type="qcurve" smooth="yes"/>
      <point x="180" y="37"/>
      <point x="172" y="6"/>
      <point x="163" y="-14" type="qcurve" smooth="yes"/>
      <point x="98" y="-163" type="line"/>
      <point x="38" y="-163" type="line"/>
      <point x="78" y="-1" type="line"/>
      <point x="66" y="8"/>
      <point x="51" y="37"/>
      <point x="51" y="53" type="qcurve" smooth="yes"/>
      <point x="51" y="79"/>
      <point x="88" y="117"/>
    </contour>
  </outline>
</glyph>
<glyph name="period" format="1">
  <advance width="232"/>
  <unicode hex="002E"/>
  <outline>
    <contour>
      <point x="115" y="117" type="qcurve" smooth="yes"/>
      <point x="144" y="117"/>
      <point x="180" y="79"/>
      <point x="180" y="53" type="qcurve" smooth="yes"/>
      <point x="180" y="26"/>
      <point x="144" y="-12"/>
      <point x="115" y="-12" type="qcurve" smooth="yes"/>
      <point x="88" y="-12"/>
      <point x="51" y="26"/>
      <point x="51" y="53" type="qcurve" smooth="yes"/>
      <point x="51" y="79"/>
      <point x="88" y="117"/>
    </contour>
  </outline>
</glyph>
<glyph name="zero" format="1">
  <advance width="556"/>
  <unicode hex="0030"/>
  <outline>
    <contour>
      <point x="278" y="678" type="qcurve" smooth="yes"/>
      <point x="388" y="678"/>
      <point x="498" y="500"/>
      <point x="498" y="333" type="qcurve" smooth="yes"/>
      <point x="498" y="167"/>
      <point x="388" y="-12"/>
      <point x="278" y="-12" type="qcurve" smooth="yes"/>
      <point x="168" y="-12"/>
      <point x="58" y="167"/>
      <point x="58" y="334" type="qcurve" smooth="yes"/>
      <point x="58" y="501"/>
      <point x="168" y="678"/>
    </contour>
    <contour>
      <point x="278" y="611" type="qcurve" smooth="yes"/>
      <point x="235" y="611"/>
      <point x="175" y="555"/>
      <point x="145" y="433"/>
      <point x="145" y="334" type="qcurve" smooth="yes"/>
      <point x="145" y="235"/>
      <point x="175" y="112"/>
      <point x="235" y="55"/>
      <point x="278" y="55" type="qcurve" smooth="yes"/>
      <point x="321" y="55"/>
      <point x="380" y="112"/>
      <point x="411" y="234"/>
      <point x="411" y="333" type="qcurve" smooth="yes"/>
      <point x="411" y="433"/>
      <point x="380" y="555"/>
      <point x="321" y="611"/>
    </contour>
  </outline>
</glyph>
<glyph name="two" format="1">
  <advance width="491"/>
  <unicode hex="0032"/>
  <outline>
    <contour>
      <point x="227" y="678" type="qcurve" smooth="yes"/>
      <point x="288" y="678"/>
      <point x="376" y="630"/>
      <point x="424" y="549"/>
      <point x="424" y="497" type="qcurve" smooth="yes"/>
      <point x="424" y="459"/>
      <point x="404" y="389"/>
      <point x="362" y="317"/>
      <point x="294" y="235"/>
      <point x="199" y="135"/>
      <point x="136" y="71" type="qcurve"/>
      <point x="440" y="71" type="line"/>
      <point x="430" y="0" type="line"/>
      <point x="40" y="0" type="line"/>
      <point x="40" y="67" type="line"/>
      <point x="111" y="142"/>
      <point x="213" y="252"/>
      <point x="281" y="334"/>
      <point x="320" y="400"/>
      <point x="336" y="460"/>
      <point x="336" y="493" type="qcurve" smooth="yes"/>
      <point x="336" y="530"/>
      <point x="307" y="581"/>
      <point x="257" y="609"/>
      <point x="223" y="609" type="qcurve" smooth="yes"/>
      <point x="180" y="609"/>
      <point x="116" y="573"/>
      <point x="84" y="535" type="qcurve"/>
      <point x="27" y="579" type="line"/>
      <point x="68" y="629"/>
      <point x="165" y="678"/>
    </contour>
  </outline>
</glyph>
<glyph name="three" format="1">
  <advance width="496"/>
  <unicode hex="0033"/>
  <outline>
    <contour>
      <point x="224" y="678" type="qcurve" smooth="yes"/>
      <point x="287" y="678"/>
      <point x="374" y="631"/>
      <point x="419" y="555"/>
      <point x="419" y="509" type="qcurve" smooth="yes"/>
      <point x="419" y="466"/>
      <point x="385" y="403"/>
      <point x="326" y="364"/>
      <point x="288" y="355" type="qcurve"/>
      <point x="330" y="352"/>
      <point x="399" y="313"/>
      <point x="439" y="243"/>
      <point x="439" y="192" type="qcurve" smooth="yes"/>
      <point x="439" y="134"/>
      <point x="384" y="41"/>
      <point x="284" y="-12"/>
      <point x="215" y="-12" type="qcurve" smooth="yes"/>
      <point x="155" y="-12"/>
      <point x="54" y="32"/>
      <point x="16" y="77" type="qcurve"/>
      <point x="67" y="124" type="line"/>
      <point x="101" y="89"/>
      <point x="171" y="57"/>
      <point x="212" y="57" type="qcurve" smooth="yes"/>
      <point x="256" y="57"/>
      <point x="318" y="91"/>
      <point x="351" y="152"/>
      <point x="351" y="192" type="qcurve" smooth="yes"/>
      <point x="351" y="263"/>
      <point x="277" y="317"/>
      <point x="215" y="317" type="qcurve" smooth="yes"/>
      <point x="166" y="317" type="line"/>
      <point x="176" y="382" type="line"/>
      <point x="210" y="382" type="line" smooth="yes"/>
      <point x="244" y="382"/>
      <point x="300" y="409"/>
      <point x="334" y="464"/>
      <point x="334" y="504" type="qcurve" smooth="yes"/>
      <point x="334" y="554"/>
      <point x="272" y="610"/>
      <point x="219" y="610" type="qcurve" smooth="yes"/>
      <point x="179" y="610"/>
      <point x="114" y="582"/>
      <point x="79" y="550" type="qcurve"/>
      <point x="35" y="600" type="line"/>
      <point x="77" y="639"/>
      <point x="170" y="678"/>
    </contour>
  </outline>
</glyph>
<glyph name="five" format="1">
  <advance width="498"/>
  <unicode hex="0035"/>
  <outline>
    <contour>
      <point x="73" y="668" type="line"/>
      <point x="429" y="668" type="line"/>
      <point x="417" y="602" type="line"/>
      <point x="153" y="602" type="line"/>
      <point x="153" y="398" type="line"/>
      <point x="179" y="412"/>
      <point x="234" y="425"/>
      <point x="262" y="425" type="qcurve" smooth="yes"/>
      <point x="319" y="425"/>
      <point x="404" y="374"/>
      <point x="451" y="280"/>
      <point x="451" y="214" type="qcurve" smooth="yes"/>
      <point x="451" y="148"/>
      <point x="395" y="46"/>
      <point x="292" y="-12"/>
      <point x="223" y="-12" type="qcurve" smooth="yes"/>
      <point x="160" y="-12"/>
      <point x="66" y="33"/>
      <point x="28" y="72" type="qcurve"/>
      <point x="79" y="122" type="line"/>
      <point x="110" y="89"/>
      <point x="178" y="57"/>
      <point x="223" y="57" type="qcurve" smooth="yes"/>
      <point x="266" y="57"/>
      <point x="329" y="94"/>
      <point x="364" y="166"/>
      <point x="364" y="216" type="qcurve" smooth="yes"/>
      <point x="364" y="295"/>
      <point x="291" y="359"/>
      <point x="237" y="359" type="qcurve" smooth="yes"/>
      <point x="209" y="359"/>
      <point x="164" y="347"/>
      <point x="139" y="334" type="qcurve"/>
      <point x="73" y="334" type="line"/>
    </contour>
  </outline>
</glyph>
<glyph name="six" format="1">
  <advance width="531"/>
  <unicode hex="0036"/>
  <outline>
    <contour>
      <point x="307" y="678" type="qcurve" smooth="yes"/>
      <point x="348" y="678"/>
      <point x="414" y="657"/>
      <point x="442" y="638" type="qcurve"/>
      <point x="409" y="582" type="line"/>
      <point x="386" y="596"/>
      <point x="335" y="611"/>
      <point x="306" y="611" type="qcurve" smooth="yes"/>
      <point x="254" y="611"/>
      <point x="180" y="539"/>
      <point x="142" y="411"/>
      <point x="142" y="326" type="qcurve" smooth="yes"/>
      <point x="143" y="299" type="line" smooth="yes"/>
      <point x="143" y="218"/>
      <point x="170" y="110"/>
      <point x="230" y="55"/>
      <point x="279" y="55" type="qcurve" smooth="yes"/>
      <point x="320" y="55"/>
      <point x="375" y="97"/>
      <point x="403" y="174"/>
      <point x="403" y="224" type="qcurve" smooth="yes"/>
      <point x="403" y="305"/>
      <point x="340" y="371"/>
      <point x="291" y="371" type="qcurve" smooth="yes"/>
      <point x="257" y="371"/>
      <point x="198" y="343"/>
      <point x="151" y="292"/>
      <point x="134" y="259" type="qcurve"/>
      <point x="132" y="332" type="line"/>
      <point x="155" y="369"/>
      <point x="208" y="415"/>
      <point x="270" y="438"/>
      <point x="305" y="438" type="qcurve" smooth="yes"/>
      <point x="354" y="438"/>
      <point x="437" y="392"/>
      <point x="488" y="298"/>
      <point x="488" y="226" type="qcurve" smooth="yes"/>
      <point x="488" y="153"/>
      <point x="432" y="46"/>
      <point x="338" y="-12"/>
      <point x="279" y="-12" type="qcurve" smooth="yes"/>
      <point x="199" y="-12"/>
      <point x="101" y="71"/>
      <point x="58" y="217"/>
      <point x="58" y="311" type="qcurve" smooth="yes"/>
      <point x="58" y="422"/>
      <point x="118" y="587"/>
      <point x="230" y="678"/>
    </contour>
  </outline>
</glyph>
<glyph name="eight" format="1">
  <advance width="548"/>
  <unicode hex="0038"/>
  <outline>
    <contour>
      <point x="274" y="678" type="qcurve" smooth="yes"/>
      <point x="324" y="678"/>
      <point x="415" y="641"/>
      <point x="474" y="567"/>
      <point x="474" y="510" type="qcurve" smooth="yes"/>
      <point x="474" y="455"/>
      <point x="408" y="380"/>
      <point x="341" y="349" type="qcurve"/>
      <point x="283" y="369" type="line"/>
      <point x="340" y="398"/>
      <point x="391" y="460"/>
      <point x="391" y="507" type="qcurve" smooth="yes"/>
      <point x="391" y="540"/>
      <point x="363" y="589"/>
      <point x="311" y="615"/>
      <point x="274" y="615" type="qcurve" smooth="yes"/>
      <point x="239" y="615"/>
      <point x="187" y="590"/>
      <point x="158" y="542"/>
      <point x="158" y="507" type="qcurve" smooth="yes"/>
      <point x="158" y="473"/>
      <point x="187" y="429"/>
      <point x="242" y="399"/>
      <point x="281" y="385" type="qcurve" smooth="yes"/>
      <point x="321" y="372" type="line"/>
      <point x="342" y="364" type="line" smooth="yes"/>
      <point x="394" y="345"/>
      <point x="465" y="292"/>
      <point x="501" y="223"/>
      <point x="501" y="178" type="qcurve" smooth="yes"/>
      <point x="501" y="122"/>
      <point x="443" y="36"/>
      <point x="340" y="-12"/>
      <point x="272" y="-12" type="qcurve" smooth="yes"/>
      <point x="204" y="-12"/>
      <point x="103" y="36"/>
      <point x="47" y="121"/>
      <point x="47" y="176" type="qcurve" smooth="yes"/>
      <point x="47" y="245"/>
      <point x="128" y="332"/>
      <point x="198" y="359" type="qcurve"/>
      <point x="252" y="335" type="line"/>
      <point x="192" y="311"/>
      <point x="135" y="235"/>
      <point x="135" y="176" type="qcurve" smooth="yes"/>
      <point x="135" y="119"/>
      <point x="209" y="56"/>
      <point x="273" y="56" type="qcurve" smooth="yes"/>
      <point x="338" y="56"/>
      <point x="413" y="122"/>
      <point x="413" y="177" type="qcurve" smooth="yes"/>
      <point x="413" y="214"/>
      <point x="385" y="264"/>
      <point x="321" y="302"/>
      <point x="267" y="321" type="qcurve" smooth="yes"/>
      <point x="219" y="337" type="line"/>
      <point x="198" y="345" type="line" smooth="yes"/>
      <point x="134" y="372"/>
      <point x="75" y="452"/>
      <point x="75" y="508" type="qcurve" smooth="yes"/>
      <point x="75" y="564"/>
      <point x="133" y="639"/>
      <point x="224" y="678"/>
    </contour>
  </outline>
</glyph>
<glyph name="nine" format="1">
  <advance width="523"/>
  <unicode hex="0039"/>
  <outline>
    <contour>
      <point x="394" y="412" type="qcurve"/>
      <point x="390" y="338" type="line"/>
      <point x="368" y="298"/>
      <point x="286" y="244"/>
      <point x="231" y="244" type="qcurve" smooth="yes"/>
      <point x="179" y="244"/>
      <point x="96" y="296"/>
      <point x="47" y="392"/>
      <point x="47" y="458" type="qcurve" smooth="yes"/>
      <point x="47" y="528"/>
      <point x="104" y="626"/>
      <point x="200" y="678"/>
      <point x="258" y="678" type="qcurve" smooth="yes"/>
      <point x="330" y="678"/>
      <point x="424" y="613"/>
      <point x="471" y="496"/>
      <point x="471" y="416" type="qcurve" smooth="yes"/>
      <point x="471" y="314"/>
      <point x="429" y="170"/>
      <point x="342" y="72"/>
      <point x="210" y="5"/>
      <point x="120" y="-21" type="qcurve"/>
      <point x="100" y="42" type="line"/>
      <point x="187" y="67"/>
      <point x="313" y="142"/>
      <point x="383" y="256"/>
      <point x="384" y="337" type="qcurve" smooth="yes"/>
      <point x="385" y="380" type="line" smooth="yes"/>
      <point x="388" y="463"/>
      <point x="362" y="564"/>
      <point x="305" y="611"/>
      <point x="260" y="611" type="qcurve" smooth="yes"/>
      <point x="220" y="611"/>
      <point x="162" y="575"/>
      <point x="132" y="506"/>
      <point x="132" y="456" type="qcurve" smooth="yes"/>
      <point x="132" y="407"/>
      <point x="162" y="343"/>
      <point x="214" y="311"/>
      <point x="248" y="311" type="qcurve" smooth="yes"/>
      <point x="296" y="311"/>
      <point x="368" y="366"/>
    </contour>
  </outline>
</glyph>
<glyph name="question" format="1">
  <advance width="456"/>
  <unicode hex="003F"/>
  <outline>
    <contour>
      <point x="237" y="700" type="qcurve" smooth="yes"/>
      <point x="298" y="700"/>
      <point x="381" y="656"/>
      <point x="424" y="586"/>
      <point x="424" y="546" type="qcurve" smooth="yes"/>
      <point x="424" y="506"/>
      <point x="398" y="454"/>
      <point x="356" y="417"/>
      <point x="310" y="386"/>
      <point x="268" y="353"/>
      <point x="242" y="308"/>
      <point x="242" y="274" type="qcurve" smooth="yes"/>
      <point x="242" y="227" type="line"/>
      <point x="159" y="227" type="line"/>
      <point x="159" y="279" type="line" smooth="yes"/>
      <point x="159" y="321"/>
      <point x="185" y="378"/>
      <point x="225" y="416"/>
      <point x="270" y="446"/>
      <point x="310" y="476"/>
      <point x="336" y="513"/>
      <point x="336" y="541" type="qcurve" smooth="yes"/>
      <point x="336" y="583"/>
      <point x="280" y="630"/>
      <point x="232" y="630" type="qcurve" smooth="yes"/>
      <point x="192" y="630"/>
      <point x="122" y="596"/>
      <point x="90" y="558" type="qcurve"/>
      <point x="33" y="602" type="line"/>
      <point x="75" y="652"/>
      <point x="176" y="700"/>
    </contour>
    <contour>
      <point x="203" y="117" type="qcurve" smooth="yes"/>
      <point x="232" y="117"/>
      <point x="268" y="79"/>
      <point x="268" y="53" type="qcurve" smooth="yes"/>
      <point x="268" y="26"/>
      <point x="232" y="-12"/>
      <point x="203" y="-12" type="qcurve" smooth="yes"/>
      <point x="176" y="-12"/>
      <point x="139" y="26"/>
      <point x="139" y="53" type="qcurve" smooth="yes"/>
      <point x="139" y="79"/>
      <point x="176" y="117"/>
    </contour>
  </outline>
</glyph>
<glyph name="at" format="1">
  <advance width="1020"/>
  <unicode hex="0040"/>
  <outline>
    <contour>
      <point x="525" y="-211" type="qcurve" smooth="yes"/>
      <point x="425" y="-211"/>
      <point x="260" y="-148"/>
      <point x="139" y="-30"/>
      <point x="73" y="137"/>
      <point x="73" y="241" type="qcurve" smooth="yes"/>
      <point x="73" y="338"/>
      <point x="138" y="505"/>
      <point x="258" y="630"/>
      <point x="425" y="700"/>
      <point x="526" y="700" type="qcurve" smooth="yes"/>
      <point x="630" y="700"/>
      <point x="787" y="637"/>
      <point x="893" y="526"/>
      <point x="947" y="385"/>
      <point x="947" y="307" type="qcurve" smooth="yes"/>
      <point x="947" y="243"/>
      <point x="922" y="134"/>
      <point x="874" y="54"/>
      <point x="801" y="10"/>
      <point x="753" y="10" type="qcurve" smooth="yes"/>
      <point x="713" y="10"/>
      <point x="661" y="42"/>
      <point x="632" y="90"/>
      <point x="627" y="114" type="qcurve"/>
      <point x="609" y="74"/>
      <point x="541" y="12"/>
      <point x="482" y="12" type="qcurve" smooth="yes"/>
      <point x="430" y="12"/>
      <point x="352" y="66"/>
      <point x="310" y="165"/>
      <point x="310" y="231" type="qcurve" smooth="yes"/>
      <point x="310" y="318"/>
      <point x="366" y="433"/>
      <point x="464" y="490"/>
      <point x="526" y="490" type="qcurve" smooth="yes"/>
      <point x="566" y="490"/>
      <point x="640" y="472"/>
      <point x="680" y="451" type="qcurve"/>
      <point x="680" y="192" type="line" smooth="yes"/>
      <point x="680" y="127"/>
      <point x="718" y="75"/>
      <point x="752" y="75" type="qcurve" smooth="yes"/>
      <point x="786" y="75"/>
      <point x="835" y="122"/>
      <point x="862" y="224"/>
      <point x="862" y="305" type="qcurve" smooth="yes"/>
      <point x="862" y="377"/>
      <point x="819" y="497"/>
      <point x="734" y="583"/>
      <point x="608" y="630"/>
      <point x="526" y="630" type="qcurve" smooth="yes"/>
      <point x="441" y="630"/>
      <point x="305" y="571"/>
      <point x="209" y="466"/>
      <point x="158" y="324"/>
      <point x="158" y="241" type="qcurve" smooth="yes"/>
      <point x="158" y="128"/>
      <point x="245" y="-44"/>
      <point x="410" y="-141"/>
      <point x="526" y="-141" type="qcurve" smooth="yes"/>
      <point x="564" y="-141"/>
      <point x="630" y="-132"/>
      <point x="690" y="-118"/>
      <point x="717" y="-108" type="qcurve"/>
      <point x="740" y="-173" type="line"/>
      <point x="708" y="-184"/>
      <point x="643" y="-201"/>
      <point x="570" y="-211"/>
    </contour>
    <contour>
      <point x="492" y="74" type="qcurve" smooth="yes"/>
      <point x="527" y="74"/>
      <point x="572" y="105"/>
      <point x="598" y="148"/>
      <point x="604" y="165" type="qcurve"/>
      <point x="604" y="413" type="line"/>
      <point x="588" y="421"/>
      <point x="552" y="429"/>
      <point x="528" y="429" type="qcurve" smooth="yes"/>
      <point x="484" y="429"/>
      <point x="423" y="384"/>
      <point x="392" y="296"/>
      <point x="392" y="231" type="qcurve" smooth="yes"/>
      <point x="392" y="154"/>
      <point x="444" y="74"/>
    </contour>
  </outline>
</glyph>
<glyph name="B" format="1">
  <advance width="606"/>
  <unicode hex="0042"/>
  <outline>
    <contour>
      <point x="292" y="0" type="qcurve" smooth="yes"/>
      <point x="103" y="0" type="line"/>
      <point x="103" y="688" type="line"/>
      <point x="263" y="688" type="line" smooth="yes"/>
      <point x="347" y="688"/>
      <point x="465" y="651"/>
      <point x="528" y="575"/>
      <point x="528" y="515" type="qcurve" smooth="yes"/>
      <point x="528" y="472"/>
      <point x="492" y="410"/>
      <point x="434" y="371"/>
      <point x="400" y="364" type="qcurve"/>
      <point x="441" y="358"/>
      <point x="513" y="323"/>
      <point x="559" y="254"/>
      <point x="559" y="195" type="qcurve" smooth="yes"/>
      <point x="559" y="124"/>
      <point x="491" y="38"/>
      <point x="371" y="0"/>
    </contour>
    <contour>
      <point x="189" y="327" type="line"/>
      <point x="189" y="70" type="line"/>
      <point x="292" y="70" type="line" smooth="yes"/>
      <point x="344" y="70"/>
      <point x="422" y="90"/>
      <point x="467" y="145"/>
      <point x="467" y="195" type="qcurve" smooth="yes"/>
      <point x="467" y="244"/>
      <point x="424" y="302"/>
      <point x="353" y="327"/>
      <point x="310" y="327" type="qcurve" smooth="yes"/>
    </contour>
    <contour>
      <point x="189" y="619" type="line"/>
      <point x="189" y="394" type="line"/>
      <point x="301" y="394" type="line" smooth="yes"/>
      <point x="341" y="394"/>
      <point x="403" y="420"/>
      <point x="439" y="472"/>
      <point x="439" y="509" type="qcurve" smooth="yes"/>
      <point x="439" y="574"/>
      <point x="351" y="619"/>
      <point x="272" y="619" type="qcurve" smooth="yes"/>
    </contour>
    <contour>
      <point x="281" y="680" type="move" name="top"/>
    </contour>
    <contour>
      <point x="310" y="0" type="move" name="bottom"/>
    </contour>
  </outline>
</glyph>
<glyph name="C" format="1">
  <advance width="558"/>
  <unicode hex="0043"/>
  <outline>
    <contour>
      <point x="342" y="700" type="qcurve" smooth="yes"/>
      <point x="406" y="700"/>
      <point x="489" y="665"/>
      <point x="529" y="633" type="qcurve"/>
      <point x="482" y="577" type="line"/>
      <point x="449" y="603"/>
      <point x="385" y="628"/>
      <point x="347" y="628" type="qcurve" smooth="yes"/>
      <point x="293" y="628"/>
      <point x="204" y="574"/>
      <point x="150" y="450"/>
      <point x="150" y="344" type="qcurve" smooth="yes"/>
      <point x="150" y="244"/>
      <point x="202" y="119"/>
      <point x="291" y="62"/>
      <point x="346" y="62" type="qcurve" smooth="yes"/>
      <point x="396" y="62"/>
      <point x="464" y="98"/>
      <point x="493" y="120" type="qcurve"/>
      <point x="537" y="64" type="line"/>
      <point x="509" y="35"/>
      <point x="411" y="-12"/>
      <point x="343" y="-12" type="qcurve" smooth="yes"/>
      <point x="261" y="-12"/>
      <point x="132" y="70"/>
      <point x="58" y="229"/>
      <point x="58" y="344" type="qcurve" smooth="yes"/>
      <point x="58" y="461"/>
      <point x="135" y="620"/>
      <point x="264" y="700"/>
    </contour>
    <contour>
      <point x="323" y="341" type="move" name="center"/>
    </contour>
    <contour>
      <point x="341" y="0" type="move" name="bottom"/>
    </contour>
    <contour>
      <point x="343" y="680" type="move" name="top"/>
    </contour>
  </outline>
</glyph>
<glyph name="D" format="1">
  <advance width="641"/>
  <unicode hex="0044"/>
  <outline>
    <contour>
      <point x="103" y="688" type="line"/>
      <point x="245" y="688" type="line" smooth="yes"/>
      <point x="310" y="688"/>
      <point x="431" y="661"/>
      <point x="527" y="589"/>
      <point x="584" y="455"/>
      <point x="584" y="348" type="qcurve" smooth="yes"/>
      <point x="584" y="242"/>
      <point x="526" y="106"/>
      <point x="431" y="30"/>
      <point x="318" y="0"/>
      <point x="263" y="0" type="qcurve" smooth="yes"/>
      <point x="103" y="0" type="line"/>
    </contour>
    <contour>
      <point x="263" y="618" type="qcurve" smooth="yes"/>
      <point x="189" y="618" type="line"/>
      <point x="189" y="69" type="line"/>
      <point x="270" y="69" type="line" smooth="yes"/>
      <point x="311" y="69"/>
      <point x="390" y="92"/>
      <point x="453" y="152"/>
      <point x="491" y="261"/>
      <point x="491" y="348" type="qcurve" smooth="yes"/>
      <point x="491" y="437"/>
      <point x="452" y="544"/>
      <point x="386" y="599"/>
      <point x="305" y="618"/>
    </contour>
    <contour>
      <point x="309" y="340" type="move" name="center"/>
    </contour>
    <contour>
      <point x="310" y="0" type="move" name="bottom"/>
    </contour>
    <contour>
      <point x="289" y="680" type="move" name="top"/>
    </contour>
  </outline>
</glyph>
<glyph name="E" format="1">
  <advance width="530"/>
  <unicode hex="0045"/>
  <outline>
    <contour>
      <point x="103" y="688" type="line"/>
      <point x="470" y="688" type="line"/>
      <point x="460" y="618" type="line"/>
      <point x="189" y="618" type="line"/>
      <point x="189" y="386" type="line"/>
      <point x="424" y="386" type="line"/>
      <point x="424" y="316" type="line"/>
      <point x="189" y="316" type="line"/>
      <point x="189" y="70" type="line"/>
      <point x="477" y="70" type="line"/>
      <point x="477" y="0" type="line"/>
      <point x="103" y="0" type="line"/>
    </contour>
    <contour>
      <point x="425" y="0" type="move" name="ogonek"/>
    </contour>
    <contour>
      <point x="284" y="680" type="move" name="top"/>
    </contour>
    <contour>
      <point x="80" y="680" type="move" name="topleft"/>
    </contour>
    <contour>
      <point x="284" y="0" type="move" name="bottom"/>
    </contour>
  </outline>
</glyph>
<glyph name="H" format="1">
  <advance width="678"/>
  <unicode hex="0048"/>
  <outline>
    <contour>
      <point x="575" y="0" type="line"/>
      <point x="488" y="0" type="line"/>
      <point x="488" y="326" type="line"/>
      <point x="189" y="326" type="line"/>
      <point x="189" y="0" type="line"/>
      <point x="103" y="0" type="line"/>
      <point x="103" y="688" type="line"/>
      <point x="189" y="688" type="line"/>
      <point x="189" y="398" type="line"/>
      <point x="488" y="398" type="line"/>
      <point x="488" y="688" type="line"/>
      <point x="575" y="688" type="line"/>
    </contour>
    <contour>
      <point x="327" y="0" type="move" name="bottom"/>
    </contour>
    <contour>
      <point x="326" y="680" type="move" name="top"/>
    </contour>
    <contour>
      <point x="80" y="680" type="move" name="topleft"/>
    </contour>
    <contour>
      <point x="534" y="0" type="move" name="bottomright"/>
    </contour>
    <contour>
      <point x="326" y="340" type="move" name="center"/>
    </contour>
  </outline>
</glyph>
<glyph name="J" format="1">
  <advance width="302"/>
  <unicode hex="004A"/>
  <outline>
    <contour>
      <point x="117" y="688" type="line"/>
      <point x="204" y="688" type="line"/>
      <point x="204" y="95" type="line" smooth="yes"/>
      <point x="204" y="43"/>
      <point x="181" y="-31"/>
      <point x="136" y="-83"/>
      <point x="72" y="-119"/>
      <point x="30" y="-133" type="qcurve"/>
      <point x="7" y="-70" type="line"/>
      <point x="53" y="-52"/>
      <point x="100" y="-8"/>
      <point x="117" y="53"/>
      <point x="117" y="99" type="qcurve" smooth="yes"/>
    </contour>
    <contour>
      <point x="150" y="680" type="move" name="top"/>
    </contour>
    <contour>
      <point x="137" y="-188" type="move" name="bottom"/>
    </contour>
  </outline>
</glyph>
<glyph name="K" format="1">
  <advance width="579"/>
  <unicode hex="004B"/>
  <outline>
    <contour>
      <point x="462" y="688" type="line"/>
      <point x="561" y="688" type="line"/>
      <point x="294" y="373" type="line"/>
      <point x="579" y="0" type="line"/>
      <point x="472" y="0" type="line"/>
      <point x="194" y="368" type="line"/>
    </contour>
    <contour>
      <point x="103" y="688" type="line"/>
      <point x="189" y="688" type="line"/>
      <point x="189" y="0" type="line"/>
      <point x="103" y="0" type="line"/>
    </contour>
    <contour>
      <point x="284" y="680" type="move" name="top"/>
    </contour>
    <contour>
      <point x="284" y="0" type="move" name="bottom"/>
    </contour>
  </outline>
</glyph>
<glyph name="L" format="1">
  <advance width="493"/>
  <unicode hex="004C"/>
  <outline>
    <contour>
      <point x="103" y="688" type="line"/>
      <point x="189" y="688" type="line"/>
      <point x="189" y="76" type="line"/>
      <point x="473" y="76" type="line"/>
      <point x="463" y="0" type="line"/>
      <point x="103" y="0" type="line"/>
    </contour>
    <contour>
      <point x="275" y="0" type="move" name="bottom"/>
    </contour>
    <contour>
      <point x="131" y="680" type="move" name="top"/>
    </contour>
    <contour>
      <point x="182" y="680" type="move" name="topright"/>
    </contour>
    <contour>
      <point x="350" y="355" type="move" name="center"/>
    </contour>
  </outline>
</glyph>
<glyph name="M" format="1">
  <advance width="792"/>
  <unicode hex="004D"/>
  <outline>
    <contour>
      <point x="535" y="688" type="line"/>
      <point x="653" y="688" type="line"/>
      <point x="713" y="0" type="line"/>
      <point x="629" y="0" type="line"/>
      <point x="603" y="315" type="line" smooth="yes"/>
      <point x="598" y="370"/>
      <point x="590" y="479"/>
      <point x="585" y="571"/>
      <point x="584" y="600" type="qcurve"/>
      <point x="429" y="79" type="line"/>
      <point x="348" y="79" type="line"/>
      <point x="186" y="601" type="line"/>
      <point x="186" y="572"/>
      <point x="183" y="502"/>
      <point x="179" y="427"/>
      <point x="173" y="348"/>
      <point x="170" y="310" type="qcurve" smooth="yes"/>
      <point x="146" y="0" type="line"/>
      <point x="64" y="0" type="line"/>
      <point x="122" y="688" type="line"/>
      <point x="240" y="688" type="line"/>
      <point x="391" y="179" type="line"/>
    </contour>
    <contour>
      <point x="378" y="680" type="move" name="top"/>
    </contour>
    <contour>
      <point x="379" y="0" type="move" name="bottom"/>
    </contour>
    <contour>
      <point x="681" y="0" type="move" name="bottomright"/>
    </contour>
  </outline>
</glyph>
<glyph name="N" format="1">
  <advance width="681"/>
  <unicode hex="004E"/>
  <outline>
    <contour>
      <point x="497" y="688" type="line"/>
      <point x="578" y="688" type="line"/>
      <point x="578" y="0" type="line"/>
      <point x="462" y="0" type="line"/>
      <point x="172" y="593" type="line"/>
      <point x="175" y="566"/>
      <point x="180" y="493"/>
      <point x="184" y="396"/>
      <point x="184" y="332" type="qcurve" smooth="yes"/>
      <point x="184" y="0" type="line"/>
      <point x="103" y="0" type="line"/>
      <point x="103" y="688" type="line"/>
      <point x="216" y="688" type="line"/>
      <point x="508" y="94" type="line"/>
      <point x="507" y="104"/>
      <point x="502" y="171"/>
      <point x="497" y="261"/>
      <point x="497" y="303" type="qcurve" smooth="yes"/>
    </contour>
    <contour>
      <point x="331" y="680" type="move" name="top"/>
    </contour>
    <contour>
      <point x="321" y="0" type="move" name="bottom"/>
    </contour>
  </outline>
</glyph>
<glyph name="P" format="1">
  <advance width="578"/>
  <unicode hex="0050"/>
  <outline>
    <contour>
      <point x="189" y="620" type="line"/>
      <point x="189" y="0" type="line"/>
      <point x="103" y="0" type="line"/>
      <point x="103" y="688" type="line"/>
      <point x="279" y="688" type="line" smooth="yes"/>
      <point x="402" y="688"/>
      <point x="543" y="585"/>
      <point x="543" y="477" type="qcurve" smooth="yes"/>
      <point x="543" y="399"/>
      <point x="474" y="301"/>
      <point x="355" y="256"/>
      <point x="279" y="256" type="qcurve" smooth="yes"/>
      <point x="174" y="256" type="line"/>
      <point x="174" y="325" type="line"/>
      <point x="276" y="325" type="line" smooth="yes"/>
      <point x="329" y="325"/>
      <point x="407" y="351"/>
      <point x="451" y="417"/>
      <point x="451" y="476" type="qcurve" smooth="yes"/>
      <point x="451" y="556"/>
      <point x="358" y="620"/>
      <point x="278" y="620" type="qcurve" smooth="yes"/>
    </contour>
    <contour>
      <point x="276" y="680" type="move" name="top"/>
    </contour>
    <contour>
      <point x="276" y="0" type="move" name="bottom"/>
    </contour>
    <contour>
      <point x="80" y="680" type="move" name="topleft"/>
    </contour>
  </outline>
</glyph>
<glyph name="Q" format="1">
  <advance width="687"/>
  <unicode hex="0051"/>
  <outline>
    <contour>
      <point x="662" y="-28" type="qcurve"/>
      <point x="605" y="-101" type="line"/>
      <point x="567" y="-67"/>
      <point x="494" y="-27"/>
      <point x="406" y="-10"/>
      <point x="344" y="-10" type="qcurve" smooth="yes"/>
      <point x="260" y="-10"/>
      <point x="131" y="70"/>
      <point x="58" y="227"/>
      <point x="58" y="342" type="qcurve" smooth="yes"/>
      <point x="58" y="456"/>
      <point x="131" y="616"/>
      <point x="261" y="700"/>
      <point x="346" y="700" type="qcurve" smooth="yes"/>
      <point x="432" y="700"/>
      <point x="561" y="618"/>
      <point x="634" y="459"/>
      <point x="634" y="343" type="qcurve" smooth="yes"/>
      <point x="634" y="257"/>
      <point x="594" y="137"/>
      <point x="522" y="59"/>
      <point x="473" y="35" type="qcurve"/>
      <point x="532" y="35"/>
      <point x="625" y="0"/>
    </contour>
    <contour>
      <point x="346" y="60" type="qcurve" smooth="yes"/>
      <point x="436" y="60"/>
      <point x="542" y="192"/>
      <point x="542" y="343" type="qcurve" smooth="yes"/>
      <point x="542" y="494"/>
      <point x="437" y="628"/>
      <point x="346" y="628" type="qcurve" smooth="yes"/>
      <point x="287" y="628"/>
      <point x="199" y="569"/>
      <point x="150" y="443"/>
      <point x="150" y="342" type="qcurve" smooth="yes"/>
      <point x="150" y="242"/>
      <point x="200" y="118"/>
      <point x="288" y="60"/>
    </contour>
    <contour>
      <point x="337" y="680" type="move" name="top"/>
    </contour>
    <contour>
      <point x="337" y="0" type="move" name="bottom"/>
    </contour>
  </outline>
</glyph>
<glyph name="R" format="1">
  <advance width="601"/>
  <unicode hex="0052"/>
  <outline>
    <contour>
      <point x="189" y="0" type="line"/>
      <point x="103" y="0" type="line"/>
      <point x="103" y="688" type="line"/>
      <point x="280" y="688" type="line" smooth="yes"/>
      <point x="365" y="688"/>
      <point x="480" y="644"/>
      <point x="538" y="559"/>
      <point x="538" y="495" type="qcurve" smooth="yes"/>
      <point x="538" y="446"/>
      <point x="504" y="374"/>
      <point x="437" y="326"/>
      <point x="388" y="311" type="qcurve"/>
      <point x="574" y="0" type="line"/>
      <point x="471" y="0" type="line"/>
      <point x="303" y="296" type="line"/>
      <point x="189" y="296" type="line"/>
    </contour>
    <contour>
      <point x="189" y="620" type="line"/>
      <point x="189" y="363" type="line"/>
      <point x="290" y="363" type="line" smooth="yes"/>
      <point x="340" y="363"/>
      <point x="409" y="389"/>
      <point x="446" y="448"/>
      <point x="446" y="495" type="qcurve" smooth="yes"/>
      <point x="446" y="539"/>
      <point x="411" y="594"/>
      <point x="338" y="620"/>
      <point x="279" y="620" type="qcurve" smooth="yes"/>
    </contour>
    <contour>
      <point x="281" y="680" type="move" name="top"/>
    </contour>
    <contour>
      <point x="301" y="0" type="move" name="bottom"/>
    </contour>
  </outline>
</glyph>
<glyph name="S" format="1">
  <advance width="544"/>
  <unicode hex="0053"/>
  <outline>
    <contour>
      <point x="269" y="700" type="qcurve" smooth="yes"/>
      <point x="340" y="700"/>
      <point x="436" y="659"/>
      <point x="478" y="621" type="qcurve"/>
      <point x="431" y="568" type="line"/>
      <point x="392" y="600"/>
      <point x="317" y="628"/>
      <point x="273" y="628" type="qcurve" smooth="yes"/>
      <point x="237" y="628"/>
      <point x="179" y="605"/>
      <point x="145" y="560"/>
      <point x="145" y="526" type="qcurve" smooth="yes"/>
      <point x="145" y="496"/>
      <point x="170" y="452"/>
      <point x="236" y="417"/>
      <point x="298" y="398" type="qcurve" smooth="yes"/>
      <point x="355" y="381"/>
      <point x="446" y="334"/>
      <point x="500" y="256"/>
      <point x="500" y="191" type="qcurve" smooth="yes"/>
      <point x="500" y="131"/>
      <point x="442" y="40"/>
      <point x="335" y="-12"/>
      <point x="259" y="-12" type="qcurve" smooth="yes"/>
      <point x="186" y="-12"/>
      <point x="71" y="35"/>
      <point x="28" y="76" type="qcurve"/>
      <point x="77" y="131" type="line"/>
      <point x="115" y="98"/>
      <point x="201" y="60"/>
      <point x="258" y="60" type="qcurve" smooth="yes"/>
      <point x="300" y="60"/>
      <point x="369" y="89"/>
      <point x="410" y="146"/>
      <point x="410" y="188" type="qcurve" smooth="yes"/>
      <point x="410" y="224"/>
      <point x="383" y="272"/>
      <point x="317" y="308"/>
      <point x="258" y="326" type="qcurve" smooth="yes"/>
      <point x="191" y="347"/>
      <point x="101" y="398"/>
      <point x="56" y="471"/>
      <point x="56" y="523" type="qcurve" smooth="yes"/>
      <point x="56" y="575"/>
      <point x="110" y="654"/>
      <point x="207" y="700"/>
    </contour>
    <contour>
      <point x="273" y="680" type="move" name="top"/>
    </contour>
    <contour>
      <point x="261" y="0" type="move" name="bottom"/>
    </contour>
  </outline>
</glyph>
<glyph name="U" format="1">
  <advance width="660"/>
  <unicode hex="0055"/>
  <outline>
    <contour>
      <point x="479" y="688" type="line"/>
      <point x="567" y="688" type="line"/>
      <point x="567" y="219" type="line" smooth="yes"/>
      <point x="567" y="152"/>
      <point x="512" y="47"/>
      <point x="406" y="-12"/>
      <point x="329" y="-12" type="qcurve" smooth="yes"/>
      <point x="251" y="-12"/>
      <point x="146" y="47"/>
      <point x="93" y="152"/>
      <point x="93" y="219" type="qcurve" smooth="yes"/>
      <point x="93" y="688" type="line"/>
      <point x="179" y="688" type="line"/>
      <point x="179" y="226" type="line" smooth="yes"/>
      <point x="179" y="172"/>
      <point x="212" y="99"/>
      <point x="278" y="62"/>
      <point x="329" y="62" type="qcurve" smooth="yes"/>
      <point x="381" y="62"/>
      <point x="447" y="99"/>
      <point x="479" y="172"/>
      <point x="479" y="226" type="qcurve" smooth="yes"/>
    </contour>
    <contour>
      <point x="397" y="0" type="move" name="ogonek"/>
    </contour>
    <contour>
      <point x="317" y="680" type="move" name="top"/>
    </contour>
    <contour>
      <point x="524" y="680" type="move" name="topright"/>
    </contour>
    <contour>
      <point x="317" y="0" type="move" name="bottom"/>
    </contour>
  </outline>
</glyph>
<glyph name="V" format="1">
  <advance width="554"/>
  <unicode hex="0056"/>
  <outline>
    <contour>
      <point x="457" y="688" type="line"/>
      <point x="545" y="688" type="line"/>
      <point x="325" y="0" type="line"/>
      <point x="231" y="0" type="line"/>
      <point x="8" y="688" type="line"/>
      <point x="102" y="688" type="line"/>
      <point x="279" y="93" type="line"/>
    </contour>
    <contour>
      <point x="262" y="680" type="move" name="top"/>
    </contour>
    <contour>
      <point x="262" y="0" type="move" name="bottom"/>
    </contour>
  </outline>
</glyph>
<glyph name="W" format="1">
  <advance width="822"/>
  <unicode hex="0057"/>
  <outline>
    <contour>
      <point x="716" y="688" type="line"/>
      <point x="796" y="688" type="line"/>
      <point x="653" y="0" type="line"/>
      <point x="542" y="0" type="line"/>
      <point x="410" y="587" type="line"/>
      <point x="277" y="0" type="line"/>
      <point x="169" y="0" type="line"/>
      <point x="26" y="688" type="line"/>
      <point x="112" y="688" type="line"/>
      <point x="227" y="76" type="line"/>
      <point x="364" y="688" type="line"/>
      <point x="457" y="688" type="line"/>
      <point x="597" y="76" type="line"/>
    </contour>
    <contour>
      <point x="388" y="680" type="move" name="top"/>
    </contour>
    <contour>
      <point x="388" y="0" type="move" name="bottom"/>
    </contour>
  </outline>
</glyph>
<glyph name="X" format="1">
  <advance width="533"/>
  <unicode hex="0058"/>
  <outline>
    <contour>
      <point x="100" y="0" type="line"/>
      <point x="6" y="0" type="line"/>
      <point x="214" y="367" type="line"/>
      <point x="25" y="688" type="line"/>
      <point x="123" y="688" type="line"/>
      <point x="267" y="425" type="line"/>
      <point x="410" y="688" type="line"/>
      <point x="503" y="688" type="line"/>
      <point x="317" y="372" type="line"/>
      <point x="528" y="0" type="line"/>
      <point x="429" y="0" type="line"/>
      <point x="265" y="311" type="line"/>
    </contour>
    <contour>
      <point x="234" y="680" type="move" name="top"/>
    </contour>
    <contour>
      <point x="234" y="0" type="move" name="bottom"/>
    </contour>
    <contour>
      <point x="454" y="0" type="move" name="bottomright"/>
    </contour>
  </outline>
</glyph>
<glyph name="Z" format="1">
  <advance width="521"/>
  <unicode hex="005A"/>
  <outline>
    <contour>
      <point x="68" y="688" type="line"/>
      <point x="475" y="688" type="line"/>
      <point x="475" y="618" type="line"/>
      <point x="128" y="74" type="line"/>
      <point x="473" y="74" type="line"/>
      <point x="463" y="0" type="line"/>
      <point x="31" y="0" type="line"/>
      <point x="31" y="70" type="line"/>
      <point x="381" y="615" type="line"/>
      <point x="68" y="615" type="line"/>
    </contour>
    <contour>
      <point x="254" y="680" type="move" name="top"/>
    </contour>
    <contour>
      <point x="258" y="0" type="move" name="bottom"/>
    </contour>
  </outline>
</glyph>
<glyph name="bracketright" format="1">
  <advance width="321"/>
  <unicode hex="005D"/>
  <outline>
    <contour>
      <point x="54" y="814" type="line"/>
      <point x="251" y="814" type="line"/>
      <point x="251" y="-115" type="line"/>
      <point x="54" y="-115" type="line"/>
      <point x="54" y="-46" type="line"/>
      <point x="172" y="-46" type="line"/>
      <point x="172" y="744" type="line"/>
      <point x="54" y="744" type="line"/>
    </contour>
  </outline>
</glyph>
<glyph name="underscore" format="1">
  <advance width="520"/>
  <unicode hex="005F"/>
  <outline>
    <contour>
      <point x="500" y="-137" type="line"/>
      <point x="20" y="-137" type="line"/>
      <point x="20" y="-65" type="line"/>
      <point x="500" y="-65" type="line"/>
    </contour>
  </outline>
</glyph>
<glyph name="grave" format="1">
  <advance width="294"/>
  <unicode hex="0060"/>
  <outline>
    <contour>
      <point x="30" y="725" type="line"/>
      <point x="68" y="797" type="line"/>
      <point x="264" y="685" type="line"/>
      <point x="238" y="640" type="line"/>
    </contour>
  </outline>
</glyph>
<glyph name="c" format="1">
  <advance width="476"/>
  <unicode hex="0063"/>
  <outline>
    <contour>
      <point x="287" y="538" type="qcurve" smooth="yes"/>
      <point x="333" y="538"/>
      <point x="409" y="512"/>
      <point x="445" y="482" type="qcurve"/>
      <point x="404" y="429" type="line"/>
      <point x="378" y="449"/>
      <point x="324" y="468"/>
      <point x="290" y="468" type="qcurve" smooth="yes"/>
      <point x="226" y="468"/>
      <point x="149" y="366"/>
      <point x="149" y="260" type="qcurve" smooth="yes"/>
      <point x="149" y="190"/>
      <point x="184" y="102"/>
      <point x="247" y="60"/>
      <point x="290" y="60" type="qcurve" smooth="yes"/>
      <point x="324" y="60"/>
      <point x="377" y="81"/>
      <point x="406" y="101" type="qcurve"/>
      <point x="445" y="46" type="line"/>
      <point x="411" y="18"/>
      <point x="332" y="-12"/>
      <point x="287" y="-12" type="qcurve" smooth="yes"/>
      <point x="217" y="-12"/>
      <point x="115" y="53"/>
      <point x="59" y="174"/>
      <point x="59" y="259" type="qcurve" smooth="yes"/>
      <point x="59" y="343"/>
      <point x="114" y="469"/>
      <point x="217" y="538"/>
    </contour>
    <contour>
      <point x="269" y="517" type="move" name="top"/>
    </contour>
    <contour>
      <point x="285" y="-1" type="move" name="bottom"/>
    </contour>
  </outline>
</glyph>
<glyph name="e" format="1">
  <advance width="547"/>
  <unicode hex="0065"/>
  <outline>
    <contour>
      <point x="275" y="538" type="qcurve" smooth="yes"/>
      <point x="346" y="538"/>
      <point x="441" y="475"/>
      <point x="489" y="360"/>
      <point x="489" y="280" type="qcurve" smooth="yes"/>
      <point x="489" y="267"/>
      <point x="488" y="242"/>
      <point x="487" y="234" type="qcurve"/>
      <point x="133" y="234" type="line"/>
      <point x="133" y="296" type="line"/>
      <point x="406" y="296" type="line"/>
      <point x="406" y="298"/>
      <point x="406" y="302"/>
      <point x="406" y="304" type="qcurve" smooth="yes"/>
      <point x="406" y="357"/>
      <point x="378" y="432"/>
      <point x="321" y="471"/>
      <point x="277" y="471" type="qcurve" smooth="yes"/>
      <point x="238" y="471"/>
      <point x="179" y="428"/>
      <point x="147" y="337"/>
      <point x="147" y="264" type="qcurve" smooth="yes"/>
      <point x="148" y="190"/>
      <point x="186" y="98"/>
      <point x="252" y="57"/>
      <point x="295" y="57" type="qcurve" smooth="yes"/>
      <point x="335" y="57"/>
      <point x="399" y="80"/>
      <point x="433" y="104" type="qcurve"/>
      <point x="470" y="54" type="line"/>
      <point x="432" y="23"/>
      <point x="343" y="-12"/>
      <point x="289" y="-12" type="qcurve" smooth="yes"/>
      <point x="217" y="-12"/>
      <point x="114" y="53"/>
      <point x="59" y="175"/>
      <point x="59" y="258" type="qcurve" smooth="yes"/>
      <point x="59" y="341"/>
      <point x="111" y="467"/>
      <point x="208" y="538"/>
    </contour>
    <contour>
      <point x="364" y="4" type="move" name="ogonek"/>
    </contour>
    <contour>
      <point x="276" y="0" type="move" name="bottom"/>
    </contour>
    <contour>
      <point x="276" y="517" type="move" name="top"/>
    </contour>
  </outline>
</glyph>
<glyph name="f" format="1">
  <advance width="332"/>
  <unicode hex="0066"/>
  <outline>
    <contour>
      <point x="190" y="0" type="line"/>
      <point x="106" y="0" type="line"/>
      <point x="106" y="461" type="line"/>
      <point x="13" y="461" type="line"/>
      <point x="13" y="526" type="line"/>
      <point x="106" y="526" type="line"/>
      <point x="106" y="601" type="line" smooth="yes"/>
      <point x="106" y="645"/>
      <point x="143" y="711"/>
      <point x="215" y="748"/>
      <point x="266" y="748" type="qcurve" smooth="yes"/>
      <point x="303" y="748"/>
      <point x="360" y="735"/>
      <point x="391" y="721" type="qcurve"/>
      <point x="364" y="660" type="line"/>
      <point x="339" y="671"/>
      <point x="292" y="680"/>
      <point x="271" y="680" type="qcurve" smooth="yes"/>
      <point x="227" y="680"/>
      <point x="190" y="642"/>
      <point x="190" y="602" type="qcurve" smooth="yes"/>
      <point x="190" y="526" type="line"/>
      <point x="320" y="526" type="line"/>
      <point x="311" y="461" type="line"/>
      <point x="190" y="461" type="line"/>
    </contour>
    <contour>
      <point x="240" y="727" type="move" name="top"/>
    </contour>
    <contour>
      <point x="128" y="0" type="move" name="bottom"/>
    </contour>
  </outline>
</glyph>
<glyph name="g" format="1">
  <advance width="516"/>
  <unicode hex="0067"/>
  <outline>
    <contour>
      <point x="251" y="-211" type="qcurve" smooth="yes"/>
      <point x="167" y="-211"/>
      <point x="69" y="-177"/>
      <point x="27" y="-107"/>
      <point x="27" y="-54" type="qcurve"/>
      <point x="103" y="-54" type="line"/>
      <point x="103" y="-86"/>
      <point x="128" y="-126"/>
      <point x="192" y="-145"/>
      <point x="251" y="-145" type="qcurve" smooth="yes"/>
      <point x="309" y="-145"/>
      <point x="378" y="-125"/>
      <point x="408" y="-87"/>
      <point x="408" y="-59" type="qcurve" smooth="yes"/>
      <point x="408" y="-20"/>
      <point x="350" y="19"/>
      <point x="299" y="19" type="qcurve" smooth="yes"/>
      <point x="216" y="19" type="line" smooth="yes"/>
      <point x="147" y="19"/>
      <point x="82" y="78"/>
      <point x="82" y="117" type="qcurve" smooth="yes"/>
      <point x="82" y="143"/>
      <point x="111" y="191"/>
      <point x="139" y="209" type="qcurve"/>
      <point x="94" y="233"/>
      <point x="51" y="304"/>
      <point x="51" y="356" type="qcurve" smooth="yes"/>
      <point x="51" y="410"/>
      <point x="103" y="492"/>
      <point x="193" y="538"/>
      <point x="251" y="538" type="qcurve" smooth="yes"/>
      <point x="301" y="537"/>
      <point x="372" y="543"/>
      <point x="424" y="555"/>
      <point x="467" y="572"/>
      <point x="489" y="582" type="qcurve"/>
      <point x="514" y="505" type="line"/>
      <point x="483" y="495"/>
      <point x="408" y="490"/>
      <point x="362" y="489" type="qcurve"/>
      <point x="408" y="469"/>
      <point x="454" y="402"/>
      <point x="454" y="354" type="qcurve" smooth="yes"/>
      <point x="454" y="303"/>
      <point x="407" y="223"/>
      <point x="318" y="177"/>
      <point x="256" y="177" type="qcurve" smooth="yes"/>
      <point x="238" y="177"/>
      <point x="205" y="182"/>
      <point x="189" y="187" type="qcurve"/>
      <point x="176" y="178"/>
      <point x="160" y="151"/>
      <point x="160" y="135" type="qcurve" smooth="yes"/>
      <point x="160" y="116"/>
      <point x="190" y="90"/>
      <point x="232" y="90" type="qcurve" smooth="yes"/>
      <point x="316" y="90" type="line" smooth="yes"/>
      <point x="396" y="90"/>
      <point x="493" y="9"/>
      <point x="493" y="-53" type="qcurve" smooth="yes"/>
      <point x="493" y="-129"/>
      <point x="372" y="-211"/>
    </contour>
    <contour>
      <point x="253" y="233" type="qcurve" smooth="yes"/>
      <point x="309" y="233"/>
      <point x="368" y="298"/>
      <point x="368" y="356" type="qcurve" smooth="yes"/>
      <point x="368" y="395"/>
      <point x="342" y="449"/>
      <point x="290" y="477"/>
      <point x="251" y="477" type="qcurve" smooth="yes"/>
      <point x="214" y="477"/>
      <point x="163" y="446"/>
      <point x="137" y="391"/>
      <point x="137" y="356" type="qcurve" smooth="yes"/>
      <point x="137" y="319"/>
      <point x="164" y="264"/>
      <point x="216" y="233"/>
    </contour>
    <contour>
      <point x="244" y="517" type="move" name="top"/>
    </contour>
    <contour>
      <point x="252" y="-188" type="move" name="bottom"/>
    </contour>
  </outline>
</glyph>
<glyph name="h" format="1">
  <advance width="585"/>
  <unicode hex="0068"/>
  <outline>
    <contour>
      <point x="182" y="0" type="line"/>
      <point x="98" y="0" type="line"/>
      <point x="98" y="737" type="line"/>
      <point x="182" y="747" type="line"/>
      <point x="182" y="450" type="line"/>
      <point x="211" y="490"/>
      <point x="291" y="538"/>
      <point x="342" y="538" type="qcurve" smooth="yes"/>
      <point x="413" y="538"/>
      <point x="493" y="451"/>
      <point x="493" y="377" type="qcurve" smooth="yes"/>
      <point x="493" y="0" type="line"/>
      <point x="409" y="0" type="line"/>
      <point x="409" y="365" type="line" smooth="yes"/>
      <point x="409" y="426"/>
      <point x="362" y="472"/>
      <point x="321" y="472" type="qcurve" smooth="yes"/>
      <point x="276" y="472"/>
      <point x="209" y="419"/>
      <point x="182" y="376" type="qcurve"/>
    </contour>
    <contour>
      <point x="293" y="260" type="move" name="center"/>
    </contour>
    <contour>
      <point x="293" y="0" type="move" name="bottom"/>
    </contour>
    <contour>
      <point x="293" y="727" type="move" name="top"/>
    </contour>
  </outline>
</glyph>
<glyph name="l" format="1">
  <advance width="291"/>
  <unicode hex="006C"/>
  <outline>
    <contour>
      <point x="198" y="-12" type="qcurve" smooth="yes"/>
      <point x="150" y="-12"/>
      <point x="93" y="45"/>
      <point x="93" y="100" type="qcurve" smooth="yes"/>
      <point x="93" y="738" type="line"/>
      <point x="177" y="748" type="line"/>
      <point x="177" y="102" type="line" smooth="yes"/>
      <point x="177" y="80"/>
      <point x="193" y="58"/>
      <point x="212" y="58" type="qcurve" smooth="yes"/>
      <point x="222" y="58"/>
      <point x="239" y="61"/>
      <point x="246" y="64" type="qcurve"/>
      <point x="268" y="5" type="line"/>
      <point x="254" y="-3"/>
      <point x="218" y="-12"/>
    </contour>
    <contour>
      <point x="174" y="0" type="move" name="bottom"/>
    </contour>
    <contour>
      <point x="121" y="730" type="move" name="top"/>
    </contour>
    <contour>
      <point x="182" y="727" type="move" name="topright"/>
    </contour>
    <contour>
      <point x="256" y="375" type="move" name="center"/>
    </contour>
  </outline>
</glyph>
<glyph name="m" format="1">
  <advance width="856"/>
  <unicode hex="006D"/>
  <outline>
    <contour>
      <point x="182" y="0" type="line"/>
      <point x="98" y="0" type="line"/>
      <point x="98" y="526" type="line"/>
      <point x="170" y="526" type="line"/>
      <point x="177" y="446" type="line"/>
      <point x="204" y="487"/>
      <point x="279" y="538"/>
      <point x="331" y="538" type="qcurve" smooth="yes"/>
      <point x="381" y="538"/>
      <point x="449" y="487"/>
      <point x="463" y="441" type="qcurve"/>
      <point x="492" y="485"/>
      <point x="569" y="538"/>
      <point x="622" y="538" type="qcurve" smooth="yes"/>
      <point x="687" y="538"/>
      <point x="763" y="451"/>
      <point x="763" y="377" type="qcurve" smooth="yes"/>
      <point x="763" y="0" type="line"/>
      <point x="679" y="0" type="line"/>
      <point x="679" y="365" type="line" smooth="yes"/>
      <point x="679" y="426"/>
      <point x="634" y="472"/>
      <point x="602" y="472" type="qcurve" smooth="yes"/>
      <point x="558" y="472"/>
      <point x="500" y="419"/>
      <point x="472" y="375" type="qcurve"/>
      <point x="472" y="0" type="line"/>
      <point x="388" y="0" type="line"/>
      <point x="388" y="365" type="line" smooth="yes"/>
      <point x="388" y="426"/>
      <point x="343" y="472"/>
      <point x="311" y="472" type="qcurve" smooth="yes"/>
      <point x="268" y="472"/>
      <point x="209" y="419"/>
      <point x="182" y="375" type="qcurve"/>
    </contour>
    <contour>
      <point x="423" y="517" type="move" name="top"/>
    </contour>
    <contour>
      <point x="423" y="0" type="move" name="bottom"/>
    </contour>
  </outline>
</glyph>
<glyph name="q" format="1">
  <advance width="590"/>
  <unicode hex="0071"/>
  <outline>
    <contour>
      <point x="414" y="466" type="qcurve"/>
      <point x="420" y="526" type="line"/>
      <point x="492" y="526" type="line"/>
      <point x="492" y="-211" type="line"/>
      <point x="408" y="-201" type="line"/>
      <point x="408" y="72" type="line"/>
      <point x="383" y="34"/>
      <point x="307" y="-12"/>
      <point x="257" y="-12" type="qcurve" smooth="yes"/>
      <point x="162" y="-12"/>
      <point x="59" y="137"/>
      <point x="59" y="261" type="qcurve" smooth="yes"/>
      <point x="59" y="342"/>
      <point x="108" y="467"/>
      <point x="201" y="538"/>
      <point x="265" y="538" type="qcurve" smooth="yes"/>
      <point x="299" y="538"/>
      <point x="353" y="519"/>
      <point x="397" y="486"/>
    </contour>
    <contour>
      <point x="275" y="55" type="qcurve" smooth="yes"/>
      <point x="321" y="55"/>
      <point x="382" y="99"/>
      <point x="408" y="138" type="qcurve"/>
      <point x="408" y="399" type="line"/>
      <point x="392" y="421"/>
      <point x="355" y="453"/>
      <point x="311" y="471"/>
      <point x="283" y="471" type="qcurve" smooth="yes"/>
      <point x="242" y="471"/>
      <point x="182" y="425"/>
      <point x="149" y="332"/>
      <point x="149" y="262" type="qcurve" smooth="yes"/>
      <point x="149" y="192"/>
      <point x="179" y="100"/>
      <point x="235" y="55"/>
    </contour>
    <contour>
      <point x="284" y="517" type="move" name="top"/>
    </contour>
    <contour>
      <point x="284" y="-188" type="move" name="bottom"/>
    </contour>
  </outline>
</glyph>
<glyph name="u" format="1">
  <advance width="581"/>
  <unicode hex="0075"/>
  <outline>
    <contour>
      <point x="400" y="526" type="line"/>
      <point x="484" y="526" type="line"/>
      <point x="484" y="0" type="line"/>
      <point x="412" y="0" type="line"/>
      <point x="405" y="85" type="line"/>
      <point x="376" y="37"/>
      <point x="297" y="-12"/>
      <point x="240" y="-12" type="qcurve" smooth="yes"/>
      <point x="170" y="-12"/>
      <point x="93" y="72"/>
      <point x="93" y="149" type="qcurve" smooth="yes"/>
      <point x="93" y="526" type="line"/>
      <point x="177" y="526" type="line"/>
      <point x="177" y="158" type="line" smooth="yes"/>
      <point x="177" y="102"/>
      <point x="218" y="55"/>
      <point x="263" y="55" type="qcurve" smooth="yes"/>
      <point x="308" y="55"/>
      <point x="375" y="108"/>
      <point x="400" y="149" type="qcurve"/>
    </contour>
    <contour>
      <point x="460" y="0" type="move" name="ogonek"/>
    </contour>
    <contour>
      <point x="290" y="517" type="move" name="top"/>
    </contour>
    <contour>
      <point x="460" y="517" type="move" name="topright"/>
    </contour>
    <contour>
      <point x="290" y="0" type="move" name="bottom"/>
    </contour>
  </outline>
</glyph>
<glyph name="v" format="1">
  <advance width="487"/>
  <unicode hex="0076"/>
  <outline>
    <contour>
      <point x="387" y="526" type="line"/>
      <point x="476" y="526" type="line"/>
      <point x="296" y="0" type="line"/>
      <point x="194" y="0" type="line"/>
      <point x="11" y="526" type="line"/>
      <point x="103" y="526" type="line"/>
      <point x="246" y="75" type="line"/>
    </contour>
    <contour>
      <point x="218" y="517" type="move" name="top"/>
    </contour>
    <contour>
      <point x="223" y="0" type="move" name="bottom"/>
    </contour>
  </outline>
</glyph>
<glyph name="x" format="1">
  <advance width="479"/>
  <unicode hex="0078"/>
  <outline>
    <contour>
      <point x="451" y="526" type="line"/>
      <point x="289" y="282" type="line"/>
      <point x="473" y="0" type="line"/>
      <point x="371" y="0" type="line"/>
      <point x="237" y="228" type="line"/>
      <point x="101" y="0" type="line"/>
      <point x="6" y="0" type="line"/>
      <point x="190" y="278" type="line"/>
      <point x="28" y="526" type="line"/>
      <point x="126" y="526" type="line"/>
      <point x="241" y="329" type="line"/>
      <point x="356" y="526" type="line"/>
    </contour>
    <contour>
      <point x="212" y="517" type="move" name="top"/>
    </contour>
    <contour>
      <point x="212" y="0" type="move" name="bottom"/>
    </contour>
    <contour>
      <point x="407" y="0" type="move" name="bottomright"/>
    </contour>
  </outline>
</glyph>
<glyph name="y" format="1">
  <advance width="486"/>
  <unicode hex="0079"/>
  <outline>
    <contour>
      <point x="388" y="526" type="line"/>
      <point x="475" y="526" type="line"/>
      <point x="298" y="-3" type="line" smooth="yes"/>
      <point x="280" y="-59"/>
      <point x="223" y="-146"/>
      <point x="132" y="-202"/>
      <point x="61" y="-211" type="qcurve"/>
      <point x="51" y="-145" type="line"/>
      <point x="105" y="-135"/>
      <point x="166" y="-99"/>
      <point x="203" y="-42"/>
      <point x="218" y="0" type="qcurve"/>
      <point x="189" y="0" type="line"/>
      <point x="11" y="526" type="line"/>
      <point x="101" y="526" type="line"/>
      <point x="246" y="61" type="line"/>
    </contour>
    <contour>
      <point x="217" y="517" type="move" name="top"/>
    </contour>
    <contour>
      <point x="226" y="-188" type="move" name="bottom"/>
    </contour>
  </outline>
</glyph>
<glyph name="braceleft" format="1">
  <advance width="323"/>
  <unicode hex="007B"/>
  <outline>
    <contour>
      <point x="273" y="834" type="qcurve"/>
      <point x="273" y="769" type="line"/>
      <point x="224" y="769"/>
      <point x="180" y="737"/>
      <point x="180" y="699" type="qcurve" smooth="yes"/>
      <point x="180" y="456" type="line" smooth="yes"/>
      <point x="180" y="402"/>
      <point x="141" y="360"/>
      <point x="105" y="349" type="qcurve"/>
      <point x="141" y="338"/>
      <point x="180" y="297"/>
      <point x="180" y="243" type="qcurve" smooth="yes"/>
      <point x="180" y="1" type="line" smooth="yes"/>
      <point x="180" y="-37"/>
      <point x="224" y="-70"/>
      <point x="273" y="-70" type="qcurve"/>
      <point x="273" y="-134" type="line"/>
      <point x="210" y="-134"/>
      <point x="135" y="-105"/>
      <point x="101" y="-42"/>
      <point x="101" y="9" type="qcurve" smooth="yes"/>
      <point x="101" y="239" type="line" smooth="yes"/>
      <point x="101" y="280"/>
      <point x="69" y="314"/>
      <point x="30" y="314" type="qcurve"/>
      <point x="30" y="384" type="line"/>
      <point x="69" y="384"/>
      <point x="101" y="420"/>
      <point x="101" y="461" type="qcurve" smooth="yes"/>
      <point x="101" y="691" type="line" smooth="yes"/>
      <point x="101" y="742"/>
      <point x="135" y="805"/>
      <point x="210" y="834"/>
    </contour>
  </outline>
</glyph>
<glyph name="braceright" format="1">
  <advance width="323"/>
  <unicode hex="007D"/>
  <outline>
    <contour>
      <point x="50" y="769" type="qcurve"/>
      <point x="50" y="834" type="line"/>
      <point x="113" y="834"/>
      <point x="189" y="805"/>
      <point x="222" y="742"/>
      <point x="222" y="691" type="qcurve" smooth="yes"/>
      <point x="222" y="461" type="line" smooth="yes"/>
      <point x="222" y="420"/>
      <point x="254" y="384"/>
      <point x="293" y="384" type="qcurve"/>
      <point x="293" y="314" type="line"/>
      <point x="254" y="314"/>
      <point x="222" y="280"/>
      <point x="222" y="239" type="qcurve" smooth="yes"/>
      <point x="222" y="9" type="line" smooth="yes"/>
      <point x="222" y="-42"/>
      <point x="189" y="-105"/>
      <point x="113" y="-134"/>
      <point x="50" y="-134" type="qcurve"/>
      <point x="50" y="-70" type="line"/>
      <point x="100" y="-70"/>
      <point x="143" y="-37"/>
      <point x="143" y="1" type="qcurve" smooth="yes"/>
      <point x="143" y="243" type="line" smooth="yes"/>
      <point x="143" y="297"/>
      <point x="182" y="338"/>
      <point x="218" y="349" type="qcurve"/>
      <point x="182" y="360"/>
      <point x="143" y="402"/>
      <point x="143" y="456" type="qcurve" smooth="yes"/>
      <point x="143" y="699" type="line" smooth="yes"/>
      <point x="143" y="737"/>
      <point x="100" y="769"/>
    </contour>
  </outline>
</glyph>
<glyph name="asciitilde" format="1">
  <advance width="484"/>
  <unicode hex="007E"/>
  <outline>
    <contour>
      <point x="317" y="253" type="qcurve" smooth="yes"/>
      <point x="289" y="253"/>
      <point x="245" y="271"/>
      <point x="209" y="296"/>
      <point x="179" y="314"/>
      <point x="164" y="314" type="qcurve" smooth="yes"/>
      <point x="138" y="314"/>
      <point x="103" y="282"/>
      <point x="90" y="262" type="qcurve"/>
      <point x="39" y="289" type="line"/>
      <point x="50" y="309"/>
      <point x="84" y="352"/>
      <point x="135" y="381"/>
      <point x="170" y="381" type="qcurve" smooth="yes"/>
      <point x="198" y="381"/>
      <point x="241" y="363"/>
      <point x="276" y="339"/>
      <point x="307" y="321"/>
      <point x="323" y="321" type="qcurve" smooth="yes"/>
      <point x="348" y="321"/>
      <point x="382" y="349"/>
      <point x="395" y="368" type="qcurve"/>
      <point x="445" y="340" type="line"/>
      <point x="435" y="320"/>
      <point x="401" y="280"/>
      <point x="352" y="253"/>
    </contour>
    <contour>
      <point x="360" y="332" type="move" name="_center"/>
    </contour>
  </outline>
</glyph>
<glyph name="exclamdown" format="1">
  <advance width="241"/>
  <unicode hex="00A1"/>
  <outline>
    <contour>
      <point x="84" y="248" type="line"/>
      <point x="159" y="248" type="line"/>
      <point x="168" y="-201" type="line"/>
      <point x="76" y="-201" type="line"/>
    </contour>
    <contour>
      <point x="121" y="490" type="qcurve" smooth="yes"/>
      <point x="148" y="490"/>
      <point x="185" y="453"/>
      <point x="185" y="426" type="qcurve" smooth="yes"/>
      <point x="185" y="399"/>
      <point x="148" y="362"/>
      <point x="121" y="362" type="qcurve" smooth="yes"/>
      <point x="93" y="362"/>
      <point x="56" y="399"/>
      <point x="56" y="426" type="qcurve" smooth="yes"/>
      <point x="56" y="453"/>
      <point x="93" y="490"/>
    </contour>
  </outline>
</glyph>
<glyph name="cent" format="1">
  <advance width="476"/>
  <unicode hex="00A2"/>
  <outline>
    <contour>
      <point x="325" y="-153" type="line"/>
      <point x="252" y="-153" type="line"/>
      <point x="252" y="-9" type="line"/>
      <point x="192" y="-2"/>
      <point x="105" y="67"/>
      <point x="59" y="182"/>
      <point x="59" y="259" type="qcurve" smooth="yes"/>
      <point x="59" y="336"/>
      <point x="106" y="455"/>
      <point x="193" y="527"/>
      <point x="253" y="535" type="qcurve"/>
      <point x="253" y="683" type="line"/>
      <point x="325" y="683" type="line"/>
      <point x="325" y="535" type="line"/>
      <point x="359" y="531"/>
      <point x="417" y="505"/>
      <point x="445" y="482" type="qcurve"/>
      <point x="404" y="429" type="line"/>
      <point x="378" y="449"/>
      <point x="324" y="468"/>
      <point x="290" y="468" type="qcurve" smooth="yes"/>
      <point x="226" y="468"/>
      <point x="149" y="366"/>
      <point x="149" y="260" type="qcurve" smooth="yes"/>
      <point x="149" y="190"/>
      <point x="184" y="102"/>
      <point x="247" y="60"/>
      <point x="290" y="60" type="qcurve" smooth="yes"/>
      <point x="324" y="60"/>
      <point x="377" y="81"/>
      <point x="406" y="101" type="qcurve"/>
      <point x="445" y="46" type="line"/>
      <point x="418" y="24"/>
      <point x="359" y="-5"/>
      <point x="325" y="-9" type="qcurve"/>
    </contour>
    <contour>
      <point x="269" y="517" type="move" name="top"/>
    </contour>
    <contour>
      <point x="285" y="-1" type="move" name="bottom"/>
    </contour>
  </outline>
</glyph>
<glyph name="sterling" format="1">
  <advance width="522"/>
  <unicode hex="00A3"/>
  <outline>
    <contour>
      <point x="458" y="0" type="line"/>
      <point x="43" y="0" type="line"/>
      <point x="43" y="67" type="line"/>
      <point x="76" y="80"/>
      <point x="112" y="110"/>
      <point x="125" y="158"/>
      <point x="125" y="197" type="qcurve" smooth="yes"/>
      <point x="125" y="324" type="line"/>
      <point x="59" y="324" type="line"/>
      <point x="59" y="380" type="line"/>
      <point x="125" y="380" type="line"/>
      <point x="125" y="495" type="line" smooth="yes"/>
      <point x="125" y="548"/>
      <point x="168" y="630"/>
      <point x="250" y="678"/>
      <point x="310" y="678" type="qcurve" smooth="yes"/>
      <point x="364" y="678"/>
      <point x="450" y="639"/>
      <point x="485" y="597" type="qcurve"/>
      <point x="429" y="555" type="line"/>
      <point x="406" y="583"/>
      <point x="351" y="609"/>
      <point x="313" y="609" type="qcurve" smooth="yes"/>
      <point x="263" y="609"/>
      <point x="208" y="550"/>
      <point x="208" y="495" type="qcurve" smooth="yes"/>
      <point x="208" y="380" type="line"/>
      <point x="417" y="380" type="line"/>
      <point x="417" y="324" type="line"/>
      <point x="208" y="324" type="line"/>
      <point x="208" y="196" type="line" smooth="yes"/>
      <point x="208" y="147"/>
      <point x="183" y="91"/>
      <point x="146" y="71" type="qcurve"/>
      <point x="468" y="71" type="line"/>
    </contour>
  </outline>
</glyph>
<glyph name="currency" format="1">
  <advance width="560"/>
  <unicode hex="00A4"/>
  <outline>
    <contour>
      <point x="162" y="170" type="qcurve"/>
      <point x="84" y="91" type="line"/>
      <point x="34" y="142" type="line"/>
      <point x="112" y="220" type="line"/>
      <point x="95" y="246"/>
      <point x="75" y="307"/>
      <point x="75" y="341" type="qcurve" smooth="yes"/>
      <point x="75" y="375"/>
      <point x="95" y="436"/>
      <point x="111" y="461" type="qcurve"/>
      <point x="34" y="541" type="line"/>
      <point x="84" y="591" type="line"/>
      <point x="163" y="511" type="line"/>
      <point x="186" y="528"/>
      <point x="245" y="546"/>
      <point x="278" y="546" type="qcurve" smooth="yes"/>
      <point x="313" y="546"/>
      <point x="373" y="529"/>
      <point x="397" y="513" type="qcurve"/>
      <point x="476" y="591" type="line"/>
      <point x="526" y="541" type="line"/>
      <point x="450" y="464" type="line"/>
      <point x="468" y="439"/>
      <point x="487" y="376"/>
      <point x="487" y="341" type="qcurve" smooth="yes"/>
      <point x="487" y="306"/>
      <point x="468" y="243"/>
      <point x="450" y="217" type="qcurve"/>
      <point x="526" y="142" type="line"/>
      <point x="476" y="91" type="line"/>
      <point x="397" y="168" type="line"/>
      <point x="373" y="152"/>
      <point x="313" y="135"/>
      <point x="278" y="135" type="qcurve" smooth="yes"/>
      <point x="245" y="135"/>
      <point x="186" y="154"/>
    </contour>
    <contour>
      <point x="281" y="202" type="qcurve" smooth="yes"/>
      <point x="322" y="202"/>
      <point x="378" y="236"/>
      <point x="406" y="299"/>
      <point x="406" y="342" type="qcurve" smooth="yes"/>
      <point x="406" y="385"/>
      <point x="378" y="447"/>
      <point x="322" y="481"/>
      <point x="281" y="481" type="qcurve" smooth="yes"/>
      <point x="240" y="481"/>
      <point x="184" y="447"/>
      <point x="155" y="385"/>
      <point x="155" y="342" type="qcurve" smooth="yes"/>
      <point x="155" y="299"/>
      <point x="184" y="236"/>
      <point x="240" y="202"/>
    </contour>
  </outline>
</glyph>
<glyph name="yen" format="1">
  <advance width="530"/>
  <unicode hex="00A5"/>
  <outline>
    <contour>
      <point x="434" y="668" type="line"/>
      <point x="523" y="668" type="line"/>
      <point x="308" y="305" type="line"/>
      <point x="308" y="0" type="line"/>
      <point x="222" y="0" type="line"/>
      <point x="222" y="304" type="line"/>
      <point x="7" y="668" type="line"/>
      <point x="100" y="668" type="line"/>
      <point x="268" y="369" type="line"/>
    </contour>
    <contour>
      <point x="84" y="194" type="line"/>
      <point x="446" y="194" type="line"/>
      <point x="446" y="137" type="line"/>
      <point x="84" y="137" type="line"/>
    </contour>
    <contour>
      <point x="84" y="344" type="line"/>
      <point x="446" y="344" type="line"/>
      <point x="446" y="287" type="line"/>
      <point x="84" y="287" type="line"/>
    </contour>
  </outline>
</glyph>
<glyph name="brokenbar" format="1">
  <advance width="404"/>
  <unicode hex="00A6"/>
  <outline>
    <contour>
      <point x="240" y="443" type="line"/>
      <point x="164" y="443" type="line"/>
      <point x="164" y="806" type="line"/>
      <point x="240" y="806" type="line"/>
    </contour>
    <contour>
      <point x="240" y="-102" type="line"/>
      <point x="164" y="-102" type="line"/>
      <point x="164" y="262" type="line"/>
      <point x="240" y="262" type="line"/>
    </contour>
  </outline>
</glyph>
<glyph name="section" format="1">
  <advance width="533"/>
  <unicode hex="00A7"/>
  <outline>
    <contour>
      <point x="280" y="676" type="qcurve" smooth="yes"/>
      <point x="335" y="676"/>
      <point x="415" y="647"/>
      <point x="448" y="624" type="qcurve"/>
      <point x="415" y="570" type="line"/>
      <point x="384" y="590"/>
      <point x="320" y="611"/>
      <point x="279" y="611" type="qcurve" smooth="yes"/>
      <point x="250" y="611"/>
      <point x="206" y="593"/>
      <point x="181" y="562"/>
      <point x="181" y="541" type="qcurve" smooth="yes"/>
      <point x="181" y="518"/>
      <point x="200" y="485"/>
      <point x="254" y="457"/>
      <point x="305" y="440" type="qcurve" smooth="yes"/>
      <point x="358" y="422"/>
      <point x="427" y="382"/>
      <point x="460" y="329"/>
      <point x="460" y="289" type="qcurve" smooth="yes"/>
      <point x="460" y="249"/>
      <point x="408" y="186"/>
      <point x="370" y="163" type="qcurve"/>
      <point x="322" y="190" type="line"/>
      <point x="349" y="210"/>
      <point x="379" y="258"/>
      <point x="379" y="281" type="qcurve" smooth="yes"/>
      <point x="379" y="305"/>
      <point x="361" y="337"/>
      <point x="314" y="364"/>
      <point x="269" y="380" type="qcurve" smooth="yes"/>
      <point x="212" y="401"/>
      <point x="136" y="440"/>
      <point x="98" y="494"/>
      <point x="98" y="535" type="qcurve" smooth="yes"/>
      <point x="98" y="580"/>
      <point x="147" y="643"/>
      <point x="230" y="676"/>
    </contour>
    <contour>
      <point x="163" y="445" type="qcurve"/>
      <point x="211" y="416" type="line"/>
      <point x="183" y="396"/>
      <point x="155" y="346"/>
      <point x="155" y="323" type="qcurve" smooth="yes"/>
      <point x="155" y="298"/>
      <point x="172" y="266"/>
      <point x="216" y="241"/>
      <point x="255" y="228" type="qcurve" smooth="yes"/>
      <point x="317" y="208"/>
      <point x="397" y="167"/>
      <point x="437" y="113"/>
      <point x="437" y="73" type="qcurve" smooth="yes"/>
      <point x="437" y="29"/>
      <point x="388" y="-35"/>
      <point x="303" y="-70"/>
      <point x="247" y="-70" type="qcurve" smooth="yes"/>
      <point x="195" y="-70"/>
      <point x="112" y="-43"/>
      <point x="80" y="-21" type="qcurve"/>
      <point x="112" y="36" type="line"/>
      <point x="143" y="15"/>
      <point x="210" y="-4"/>
      <point x="250" y="-4" type="qcurve" smooth="yes"/>
      <point x="294" y="-4"/>
      <point x="353" y="33"/>
      <point x="353" y="65" type="qcurve" smooth="yes"/>
      <point x="353" y="89"/>
      <point x="334" y="121"/>
      <point x="281" y="148"/>
      <point x="229" y="165" type="qcurve" smooth="yes"/>
      <point x="177" y="182"/>
      <point x="107" y="219"/>
      <point x="73" y="272"/>
      <point x="73" y="312" type="qcurve" smooth="yes"/>
      <point x="73" y="355"/>
      <point x="126" y="424"/>
    </contour>
  </outline>
</glyph>
<glyph name="dieresis" format="1">
  <advance width="372"/>
  <unicode hex="00A8"/>
  <outline>
    <contour>
      <point x="288" y="762" type="qcurve" smooth="yes"/>
      <point x="311" y="762"/>
      <point x="342" y="732"/>
      <point x="342" y="709" type="qcurve" smooth="yes"/>
      <point x="342" y="687"/>
      <point x="311" y="656"/>
      <point x="288" y="656" type="qcurve" smooth="yes"/>
      <point x="266" y="656"/>
      <point x="235" y="687"/>
      <point x="235" y="709" type="qcurve" smooth="yes"/>
      <point x="235" y="732"/>
      <point x="266" y="762"/>
    </contour>
    <contour>
      <point x="84" y="762" type="qcurve" smooth="yes"/>
      <point x="107" y="762"/>
      <point x="137" y="732"/>
      <point x="137" y="709" type="qcurve" smooth="yes"/>
      <point x="137" y="687"/>
      <point x="107" y="656"/>
      <point x="84" y="656" type="qcurve" smooth="yes"/>
      <point x="61" y="656"/>
      <point x="30" y="687"/>
      <point x="30" y="709" type="qcurve" smooth="yes"/>
      <point x="30" y="732"/>
      <point x="61" y="762"/>
    </contour>
  </outline>
</glyph>
<glyph name="copyright" format="1">
  <advance width="810"/>
  <unicode hex="00A9"/>
  <outline>
    <contour>
      <point x="406" y="745" type="qcurve" smooth="yes"/>
      <point x="470" y="745"/>
      <point x="582" y="697"/>
      <point x="666" y="612"/>
      <point x="714" y="499"/>
      <point x="714" y="434" type="qcurve" smooth="yes"/>
      <point x="714" y="370"/>
      <point x="666" y="257"/>
      <point x="582" y="172"/>
      <point x="470" y="124"/>
      <point x="406" y="124" type="qcurve" smooth="yes"/>
      <point x="341" y="124"/>
      <point x="229" y="172"/>
      <point x="144" y="257"/>
      <point x="96" y="369"/>
      <point x="96" y="434" type="qcurve" smooth="yes"/>
      <point x="96" y="499"/>
      <point x="144" y="612"/>
      <point x="229" y="697"/>
      <point x="341" y="745"/>
    </contour>
    <contour>
      <point x="408" y="623" type="qcurve" smooth="yes"/>
      <point x="445" y="623"/>
      <point x="497" y="602"/>
      <point x="521" y="584" type="qcurve"/>
      <point x="487" y="539" type="line"/>
      <point x="470" y="553"/>
      <point x="433" y="567"/>
      <point x="411" y="567" type="qcurve" smooth="yes"/>
      <point x="386" y="567"/>
      <point x="344" y="541"/>
      <point x="318" y="483"/>
      <point x="318" y="435" type="qcurve" smooth="yes"/>
      <point x="318" y="369"/>
      <point x="371" y="306"/>
      <point x="411" y="306" type="qcurve" smooth="yes"/>
      <point x="438" y="306"/>
      <point x="477" y="323"/>
      <point x="495" y="336" type="qcurve"/>
      <point x="525" y="292" type="line"/>
      <point x="505" y="274"/>
      <point x="449" y="247"/>
      <point x="409" y="247" type="qcurve" smooth="yes"/>
      <point x="339" y="247"/>
      <point x="248" y="344"/>
      <point x="248" y="435" type="qcurve" smooth="yes"/>
      <point x="248" y="497"/>
      <point x="293" y="581"/>
      <point x="366" y="623"/>
    </contour>
    <contour>
      <point x="406" y="696" type="qcurve" smooth="yes"/>
      <point x="334" y="696"/>
      <point x="219" y="626"/>
      <point x="153" y="507"/>
      <point x="153" y="434" type="qcurve" smooth="yes"/>
      <point x="153" y="361"/>
      <point x="219" y="243"/>
      <point x="334" y="174"/>
      <point x="406" y="174" type="qcurve" smooth="yes"/>
      <point x="478" y="174"/>
      <point x="592" y="244"/>
      <point x="658" y="362"/>
      <point x="658" y="434" type="qcurve" smooth="yes"/>
      <point x="658" y="508"/>
      <point x="592" y="626"/>
      <point x="478" y="696"/>
    </contour>
  </outline>
</glyph>
<glyph name="ordfeminine" format="1">
  <advance width="500"/>
  <unicode hex="00AA"/>
  <outline>
    <contour>
      <point x="203" y="272" type="qcurve" smooth="yes"/>
      <point x="140" y="272"/>
      <point x="68" y="339"/>
      <point x="68" y="393" type="qcurve" smooth="yes"/>
      <point x="68" y="457"/>
      <point x="167" y="524"/>
      <point x="255" y="524" type="qcurve" smooth="yes"/>
      <point x="317" y="524" type="line"/>
      <point x="317" y="550" type="line" smooth="yes"/>
      <point x="317" y="591"/>
      <point x="276" y="624"/>
      <point x="232" y="624" type="qcurve" smooth="yes"/>
      <point x="209" y="624"/>
      <point x="151" y="614"/>
      <point x="119" y="603" type="qcurve"/>
      <point x="99" y="660" type="line"/>
      <point x="137" y="674"/>
      <point x="210" y="688"/>
      <point x="245" y="688" type="qcurve" smooth="yes"/>
      <point x="325" y="688"/>
      <point x="399" y="619"/>
      <point x="399" y="555" type="qcurve" smooth="yes"/>
      <point x="399" y="382" type="line" smooth="yes"/>
      <point x="399" y="356"/>
      <point x="416" y="334"/>
      <point x="432" y="328" type="qcurve"/>
      <point x="414" y="273" type="line"/>
      <point x="382" y="277"/>
      <point x="340" y="303"/>
      <point x="330" y="333" type="qcurve"/>
      <point x="308" y="301"/>
      <point x="242" y="272"/>
    </contour>
    <contour>
      <point x="444" y="0" type="line"/>
      <point x="73" y="0" type="line"/>
      <point x="73" y="71" type="line"/>
      <point x="444" y="71" type="line"/>
    </contour>
    <contour>
      <point x="223" y="333" type="qcurve" smooth="yes"/>
      <point x="255" y="333"/>
      <point x="301" y="362"/>
      <point x="317" y="389" type="qcurve"/>
      <point x="317" y="473" type="line"/>
      <point x="264" y="473" type="line" smooth="yes"/>
      <point x="210" y="473"/>
      <point x="154" y="436"/>
      <point x="154" y="397" type="qcurve" smooth="yes"/>
      <point x="154" y="366"/>
      <point x="190" y="333"/>
    </contour>
  </outline>
</glyph>
<glyph name="registered" format="1">
  <advance width="641"/>
  <unicode hex="00AE"/>
  <outline>
    <contour>
      <point x="319" y="242" type="qcurve" smooth="yes"/>
      <point x="250" y="242"/>
      <point x="137" y="309"/>
      <point x="70" y="424"/>
      <point x="70" y="494" type="qcurve" smooth="yes"/>
      <point x="70" y="564"/>
      <point x="137" y="678"/>
      <point x="250" y="747"/>
      <point x="319" y="747" type="qcurve" smooth="yes"/>
      <point x="391" y="747"/>
      <point x="505" y="679"/>
      <point x="571" y="564"/>
      <point x="571" y="494" type="qcurve" smooth="yes"/>
      <point x="571" y="424"/>
      <point x="505" y="310"/>
      <point x="391" y="242"/>
    </contour>
    <contour>
      <point x="319" y="288" type="qcurve" smooth="yes"/>
      <point x="378" y="288"/>
      <point x="468" y="343"/>
      <point x="519" y="437"/>
      <point x="519" y="494" type="qcurve" smooth="yes"/>
      <point x="519" y="552"/>
      <point x="468" y="645"/>
      <point x="378" y="701"/>
      <point x="319" y="701" type="qcurve" smooth="yes"/>
      <point x="263" y="701"/>
      <point x="173" y="645"/>
      <point x="121" y="551"/>
      <point x="121" y="494" type="qcurve" smooth="yes"/>
      <point x="121" y="437"/>
      <point x="173" y="343"/>
      <point x="263" y="288"/>
    </contour>
    <contour>
      <point x="283" y="360" type="line"/>
      <point x="230" y="360" type="line"/>
      <point x="230" y="635" type="line"/>
      <point x="306" y="635" type="line" smooth="yes"/>
      <point x="367" y="635"/>
      <point x="426" y="594"/>
      <point x="426" y="552" type="qcurve" smooth="yes"/>
      <point x="426" y="522"/>
      <point x="389" y="484"/>
      <point x="361" y="476" type="qcurve"/>
      <point x="435" y="360" type="line"/>
      <point x="372" y="360" type="line"/>
      <point x="310" y="467" type="line"/>
      <point x="283" y="467" type="line"/>
    </contour>
    <contour>
      <point x="283" y="593" type="line"/>
      <point x="283" y="509" type="line"/>
      <point x="316" y="509" type="line" smooth="yes"/>
      <point x="341" y="509"/>
      <point x="371" y="529"/>
      <point x="371" y="552" type="qcurve" smooth="yes"/>
      <point x="371" y="575"/>
      <point x="342" y="593"/>
      <point x="313" y="593" type="qcurve" smooth="yes"/>
    </contour>
  </outline>
</glyph>
<glyph name="macron" format="1">
  <advance width="325"/>
  <unicode hex="00AF"/>
  <outline>
    <contour>
      <point x="295" y="733" type="line"/>
      <point x="295" y="669" type="line"/>
      <point x="30" y="669" type="line"/>
      <point x="30" y="733" type="line"/>
    </contour>
  </outline>
</glyph>
<glyph name="degree" format="1">
  <advance width="522"/>
  <unicode hex="00B0"/>
  <outline>
    <contour>
      <point x="219" y="442" type="qcurve" smooth="yes"/>
      <point x="256" y="442"/>
      <point x="309" y="492"/>
      <point x="309" y="541" type="qcurve" smooth="yes"/>
      <point x="309" y="591"/>
      <point x="256" y="641"/>
      <point x="219" y="641" type="qcurve" smooth="yes"/>
      <point x="184" y="641"/>
      <point x="129" y="592"/>
      <point x="129" y="542" type="qcurve" smooth="yes"/>
      <point x="129" y="492"/>
      <point x="184" y="442"/>
    </contour>
    <contour>
      <point x="219" y="384" type="qcurve" smooth="yes"/>
      <point x="179" y="384"/>
      <point x="105" y="421"/>
      <point x="58" y="492"/>
      <point x="58" y="542" type="qcurve" smooth="yes"/>
      <point x="58" y="593"/>
      <point x="105" y="663"/>
      <point x="179" y="700"/>
      <point x="219" y="700" type="qcurve" smooth="yes"/>
      <point x="261" y="700"/>
      <point x="334" y="663"/>
      <point x="380" y="592"/>
      <point x="380" y="541" type="qcurve" smooth="yes"/>
      <point x="380" y="491"/>
      <point x="334" y="420"/>
      <point x="261" y="384"/>
    </contour>
  </outline>
</glyph>
<glyph name="acute" format="1">
  <advance width="294"/>
  <unicode hex="00B4"/>
  <outline>
    <contour>
      <point x="30" y="685" type="line"/>
      <point x="226" y="797" type="line"/>
      <point x="264" y="725" type="line"/>
      <point x="56" y="640" type="line"/>
    </contour>
  </outline>
</glyph>
<glyph name="paragraph" format="1">
  <advance width="687"/>
  <unicode hex="00B6"/>
  <outline>
    <contour>
      <point x="330" y="681" type="qcurve" smooth="yes"/>
      <point x="527" y="682" type="line"/>
      <point x="527" y="-193" type="line"/>
      <point x="497" y="-199" type="line"/>
      <point x="497" y="654" type="line"/>
      <point x="357" y="654" type="line"/>
      <point x="357" y="-193" type="line"/>
      <point x="327" y="-199" type="line"/>
      <point x="327" y="304" type="line"/>
      <point x="245" y="307"/>
      <point x="150" y="359"/>
      <point x="110" y="443"/>
      <point x="110" y="493" type="qcurve" smooth="yes"/>
      <point x="110" y="553"/>
      <point x="161" y="637"/>
      <point x="260" y="681"/>
    </contour>
  </outline>
</glyph>
<glyph name="ordmasculine" format="1">
  <advance width="500"/>
  <unicode hex="00BA"/>
  <outline>
    <contour>
      <point x="251" y="688" type="qcurve" smooth="yes"/>
      <point x="341" y="688"/>
      <point x="441" y="578"/>
      <point x="441" y="480" type="qcurve" smooth="yes"/>
      <point x="441" y="386"/>
      <point x="340" y="272"/>
      <point x="250" y="272" type="qcurve" smooth="yes"/>
      <point x="159" y="272"/>
      <point x="59" y="383"/>
      <point x="59" y="480" type="qcurve" smooth="yes"/>
      <point x="59" y="574"/>
      <point x="160" y="688"/>
    </contour>
    <contour>
      <point x="251" y="624" type="qcurve" smooth="yes"/>
      <point x="200" y="624"/>
      <point x="146" y="554"/>
      <point x="146" y="480" type="qcurve" smooth="yes"/>
      <point x="146" y="407"/>
      <point x="200" y="335"/>
      <point x="250" y="335" type="qcurve" smooth="yes"/>
      <point x="300" y="335"/>
      <point x="354" y="406"/>
      <point x="354" y="480" type="qcurve" smooth="yes"/>
      <point x="354" y="554"/>
      <point x="301" y="624"/>
    </contour>
    <contour>
      <point x="435" y="0" type="line"/>
      <point x="64" y="0" type="line"/>
      <point x="64" y="71" type="line"/>
      <point x="435" y="71" type="line"/>
    </contour>
  </outline>
</glyph>
<glyph name="questiondown" format="1">
  <advance width="456"/>
  <unicode hex="00BF"/>
  <outline>
    <contour>
      <point x="219" y="-213" type="qcurve" smooth="yes"/>
      <point x="158" y="-213"/>
      <point x="75" y="-169"/>
      <point x="33" y="-100"/>
      <point x="33" y="-60" type="qcurve" smooth="yes"/>
      <point x="33" y="-21"/>
      <point x="59" y="32"/>
      <point x="100" y="69"/>
      <point x="147" y="99"/>
      <point x="188" y="131"/>
      <point x="214" y="173"/>
      <point x="214" y="205" type="qcurve" smooth="yes"/>
      <point x="214" y="248" type="line"/>
      <point x="297" y="248" type="line"/>
      <point x="297" y="201" type="line" smooth="yes"/>
      <point x="297" y="161"/>
      <point x="271" y="106"/>
      <point x="231" y="68"/>
      <point x="186" y="39"/>
      <point x="146" y="10"/>
      <point x="120" y="-27"/>
      <point x="120" y="-55" type="qcurve" smooth="yes"/>
      <point x="120" y="-96"/>
      <point x="177" y="-143"/>
      <point x="224" y="-143" type="qcurve" smooth="yes"/>
      <point x="264" y="-143"/>
      <point x="335" y="-109"/>
      <point x="366" y="-71" type="qcurve"/>
      <point x="424" y="-115" type="line"/>
      <point x="381" y="-165"/>
      <point x="281" y="-213"/>
    </contour>
    <contour>
      <point x="253" y="362" type="qcurve" smooth="yes"/>
      <point x="225" y="362"/>
      <point x="188" y="399"/>
      <point x="188" y="426" type="qcurve" smooth="yes"/>
      <point x="188" y="453"/>
      <point x="225" y="490"/>
      <point x="253" y="490" type="qcurve" smooth="yes"/>
      <point x="280" y="490"/>
      <point x="317" y="453"/>
      <point x="317" y="426" type="qcurve" smooth="yes"/>
      <point x="317" y="399"/>
      <point x="280" y="362"/>
    </contour>
  </outline>
</glyph>
<glyph name="Eth" format="1">
  <advance width="651"/>
  <unicode hex="00D0"/>
  <outline>
    <contour>
      <point x="113" y="688" type="line"/>
      <point x="255" y="688" type="line" smooth="yes"/>
      <point x="320" y="688"/>
      <point x="441" y="661"/>
      <point x="537" y="589"/>
      <point x="594" y="455"/>
      <point x="594" y="348" type="qcurve" smooth="yes"/>
      <point x="594" y="242"/>
      <point x="536" y="106"/>
      <point x="442" y="30"/>
      <point x="329" y="0"/>
      <point x="274" y="0" type="qcurve" smooth="yes"/>
      <point x="113" y="0" type="line"/>
      <point x="113" y="320" type="line"/>
      <point x="21" y="320" type="line"/>
      <point x="21" y="385" type="line"/>
      <point x="113" y="385" type="line"/>
    </contour>
    <contour>
      <point x="200" y="69" type="line"/>
      <point x="280" y="69" type="line" smooth="yes"/>
      <point x="321" y="69"/>
      <point x="400" y="92"/>
      <point x="464" y="152"/>
      <point x="502" y="261"/>
      <point x="502" y="348" type="qcurve" smooth="yes"/>
      <point x="502" y="437"/>
      <point x="463" y="544"/>
      <point x="396" y="599"/>
      <point x="315" y="618"/>
      <point x="273" y="618" type="qcurve" smooth="yes"/>
      <point x="200" y="618" type="line"/>
      <point x="200" y="385" type="line"/>
      <point x="361" y="385" type="line"/>
      <point x="361" y="320" type="line"/>
      <point x="200" y="320" type="line"/>
    </contour>
    <contour>
      <point x="303" y="340" type="move" name="center"/>
    </contour>
    <contour>
      <point x="304" y="0" type="move" name="bottom"/>
    </contour>
    <contour>
      <point x="283" y="680" type="move" name="top"/>
    </contour>
  </outline>
</glyph>
<glyph name="Oslash" format="1">
  <advance width="692"/>
  <unicode hex="00D8"/>
  <outline>
    <contour>
      <point x="346" y="700" type="qcurve" smooth="yes"/>
      <point x="432" y="700"/>
      <point x="561" y="618"/>
      <point x="634" y="459"/>
      <point x="634" y="343" type="qcurve" smooth="yes"/>
      <point x="634" y="229"/>
      <point x="562" y="71"/>
      <point x="432" y="-12"/>
      <point x="346" y="-12" type="qcurve" smooth="yes"/>
      <point x="261" y="-12"/>
      <point x="131" y="69"/>
      <point x="58" y="227"/>
      <point x="58" y="342" type="qcurve" smooth="yes"/>
      <point x="58" y="456"/>
      <point x="131" y="616"/>
      <point x="261" y="700"/>
    </contour>
    <contour>
      <point x="346" y="628" type="qcurve" smooth="yes"/>
      <point x="287" y="628"/>
      <point x="199" y="569"/>
      <point x="150" y="443"/>
      <point x="150" y="342" type="qcurve" smooth="yes"/>
      <point x="150" y="237"/>
      <point x="200" y="114"/>
      <point x="288" y="60"/>
      <point x="346" y="60" type="qcurve" smooth="yes"/>
      <point x="436" y="60"/>
      <point x="542" y="192"/>
      <point x="542" y="343" type="qcurve" smooth="yes"/>
      <point x="542" y="422"/>
      <point x="515" y="531"/>
      <point x="464" y="598"/>
      <point x="391" y="628"/>
    </contour>
    <contour>
      <point x="412" y="688" type="line"/>
      <point x="451" y="817" type="line"/>
      <point x="523" y="797" type="line"/>
      <point x="479" y="659" type="line"/>
      <point x="455" y="612" type="line"/>
      <point x="289" y="58" type="line"/>
      <point x="278" y="0" type="line"/>
      <point x="242" y="-125" type="line"/>
      <point x="169" y="-106" type="line"/>
      <point x="211" y="30" type="line"/>
      <point x="236" y="79" type="line"/>
      <point x="401" y="630" type="line"/>
    </contour>
    <contour>
      <point x="335" y="687" type="move" name="top"/>
    </contour>
    <contour>
      <point x="344" y="0" type="move" name="bottom"/>
    </contour>
  </outline>
</glyph>
<glyph name="Thorn" format="1">
  <advance width="578"/>
  <unicode hex="00DE"/>
  <outline>
    <contour>
      <point x="189" y="0" type="line"/>
      <point x="103" y="0" type="line"/>
      <point x="103" y="688" type="line"/>
      <point x="189" y="688" type="line"/>
      <point x="189" y="569" type="line"/>
      <point x="279" y="569" type="line" smooth="yes"/>
      <point x="402" y="569"/>
      <point x="543" y="465"/>
      <point x="543" y="354" type="qcurve" smooth="yes"/>
      <point x="543" y="274"/>
      <point x="474" y="174"/>
      <point x="355" y="129"/>
      <point x="279" y="129" type="qcurve" smooth="yes"/>
      <point x="189" y="129" type="line"/>
    </contour>
    <contour>
      <point x="189" y="501" type="line"/>
      <point x="189" y="198" type="line"/>
      <point x="276" y="198" type="line" smooth="yes"/>
      <point x="329" y="198"/>
      <point x="407" y="224"/>
      <point x="451" y="292"/>
      <point x="451" y="353" type="qcurve" smooth="yes"/>
      <point x="451" y="436"/>
      <point x="358" y="501"/>
      <point x="278" y="501" type="qcurve" smooth="yes"/>
    </contour>
    <contour>
      <point x="276" y="680" type="move" name="top"/>
    </contour>
    <contour>
      <point x="276" y="0" type="move" name="bottom"/>
    </contour>
  </outline>
</glyph>
<glyph name="germandbls" format="1">
  <advance width="590"/>
  <unicode hex="00DF"/>
  <outline>
    <contour>
      <point x="295" y="748" type="qcurve" smooth="yes"/>
      <point x="350" y="748"/>
      <point x="429" y="711"/>
      <point x="472" y="647"/>
      <point x="472" y="607" type="qcurve"/>
      <point x="472" y="575"/>
      <point x="449" y="531"/>
      <point x="416" y="500"/>
      <point x="382" y="474"/>
      <point x="359" y="446"/>
      <point x="359" y="426" type="qcurve" smooth="yes"/>
      <point x="359" y="401"/>
      <point x="397" y="364"/>
      <point x="454" y="328"/>
      <point x="510" y="282"/>
      <point x="548" y="213"/>
      <point x="548" y="160" type="qcurve" smooth="yes"/>
      <point x="548" y="107"/>
      <point x="500" y="30"/>
      <point x="421" y="-12"/>
      <point x="374" y="-12" type="qcurve" smooth="yes"/>
      <point x="340" y="-12"/>
      <point x="293" y="1"/>
      <point x="273" y="11" type="qcurve"/>
      <point x="298" y="70" type="line"/>
      <point x="309" y="65"/>
      <point x="341" y="56"/>
      <point x="366" y="56" type="qcurve" smooth="yes"/>
      <point x="408" y="56"/>
      <point x="463" y="109"/>
      <point x="463" y="161" type="qcurve" smooth="yes"/>
      <point x="463" y="202"/>
      <point x="426" y="257"/>
      <point x="372" y="297"/>
      <point x="317" y="335"/>
      <point x="280" y="384"/>
      <point x="280" y="420" type="qcurve" smooth="yes"/>
      <point x="280" y="448"/>
      <point x="302" y="485"/>
      <point x="336" y="513"/>
      <point x="369" y="540"/>
      <point x="391" y="576"/>
      <point x="391" y="603" type="qcurve" smooth="yes"/>
      <point x="391" y="642"/>
      <point x="335" y="682"/>
      <point x="295" y="682" type="qcurve" smooth="yes"/>
      <point x="242" y="682"/>
      <point x="182" y="613"/>
      <point x="182" y="539" type="qcurve" smooth="yes"/>
      <point x="182" y="0" type="line"/>
      <point x="98" y="0" type="line"/>
      <point x="98" y="539" type="line" smooth="yes"/>
      <point x="98" y="639"/>
      <point x="202" y="748"/>
    </contour>
  </outline>
</glyph>
<glyph name="ae" format="1">
  <advance width="853"/>
  <unicode hex="00E6"/>
  <outline>
    <contour>
      <point x="585" y="538" type="qcurve" smooth="yes"/>
      <point x="653" y="538"/>
      <point x="747" y="475"/>
      <point x="795" y="360"/>
      <point x="795" y="280" type="qcurve" smooth="yes"/>
      <point x="795" y="267"/>
      <point x="794" y="242"/>
      <point x="793" y="234" type="qcurve"/>
      <point x="439" y="234" type="line"/>
      <point x="439" y="296" type="line"/>
      <point x="712" y="296" type="line"/>
      <point x="712" y="298"/>
      <point x="712" y="302"/>
      <point x="712" y="304" type="qcurve" smooth="yes"/>
      <point x="712" y="357"/>
      <point x="684" y="432"/>
      <point x="627" y="471"/>
      <point x="583" y="471" type="qcurve" smooth="yes"/>
      <point x="544" y="471"/>
      <point x="485" y="428"/>
      <point x="453" y="337"/>
      <point x="453" y="264" type="qcurve" smooth="yes"/>
      <point x="453" y="190"/>
      <point x="491" y="98"/>
      <point x="558" y="57"/>
      <point x="601" y="57" type="qcurve" smooth="yes"/>
      <point x="641" y="57"/>
      <point x="705" y="80"/>
      <point x="739" y="104" type="qcurve"/>
      <point x="776" y="54" type="line"/>
      <point x="737" y="23"/>
      <point x="649" y="-12"/>
      <point x="595" y="-12" type="qcurve" smooth="yes"/>
      <point x="523" y="-12"/>
      <point x="420" y="52"/>
      <point x="365" y="173"/>
      <point x="364" y="257" type="qcurve"/>
      <point x="365" y="265" type="line" smooth="yes"/>
      <point x="374" y="326"/>
      <point x="407" y="426"/>
      <point x="459" y="499"/>
      <point x="534" y="538"/>
    </contour>
    <contour>
      <point x="279" y="320" type="qcurve" smooth="yes"/>
      <point x="378" y="320" type="line"/>
      <point x="378" y="263" type="line"/>
      <point x="290" y="263" type="line" smooth="yes"/>
      <point x="216" y="263"/>
      <point x="140" y="207"/>
      <point x="140" y="151" type="qcurve" smooth="yes"/>
      <point x="140" y="103"/>
      <point x="189" y="52"/>
      <point x="235" y="52" type="qcurve" smooth="yes"/>
      <point x="282" y="52"/>
      <point x="354" y="104"/>
      <point x="387" y="160" type="qcurve"/>
      <point x="414" y="99" type="line"/>
      <point x="374" y="38"/>
      <point x="280" y="-12"/>
      <point x="217" y="-12" type="qcurve" smooth="yes"/>
      <point x="138" y="-12"/>
      <point x="48" y="77"/>
      <point x="48" y="147" type="qcurve" smooth="yes"/>
      <point x="48" y="231"/>
      <point x="171" y="320"/>
    </contour>
    <contour>
      <point x="266" y="538" type="qcurve" smooth="yes"/>
      <point x="329" y="538"/>
      <point x="404" y="494"/>
      <point x="441" y="416"/>
      <point x="448" y="365" type="qcurve"/>
      <point x="448" y="261" type="line"/>
      <point x="364" y="260" type="line"/>
      <point x="364" y="361" type="line" smooth="yes"/>
      <point x="364" y="420"/>
      <point x="309" y="469"/>
      <point x="252" y="469" type="qcurve" smooth="yes"/>
      <point x="222" y="469"/>
      <point x="150" y="454"/>
      <point x="110" y="440" type="qcurve"/>
      <point x="88" y="502" type="line"/>
      <point x="136" y="520"/>
      <point x="223" y="538"/>
    </contour>
    <contour>
      <point x="421" y="517" type="move" name="top"/>
    </contour>
    <contour>
      <point x="417" y="0" type="move" name="bottom"/>
    </contour>
  </outline>
</glyph>
<glyph name="eth" format="1">
  <advance width="568"/>
  <unicode hex="00F0"/>
  <outline>
    <contour>
      <point x="277" y="-12" type="qcurve" smooth="yes"/>
      <point x="215" y="-12"/>
      <point x="116" y="46"/>
      <point x="59" y="156"/>
      <point x="59" y="234" type="qcurve" smooth="yes"/>
      <point x="59" y="294"/>
      <point x="102" y="403"/>
      <point x="191" y="473"/>
      <point x="258" y="473" type="qcurve" smooth="yes"/>
      <point x="308" y="473"/>
      <point x="381" y="436"/>
      <point x="409" y="403" type="qcurve"/>
      <point x="398" y="468"/>
      <point x="339" y="571"/>
      <point x="287" y="612" type="qcurve"/>
      <point x="213" y="540" type="line"/>
      <point x="155" y="569" type="line"/>
      <point x="231" y="646" type="line"/>
      <point x="203" y="660"/>
      <point x="147" y="678"/>
      <point x="116" y="684" type="qcurve"/>
      <point x="134" y="749" type="line"/>
      <point x="175" y="741"/>
      <point x="247" y="717"/>
      <point x="282" y="699" type="qcurve"/>
      <point x="352" y="773" type="line"/>
      <point x="402" y="730" type="line"/>
      <point x="338" y="664" type="line"/>
      <point x="399" y="618"/>
      <point x="471" y="504"/>
      <point x="503" y="359"/>
      <point x="503" y="268" type="qcurve" smooth="yes"/>
      <point x="503" y="182"/>
      <point x="446" y="56"/>
      <point x="344" y="-12"/>
    </contour>
    <contour>
      <point x="276" y="55" type="qcurve" smooth="yes"/>
      <point x="339" y="55"/>
      <point x="418" y="164"/>
      <point x="418" y="270" type="qcurve" smooth="yes"/>
      <point x="418" y="285"/>
      <point x="417" y="313"/>
      <point x="416" y="326" type="qcurve"/>
      <point x="389" y="366"/>
      <point x="318" y="407"/>
      <point x="271" y="407" type="qcurve" smooth="yes"/>
      <point x="224" y="407"/>
      <point x="168" y="360"/>
      <point x="145" y="284"/>
      <point x="145" y="238" type="qcurve" smooth="yes"/>
      <point x="145" y="179"/>
      <point x="178" y="97"/>
      <point x="237" y="55"/>
    </contour>
    <contour>
      <point x="286" y="727" type="move" name="top"/>
    </contour>
    <contour>
      <point x="268" y="0" type="move" name="bottom"/>
    </contour>
  </outline>
</glyph>
<glyph name="oslash" format="1">
  <advance width="581"/>
  <unicode hex="00F8"/>
  <outline>
    <contour>
      <point x="291" y="538" type="qcurve" smooth="yes"/>
      <point x="402" y="538"/>
      <point x="522" y="390"/>
      <point x="522" y="264" type="qcurve" smooth="yes"/>
      <point x="522" y="182"/>
      <point x="467" y="57"/>
      <point x="364" y="-12"/>
      <point x="290" y="-12" type="qcurve" smooth="yes"/>
      <point x="180" y="-12"/>
      <point x="59" y="137"/>
      <point x="59" y="262" type="qcurve" smooth="yes"/>
      <point x="59" y="345"/>
      <point x="114" y="469"/>
      <point x="218" y="538"/>
    </contour>
    <contour>
      <point x="291" y="470" type="qcurve" smooth="yes"/>
      <point x="224" y="470"/>
      <point x="149" y="368"/>
      <point x="149" y="262" type="qcurve" smooth="yes"/>
      <point x="149" y="184"/>
      <point x="182" y="94"/>
      <point x="245" y="56"/>
      <point x="290" y="56" type="qcurve" smooth="yes"/>
      <point x="358" y="56"/>
      <point x="432" y="158"/>
      <point x="432" y="264" type="qcurve" smooth="yes"/>
      <point x="432" y="343"/>
      <point x="399" y="432"/>
      <point x="337" y="470"/>
    </contour>
    <contour>
      <point x="345" y="532" type="line"/>
      <point x="384" y="654" type="line"/>
      <point x="453" y="634" type="line"/>
      <point x="411" y="508" type="line"/>
      <point x="382" y="451" type="line"/>
      <point x="249" y="49" type="line"/>
      <point x="237" y="-5" type="line"/>
      <point x="197" y="-129" type="line"/>
      <point x="129" y="-109" type="line"/>
      <point x="174" y="26" type="line"/>
      <point x="199" y="71" type="line"/>
      <point x="333" y="475" type="line"/>
    </contour>
    <contour>
      <point x="280" y="517" type="move" name="top"/>
    </contour>
    <contour>
      <point x="280" y="0" type="move" name="bottom"/>
    </contour>
  </outline>
</glyph>
<glyph name="thorn" format="1">
  <advance width="591"/>
  <unicode hex="00FE"/>
  <outline>
    <contour>
      <point x="333" y="538" type="qcurve" smooth="yes"/>
      <point x="437" y="538"/>
      <point x="527" y="389"/>
      <point x="527" y="264" type="qcurve" smooth="yes"/>
      <point x="527" y="184"/>
      <point x="481" y="59"/>
      <point x="390" y="-12"/>
      <point x="322" y="-12" type="qcurve" smooth="yes"/>
      <point x="278" y="-12"/>
      <point x="207" y="20"/>
      <point x="182" y="51" type="qcurve"/>
      <point x="182" y="-197" type="line"/>
      <point x="98" y="-211" type="line"/>
      <point x="98" y="738" type="line"/>
      <point x="182" y="748" type="line"/>
      <point x="182" y="460" type="line"/>
      <point x="211" y="498"/>
      <point x="289" y="538"/>
    </contour>
    <contour>
      <point x="303" y="57" type="qcurve" smooth="yes"/>
      <point x="368" y="57"/>
      <point x="437" y="158"/>
      <point x="437" y="264" type="qcurve" smooth="yes"/>
      <point x="437" y="334"/>
      <point x="409" y="426"/>
      <point x="354" y="471"/>
      <point x="313" y="471" type="qcurve" smooth="yes"/>
      <point x="270" y="471"/>
      <point x="205" y="420"/>
      <point x="182" y="387" type="qcurve"/>
      <point x="182" y="125" type="line"/>
      <point x="203" y="93"/>
      <point x="265" y="57"/>
    </contour>
    <contour>
      <point x="284" y="727" type="move" name="top"/>
    </contour>
    <contour>
      <point x="284" y="-188" type="move" name="bottom"/>
    </contour>
  </outline>
</glyph>
<glyph name="dcroat" format="1">
  <advance width="604"/>
  <unicode hex="0111"/>
  <outline>
    <contour>
      <point x="262" y="-12" type="qcurve" smooth="yes"/>
      <point x="167" y="-12"/>
      <point x="64" y="137"/>
      <point x="64" y="261" type="qcurve" smooth="yes"/>
      <point x="64" y="342"/>
      <point x="113" y="467"/>
      <point x="206" y="538"/>
      <point x="270" y="538" type="qcurve" smooth="yes"/>
      <point x="303" y="538"/>
      <point x="354" y="520"/>
      <point x="396" y="490"/>
      <point x="413" y="471" type="qcurve"/>
      <point x="413" y="608" type="line"/>
      <point x="254" y="608" type="line"/>
      <point x="254" y="673" type="line"/>
      <point x="413" y="673" type="line"/>
      <point x="413" y="748" type="line"/>
      <point x="497" y="738" type="line"/>
      <point x="497" y="673" type="line"/>
      <point x="576" y="673" type="line"/>
      <point x="576" y="608" type="line"/>
      <point x="497" y="608" type="line"/>
      <point x="497" y="0" type="line"/>
      <point x="424" y="0" type="line"/>
      <point x="415" y="75" type="line"/>
      <point x="390" y="35"/>
      <point x="313" y="-12"/>
    </contour>
    <contour>
      <point x="279" y="55" type="qcurve" smooth="yes"/>
      <point x="326" y="55"/>
      <point x="387" y="99"/>
      <point x="413" y="138" type="qcurve"/>
      <point x="413" y="399" type="line"/>
      <point x="397" y="421"/>
      <point x="360" y="453"/>
      <point x="316" y="471"/>
      <point x="288" y="471" type="qcurve" smooth="yes"/>
      <point x="247" y="471"/>
      <point x="187" y="425"/>
      <point x="154" y="332"/>
      <point x="154" y="262" type="qcurve" smooth="yes"/>
      <point x="154" y="192"/>
      <point x="184" y="100"/>
      <point x="240" y="55"/>
    </contour>
    <contour>
      <point x="288" y="0" type="move" name="bottom"/>
    </contour>
    <contour>
      <point x="280" y="727" type="move" name="top"/>
    </contour>
    <contour>
      <point x="497" y="727" type="move" name="topright"/>
    </contour>
    <contour>
      <point x="289" y="259" type="move" name="center"/>
    </contour>
  </outline>
</glyph>
<glyph name="Hbar" format="1">
  <advance width="685"/>
  <unicode hex="0126"/>
  <outline>
    <contour>
      <point x="579" y="572" type="line"/>
      <point x="647" y="572" type="line"/>
      <point x="647" y="509" type="line"/>
      <point x="579" y="509" type="line"/>
      <point x="579" y="0" type="line"/>
      <point x="492" y="0" type="line"/>
      <point x="492" y="326" type="line"/>
      <point x="193" y="326" type="line"/>
      <point x="193" y="0" type="line"/>
      <point x="106" y="0" type="line"/>
      <point x="106" y="509" type="line"/>
      <point x="38" y="509" type="line"/>
      <point x="38" y="572" type="line"/>
      <point x="106" y="572" type="line"/>
      <point x="106" y="688" type="line"/>
      <point x="193" y="688" type="line"/>
      <point x="193" y="572" type="line"/>
      <point x="492" y="572" type="line"/>
      <point x="492" y="688" type="line"/>
      <point x="579" y="688" type="line"/>
    </contour>
    <contour>
      <point x="193" y="398" type="line"/>
      <point x="492" y="398" type="line"/>
      <point x="492" y="509" type="line"/>
      <point x="193" y="509" type="line"/>
    </contour>
    <contour>
      <point x="335" y="0" type="move" name="bottom"/>
    </contour>
    <contour>
      <point x="334" y="680" type="move" name="top"/>
    </contour>
    <contour>
      <point x="88" y="680" type="move" name="topleft"/>
    </contour>
    <contour>
      <point x="542" y="0" type="move" name="bottomright"/>
    </contour>
    <contour>
      <point x="334" y="340" type="move" name="center"/>
    </contour>
  </outline>
</glyph>
<glyph name="hbar" format="1">
  <advance width="591"/>
  <unicode hex="0127"/>
  <outline>
    <contour>
      <point x="187" y="0" type="line"/>
      <point x="103" y="0" type="line"/>
      <point x="103" y="608" type="line"/>
      <point x="28" y="608" type="line"/>
      <point x="28" y="673" type="line"/>
      <point x="103" y="673" type="line"/>
      <point x="103" y="737" type="line"/>
      <point x="187" y="747" type="line"/>
      <point x="187" y="673" type="line"/>
      <point x="342" y="673" type="line"/>
      <point x="342" y="608" type="line"/>
      <point x="187" y="608" type="line"/>
      <point x="187" y="450" type="line"/>
      <point x="217" y="490"/>
      <point x="297" y="538"/>
      <point x="347" y="538" type="qcurve" smooth="yes"/>
      <point x="419" y="538"/>
      <point x="499" y="451"/>
      <point x="499" y="377" type="qcurve" smooth="yes"/>
      <point x="499" y="0" type="line"/>
      <point x="415" y="0" type="line"/>
      <point x="415" y="365" type="line" smooth="yes"/>
      <point x="415" y="426"/>
      <point x="367" y="472"/>
      <point x="327" y="472" type="qcurve" smooth="yes"/>
      <point x="282" y="472"/>
      <point x="215" y="419"/>
      <point x="187" y="376" type="qcurve"/>
    </contour>
    <contour>
      <point x="298" y="260" type="move" name="center"/>
    </contour>
    <contour>
      <point x="298" y="0" type="move" name="bottom"/>
    </contour>
    <contour>
      <point x="298" y="727" type="move" name="top"/>
    </contour>
  </outline>
</glyph>
<glyph name="lslash" format="1">
  <advance width="309"/>
  <unicode hex="0142"/>
  <outline>
    <contour>
      <point x="205" y="-12" type="qcurve" smooth="yes"/>
      <point x="156" y="-12"/>
      <point x="99" y="45"/>
      <point x="99" y="100" type="qcurve" smooth="yes"/>
      <point x="99" y="305" type="line"/>
      <point x="46" y="273" type="line"/>
      <point x="14" y="327" type="line"/>
      <point x="99" y="380" type="line"/>
      <point x="99" y="738" type="line"/>
      <point x="183" y="748" type="line"/>
      <point x="183" y="431" type="line"/>
      <point x="275" y="487" type="line"/>
      <point x="306" y="432" type="line"/>
      <point x="183" y="356" type="line"/>
      <point x="183" y="102" type="line" smooth="yes"/>
      <point x="183" y="80"/>
      <point x="199" y="58"/>
      <point x="218" y="58" type="qcurve" smooth="yes"/>
      <point x="228" y="58"/>
      <point x="245" y="61"/>
      <point x="252" y="64" type="qcurve"/>
      <point x="274" y="5" type="line"/>
      <point x="260" y="-3"/>
      <point x="224" y="-12"/>
    </contour>
    <contour>
      <point x="180" y="0" type="move" name="bottom"/>
    </contour>
    <contour>
      <point x="127" y="730" type="move" name="top"/>
    </contour>
    <contour>
      <point x="188" y="727" type="move" name="topright"/>
    </contour>
    <contour>
      <point x="262" y="375" type="move" name="center"/>
    </contour>
  </outline>
</glyph>
<glyph name="OE" format="1">
  <advance width="900"/>
  <unicode hex="0152"/>
  <outline>
    <contour>
      <point x="333" y="-12" type="qcurve" smooth="yes"/>
      <point x="254" y="-12"/>
      <point x="130" y="69"/>
      <point x="58" y="227"/>
      <point x="58" y="342" type="qcurve" smooth="yes"/>
      <point x="58" y="456"/>
      <point x="130" y="616"/>
      <point x="255" y="700"/>
      <point x="333" y="700" type="qcurve" smooth="yes"/>
      <point x="373" y="700"/>
      <point x="409" y="688" type="qcurve"/>
      <point x="831" y="688" type="line"/>
      <point x="821" y="618" type="line"/>
      <point x="518" y="618" type="line"/>
      <point x="559" y="580"/>
      <point x="608" y="462"/>
      <point x="612" y="386" type="qcurve"/>
      <point x="785" y="386" type="line"/>
      <point x="785" y="316" type="line"/>
      <point x="613" y="316" type="line"/>
      <point x="609" y="237"/>
      <point x="558" y="111"/>
      <point x="512" y="70" type="qcurve"/>
      <point x="838" y="70" type="line"/>
      <point x="838" y="0" type="line"/>
      <point x="405" y="0" type="line"/>
      <point x="389" y="-6"/>
      <point x="352" y="-12"/>
    </contour>
    <contour>
      <point x="336" y="60" type="qcurve" smooth="yes"/>
      <point x="391" y="60"/>
      <point x="475" y="118"/>
      <point x="522" y="243"/>
      <point x="522" y="345" type="qcurve" smooth="yes"/>
      <point x="522" y="445"/>
      <point x="475" y="569"/>
      <point x="392" y="628"/>
      <point x="336" y="628" type="qcurve" smooth="yes"/>
      <point x="282" y="628"/>
      <point x="198" y="569"/>
      <point x="150" y="443"/>
      <point x="150" y="342" type="qcurve" smooth="yes"/>
      <point x="150" y="242"/>
      <point x="199" y="118"/>
      <point x="283" y="60"/>
    </contour>
    <contour>
      <point x="419" y="680" type="move" name="top"/>
    </contour>
    <contour>
      <point x="419" y="0" type="move" name="bottom"/>
    </contour>
  </outline>
</glyph>
<glyph name="oe" format="1">
  <advance width="921"/>
  <unicode hex="0153"/>
  <outline>
    <contour>
      <point x="291" y="538" type="qcurve" smooth="yes"/>
      <point x="364" y="538"/>
      <point x="460" y="470"/>
      <point x="514" y="347"/>
      <point x="522" y="264" type="qcurve"/>
      <point x="513" y="185"/>
      <point x="458" y="60"/>
      <point x="362" y="-12"/>
      <point x="290" y="-12" type="qcurve" smooth="yes"/>
      <point x="180" y="-12"/>
      <point x="59" y="137"/>
      <point x="59" y="262" type="qcurve" smooth="yes"/>
      <point x="59" y="345"/>
      <point x="114" y="469"/>
      <point x="218" y="538"/>
    </contour>
    <contour>
      <point x="291" y="470" type="qcurve" smooth="yes"/>
      <point x="224" y="470"/>
      <point x="149" y="368"/>
      <point x="149" y="262" type="qcurve" smooth="yes"/>
      <point x="149" y="158"/>
      <point x="222" y="56"/>
      <point x="290" y="56" type="qcurve" smooth="yes"/>
      <point x="358" y="56"/>
      <point x="432" y="158"/>
      <point x="432" y="264" type="qcurve" smooth="yes"/>
      <point x="432" y="368"/>
      <point x="359" y="470"/>
    </contour>
    <contour>
      <point x="649" y="538" type="qcurve" smooth="yes"/>
      <point x="719" y="538"/>
      <point x="814" y="475"/>
      <point x="863" y="360"/>
      <point x="863" y="280" type="qcurve" smooth="yes"/>
      <point x="863" y="267"/>
      <point x="862" y="242"/>
      <point x="861" y="234" type="qcurve"/>
      <point x="507" y="234" type="line"/>
      <point x="507" y="296" type="line"/>
      <point x="780" y="296" type="line"/>
      <point x="780" y="298"/>
      <point x="780" y="302"/>
      <point x="780" y="304" type="qcurve" smooth="yes"/>
      <point x="780" y="357"/>
      <point x="751" y="432"/>
      <point x="694" y="471"/>
      <point x="651" y="471" type="qcurve" smooth="yes"/>
      <point x="612" y="471"/>
      <point x="553" y="428"/>
      <point x="521" y="337"/>
      <point x="521" y="264" type="qcurve" smooth="yes"/>
      <point x="521" y="190"/>
      <point x="559" y="98"/>
      <point x="626" y="57"/>
      <point x="669" y="57" type="qcurve" smooth="yes"/>
      <point x="709" y="57"/>
      <point x="772" y="80"/>
      <point x="806" y="104" type="qcurve"/>
      <point x="843" y="54" type="line"/>
      <point x="805" y="23"/>
      <point x="717" y="-12"/>
      <point x="662" y="-12" type="qcurve" smooth="yes"/>
      <point x="591" y="-12"/>
      <point x="496" y="55"/>
      <point x="442" y="177"/>
      <point x="432" y="258" type="qcurve"/>
      <point x="441" y="340"/>
      <point x="493" y="466"/>
      <point x="583" y="538"/>
    </contour>
    <contour>
      <point x="477" y="517" type="move" name="top"/>
    </contour>
    <contour>
      <point x="478" y="0" type="move" name="bottom"/>
    </contour>
  </outline>
</glyph>
<glyph name="Tbar" format="1">
  <advance width="515"/>
  <unicode hex="0166"/>
  <outline>
    <contour>
      <point x="299" y="-2" type="line"/>
      <point x="213" y="-2" type="line"/>
      <point x="213" y="322" type="line"/>
      <point x="89" y="322" type="line"/>
      <point x="89" y="386" type="line"/>
      <point x="213" y="386" type="line"/>
      <point x="213" y="612" type="line"/>
      <point x="15" y="612" type="line"/>
      <point x="15" y="686" type="line"/>
      <point x="502" y="686" type="line"/>
      <point x="492" y="612" type="line"/>
      <point x="299" y="612" type="line"/>
      <point x="299" y="386" type="line"/>
      <point x="424" y="386" type="line"/>
      <point x="424" y="322" type="line"/>
      <point x="299" y="322" type="line"/>
    </contour>
    <contour>
      <point x="236" y="0" type="move" name="bottom"/>
    </contour>
    <contour>
      <point x="236" y="680" type="move" name="top"/>
    </contour>
    <contour>
      <point x="247" y="0" type="move" name="bottomright"/>
    </contour>
    <contour>
      <point x="236" y="340" type="move" name="center"/>
    </contour>
  </outline>
</glyph>
<glyph name="tbar" format="1">
  <advance width="356"/>
  <unicode hex="0167"/>
  <outline>
    <contour>
      <point x="325" y="81" type="qcurve"/>
      <point x="357" y="23" type="line"/>
      <point x="332" y="6"/>
      <point x="274" y="-12"/>
      <point x="241" y="-12" type="qcurve" smooth="yes"/>
      <point x="176" y="-12"/>
      <point x="102" y="63"/>
      <point x="102" y="135" type="qcurve" smooth="yes"/>
      <point x="102" y="290" type="line"/>
      <point x="21" y="290" type="line"/>
      <point x="21" y="355" type="line"/>
      <point x="102" y="355" type="line"/>
      <point x="102" y="461" type="line"/>
      <point x="11" y="461" type="line"/>
      <point x="11" y="526" type="line"/>
      <point x="102" y="526" type="line"/>
      <point x="102" y="647" type="line"/>
      <point x="186" y="656" type="line"/>
      <point x="186" y="526" type="line"/>
      <point x="313" y="526" type="line"/>
      <point x="304" y="461" type="line"/>
      <point x="186" y="461" type="line"/>
      <point x="186" y="355" type="line"/>
      <point x="299" y="355" type="line"/>
      <point x="299" y="290" type="line"/>
      <point x="186" y="290" type="line"/>
      <point x="186" y="139" type="line" smooth="yes"/>
      <point x="186" y="98"/>
      <point x="217" y="58"/>
      <point x="252" y="58" type="qcurve" smooth="yes"/>
      <point x="271" y="58"/>
      <point x="306" y="69"/>
    </contour>
    <contour>
      <point x="225" y="0" type="move" name="bottom"/>
    </contour>
    <contour>
      <point x="118" y="651" type="move" name="top"/>
    </contour>
    <contour>
      <point x="157" y="730" type="move" name="topright"/>
    </contour>
    <contour>
      <point x="145" y="259" type="move" name="center"/>
    </contour>
  </outline>
</glyph>
<glyph name="uni0180" format="1">
  <advance width="599"/>
  <unicode hex="0180"/>
  <outline>
    <contour>
      <point x="331" y="-12" type="qcurve" smooth="yes"/>
      <point x="286" y="-12"/>
      <point x="215" y="27"/>
      <point x="188" y="60" type="qcurve"/>
      <point x="180" y="0" type="line"/>
      <point x="106" y="0" type="line"/>
      <point x="106" y="608" type="line"/>
      <point x="28" y="608" type="line"/>
      <point x="28" y="673" type="line"/>
      <point x="106" y="673" type="line"/>
      <point x="106" y="738" type="line"/>
      <point x="190" y="748" type="line"/>
      <point x="190" y="673" type="line"/>
      <point x="342" y="673" type="line"/>
      <point x="342" y="608" type="line"/>
      <point x="190" y="608" type="line"/>
      <point x="190" y="459" type="line"/>
      <point x="217" y="496"/>
      <point x="292" y="538"/>
      <point x="341" y="538" type="qcurve" smooth="yes"/>
      <point x="430" y="538"/>
      <point x="536" y="395"/>
      <point x="536" y="264" type="qcurve" smooth="yes"/>
      <point x="536" y="181"/>
      <point x="486" y="57"/>
      <point x="395" y="-12"/>
    </contour>
    <contour>
      <point x="311" y="55" type="qcurve" smooth="yes"/>
      <point x="372" y="55"/>
      <point x="445" y="155"/>
      <point x="445" y="264" type="qcurve" smooth="yes"/>
      <point x="445" y="340"/>
      <point x="414" y="430"/>
      <point x="357" y="471"/>
      <point x="318" y="471" type="qcurve" smooth="yes"/>
      <point x="273" y="471"/>
      <point x="212" y="420"/>
      <point x="190" y="387" type="qcurve"/>
      <point x="190" y="129" type="line"/>
      <point x="211" y="97"/>
      <point x="274" y="55"/>
    </contour>
    <contour>
      <point x="294" y="727" type="move" name="top"/>
    </contour>
    <contour>
      <point x="289" y="0" type="move" name="bottom"/>
    </contour>
  </outline>
</glyph>
<glyph name="uni0183" format="1">
  <advance width="591"/>
  <unicode hex="0183"/>
  <outline>
    <contour>
      <point x="322" y="-12" type="qcurve" smooth="yes"/>
      <point x="277" y="-12"/>
      <point x="206" y="27"/>
      <point x="180" y="60" type="qcurve"/>
      <point x="171" y="0" type="line"/>
      <point x="98" y="0" type="line"/>
      <point x="98" y="738" type="line"/>
      <point x="408" y="738" type="line"/>
      <point x="397" y="674" type="line"/>
      <point x="182" y="674" type="line"/>
      <point x="182" y="459" type="line"/>
      <point x="209" y="496"/>
      <point x="284" y="538"/>
      <point x="333" y="538" type="qcurve" smooth="yes"/>
      <point x="422" y="538"/>
      <point x="527" y="395"/>
      <point x="527" y="264" type="qcurve" smooth="yes"/>
      <point x="527" y="181"/>
      <point x="478" y="57"/>
      <point x="386" y="-12"/>
    </contour>
    <contour>
      <point x="303" y="55" type="qcurve" smooth="yes"/>
      <point x="363" y="55"/>
      <point x="437" y="155"/>
      <point x="437" y="264" type="qcurve" smooth="yes"/>
      <point x="437" y="340"/>
      <point x="406" y="430"/>
      <point x="349" y="471"/>
      <point x="310" y="471" type="qcurve" smooth="yes"/>
      <point x="265" y="471"/>
      <point x="204" y="420"/>
      <point x="182" y="387" type="qcurve"/>
      <point x="182" y="129" type="line"/>
      <point x="203" y="97"/>
      <point x="266" y="55"/>
    </contour>
    <contour>
      <point x="284" y="727" type="move" name="top"/>
    </contour>
    <contour>
      <point x="284" y="0" type="move" name="bottom"/>
    </contour>
  </outline>
</glyph>
<glyph name="uni0184" format="1">
  <advance width="570"/>
  <unicode hex="0184"/>
  <outline>
    <contour>
      <point x="280" y="0" type="qcurve" smooth="yes"/>
      <point x="102" y="0" type="line"/>
      <point x="102" y="530" type="line"/>
      <point x="37" y="570" type="line"/>
      <point x="57" y="593"/>
      <point x="97" y="654"/>
      <point x="111" y="688" type="qcurve"/>
      <point x="188" y="688" type="line"/>
      <point x="188" y="433" type="line"/>
      <point x="284" y="433" type="line" smooth="yes"/>
      <point x="403" y="433"/>
      <point x="543" y="329"/>
      <point x="543" y="222" type="qcurve" smooth="yes"/>
      <point x="543" y="142"/>
      <point x="476" y="44"/>
      <point x="357" y="0"/>
    </contour>
    <contour>
      <point x="188" y="365" type="line"/>
      <point x="188" y="70" type="line"/>
      <point x="288" y="70" type="line" smooth="yes"/>
      <point x="335" y="70"/>
      <point x="408" y="95"/>
      <point x="450" y="160"/>
      <point x="450" y="220" type="qcurve" smooth="yes"/>
      <point x="450" y="300"/>
      <point x="363" y="365"/>
      <point x="285" y="365" type="qcurve" smooth="yes"/>
    </contour>
    <contour>
      <point x="275" y="680" type="move" name="top"/>
    </contour>
    <contour>
      <point x="275" y="0" type="move" name="bottom"/>
    </contour>
  </outline>
</glyph>
<glyph name="uni0185" format="1">
  <advance width="516"/>
  <unicode hex="0185"/>
  <outline>
    <contour>
      <point x="276" y="0" type="qcurve" smooth="yes"/>
      <point x="101" y="0" type="line"/>
      <point x="101" y="456" type="line"/>
      <point x="110" y="526" type="line"/>
      <point x="185" y="526" type="line"/>
      <point x="185" y="66" type="line"/>
      <point x="269" y="66" type="line" smooth="yes"/>
      <point x="324" y="66"/>
      <point x="391" y="115"/>
      <point x="391" y="179" type="qcurve" smooth="yes"/>
      <point x="391" y="233"/>
      <point x="335" y="290"/>
      <point x="260" y="290" type="qcurve" smooth="yes"/>
      <point x="170" y="290" type="line"/>
      <point x="170" y="355" type="line"/>
      <point x="260" y="355" type="line" smooth="yes"/>
      <point x="382" y="355"/>
      <point x="481" y="259"/>
      <point x="481" y="179" type="qcurve" smooth="yes"/>
      <point x="481" y="117"/>
      <point x="423" y="37"/>
      <point x="330" y="0"/>
    </contour>
    <contour>
      <point x="110" y="526" type="qcurve"/>
      <point x="101" y="378" type="line"/>
      <point x="36" y="418" type="line"/>
      <point x="58" y="441"/>
      <point x="95" y="494"/>
    </contour>
    <contour>
      <point x="246" y="517" type="move" name="top"/>
    </contour>
    <contour>
      <point x="246" y="0" type="move" name="bottom"/>
    </contour>
  </outline>
</glyph>
<glyph name="uni0186" format="1">
  <advance width="558"/>
  <unicode hex="0186"/>
  <outline>
    <contour>
      <point x="236" y="700" type="qcurve" smooth="yes"/>
      <point x="317" y="700"/>
      <point x="435" y="620"/>
      <point x="500" y="462"/>
      <point x="500" y="345" type="qcurve" smooth="yes"/>
      <point x="500" y="229"/>
      <point x="426" y="70"/>
      <point x="298" y="-12"/>
      <point x="215" y="-12" type="qcurve" smooth="yes"/>
      <point x="147" y="-12"/>
      <point x="53" y="35"/>
      <point x="21" y="64" type="qcurve"/>
      <point x="64" y="118" type="line"/>
      <point x="95" y="96"/>
      <point x="164" y="62"/>
      <point x="213" y="62" type="qcurve" smooth="yes"/>
      <point x="268" y="62"/>
      <point x="356" y="119"/>
      <point x="408" y="244"/>
      <point x="408" y="344" type="qcurve" smooth="yes"/>
      <point x="408" y="450"/>
      <point x="360" y="574"/>
      <point x="280" y="628"/>
      <point x="230" y="628" type="qcurve" smooth="yes"/>
      <point x="186" y="628"/>
      <point x="109" y="602"/>
      <point x="74" y="578" type="qcurve"/>
      <point x="29" y="633" type="line"/>
      <point x="72" y="665"/>
      <point x="171" y="700"/>
    </contour>
    <contour>
      <point x="206" y="341" type="move" name="center"/>
    </contour>
    <contour>
      <point x="205" y="0" type="move" name="bottom"/>
    </contour>
    <contour>
      <point x="205" y="680" type="move" name="top"/>
    </contour>
  </outline>
</glyph>
<glyph name="uni0187" format="1">
  <advance width="558"/>
  <unicode hex="0187"/>
  <outline>
    <contour>
      <point x="590" y="830" type="qcurve" smooth="yes"/>
      <point x="629" y="830"/>
      <point x="684" y="807"/>
      <point x="702" y="793" type="qcurve"/>
      <point x="669" y="739" type="line"/>
      <point x="652" y="750"/>
      <point x="619" y="762"/>
      <point x="594" y="762" type="qcurve" smooth="yes"/>
      <point x="565" y="762"/>
      <point x="529" y="727"/>
      <point x="529" y="686" type="qcurve" smooth="yes"/>
      <point x="529" y="633" type="line"/>
      <point x="489" y="585" type="line"/>
      <point x="454" y="606"/>
      <point x="385" y="628"/>
      <point x="347" y="628" type="qcurve" smooth="yes"/>
      <point x="293" y="628"/>
      <point x="204" y="574"/>
      <point x="150" y="450"/>
      <point x="150" y="344" type="qcurve" smooth="yes"/>
      <point x="150" y="244"/>
      <point x="202" y="119"/>
      <point x="291" y="62"/>
      <point x="346" y="62" type="qcurve" smooth="yes"/>
      <point x="396" y="62"/>
      <point x="464" y="98"/>
      <point x="493" y="120" type="qcurve"/>
      <point x="537" y="64" type="line"/>
      <point x="509" y="35"/>
      <point x="411" y="-12"/>
      <point x="343" y="-12" type="qcurve" smooth="yes"/>
      <point x="261" y="-12"/>
      <point x="132" y="70"/>
      <point x="58" y="229"/>
      <point x="58" y="344" type="qcurve" smooth="yes"/>
      <point x="58" y="432"/>
      <point x="102" y="565"/>
      <point x="181" y="655"/>
      <point x="284" y="700"/>
      <point x="342" y="700" type="qcurve" smooth="yes"/>
      <point x="370" y="700"/>
      <point x="426" y="683"/>
      <point x="445" y="673" type="qcurve"/>
      <point x="445" y="679" type="line" smooth="yes"/>
      <point x="445" y="753"/>
      <point x="523" y="830"/>
    </contour>
    <contour>
      <point x="265" y="680" type="move" name="top"/>
    </contour>
    <contour>
      <point x="265" y="0" type="move" name="bottom"/>
    </contour>
  </outline>
</glyph>
<glyph name="uni0188" format="1">
  <advance width="476"/>
  <unicode hex="0188"/>
  <outline>
    <contour>
      <point x="287" y="-12" type="qcurve" smooth="yes"/>
      <point x="217" y="-12"/>
      <point x="115" y="53"/>
      <point x="59" y="174"/>
      <point x="59" y="259" type="qcurve" smooth="yes"/>
      <point x="59" y="343"/>
      <point x="114" y="469"/>
      <point x="217" y="538"/>
      <point x="287" y="538" type="qcurve" smooth="yes"/>
      <point x="309" y="538"/>
      <point x="345" y="531"/>
      <point x="361" y="524" type="qcurve"/>
      <point x="361" y="597" type="line" smooth="yes"/>
      <point x="361" y="673"/>
      <point x="439" y="748"/>
      <point x="505" y="748" type="qcurve" smooth="yes"/>
      <point x="544" y="748"/>
      <point x="599" y="725"/>
      <point x="617" y="711" type="qcurve"/>
      <point x="584" y="657" type="line"/>
      <point x="567" y="668"/>
      <point x="535" y="681"/>
      <point x="510" y="681" type="qcurve" smooth="yes"/>
      <point x="481" y="681"/>
      <point x="445" y="645"/>
      <point x="445" y="604" type="qcurve" smooth="yes"/>
      <point x="445" y="482" type="line"/>
      <point x="409" y="436" type="line"/>
      <point x="385" y="450"/>
      <point x="331" y="468"/>
      <point x="290" y="468" type="qcurve" smooth="yes"/>
      <point x="226" y="468"/>
      <point x="149" y="366"/>
      <point x="149" y="260" type="qcurve" smooth="yes"/>
      <point x="149" y="190"/>
      <point x="184" y="102"/>
      <point x="247" y="60"/>
      <point x="290" y="60" type="qcurve" smooth="yes"/>
      <point x="324" y="60"/>
      <point x="377" y="81"/>
      <point x="405" y="103" type="qcurve"/>
      <point x="445" y="46" type="line"/>
      <point x="411" y="18"/>
      <point x="332" y="-12"/>
    </contour>
    <contour>
      <point x="235" y="727" type="move" name="top"/>
    </contour>
    <contour>
      <point x="235" y="0" type="move" name="bottom"/>
    </contour>
  </outline>
</glyph>
<glyph name="uni018C" format="1">
  <advance width="595"/>
  <unicode hex="018C"/>
  <outline>
    <contour>
      <point x="262" y="-12" type="qcurve" smooth="yes"/>
      <point x="199" y="-12"/>
      <point x="110" y="56"/>
      <point x="64" y="179"/>
      <point x="64" y="261" type="qcurve" smooth="yes"/>
      <point x="64" y="342"/>
      <point x="113" y="467"/>
      <point x="206" y="538"/>
      <point x="270" y="538" type="qcurve" smooth="yes"/>
      <point x="303" y="538"/>
      <point x="354" y="520"/>
      <point x="396" y="490"/>
      <point x="413" y="471" type="qcurve"/>
      <point x="413" y="674" type="line"/>
      <point x="192" y="674" type="line"/>
      <point x="192" y="738" type="line"/>
      <point x="497" y="738" type="line"/>
      <point x="497" y="0" type="line"/>
      <point x="424" y="0" type="line"/>
      <point x="415" y="75" type="line"/>
      <point x="390" y="35"/>
      <point x="313" y="-12"/>
    </contour>
    <contour>
      <point x="279" y="55" type="qcurve" smooth="yes"/>
      <point x="326" y="55"/>
      <point x="387" y="99"/>
      <point x="413" y="138" type="qcurve"/>
      <point x="413" y="399" type="line"/>
      <point x="397" y="421"/>
      <point x="360" y="453"/>
      <point x="316" y="471"/>
      <point x="288" y="471" type="qcurve" smooth="yes"/>
      <point x="247" y="471"/>
      <point x="187" y="425"/>
      <point x="154" y="332"/>
      <point x="154" y="262" type="qcurve" smooth="yes"/>
      <point x="154" y="192"/>
      <point x="184" y="100"/>
      <point x="240" y="55"/>
    </contour>
    <contour>
      <point x="286" y="727" type="move" name="top"/>
    </contour>
    <contour>
      <point x="286" y="0" type="move" name="bottom"/>
    </contour>
  </outline>
</glyph>
<glyph name="uni018D" format="1">
  <advance width="576"/>
  <unicode hex="018D"/>
  <outline>
    <contour>
      <point x="114" y="-78" type="qcurve" smooth="yes"/>
      <point x="114" y="-48"/>
      <point x="139" y="5"/>
      <point x="200" y="52"/>
      <point x="253" y="72" type="qcurve" smooth="yes"/>
      <point x="303" y="91"/>
      <point x="370" y="131"/>
      <point x="410" y="179"/>
      <point x="427" y="242"/>
      <point x="427" y="284" type="qcurve" smooth="yes"/>
      <point x="427" y="376"/>
      <point x="356" y="470"/>
      <point x="288" y="470" type="qcurve" smooth="yes"/>
      <point x="218" y="470"/>
      <point x="149" y="375"/>
      <point x="149" y="287" type="qcurve" smooth="yes"/>
      <point x="149" y="230"/>
      <point x="181" y="148"/>
      <point x="239" y="90"/>
      <point x="279" y="69" type="qcurve"/>
      <point x="231" y="45" type="line"/>
      <point x="156" y="77"/>
      <point x="59" y="193"/>
      <point x="59" y="287" type="qcurve" smooth="yes"/>
      <point x="59" y="406"/>
      <point x="185" y="538"/>
      <point x="288" y="538" type="qcurve" smooth="yes"/>
      <point x="361" y="538"/>
      <point x="464" y="469"/>
      <point x="518" y="354"/>
      <point x="518" y="284" type="qcurve" smooth="yes"/>
      <point x="518" y="215"/>
      <point x="474" y="120"/>
      <point x="388" y="54"/>
      <point x="324" y="27" type="qcurve" smooth="yes"/>
      <point x="274" y="6"/>
      <point x="220" y="-26"/>
      <point x="200" y="-57"/>
      <point x="200" y="-78" type="qcurve" smooth="yes"/>
      <point x="200" y="-104"/>
      <point x="245" y="-145"/>
      <point x="296" y="-145" type="qcurve" smooth="yes"/>
      <point x="331" y="-145"/>
      <point x="388" y="-127"/>
      <point x="419" y="-106" type="qcurve"/>
      <point x="462" y="-158" type="line"/>
      <point x="426" y="-183"/>
      <point x="345" y="-211"/>
      <point x="289" y="-211" type="qcurve" smooth="yes"/>
      <point x="232" y="-211"/>
      <point x="154" y="-173"/>
      <point x="114" y="-113"/>
    </contour>
    <contour>
      <point x="277" y="517" type="move" name="top"/>
    </contour>
    <contour>
      <point x="277" y="-188" type="move" name="bottom"/>
    </contour>
  </outline>
</glyph>
<glyph name="uni018E" format="1">
  <advance width="530"/>
  <unicode hex="018E"/>
  <outline>
    <contour>
      <point x="58" y="618" type="line"/>
      <point x="58" y="688" type="line"/>
      <point x="427" y="688" type="line"/>
      <point x="427" y="0" type="line"/>
      <point x="52" y="0" type="line"/>
      <point x="52" y="70" type="line"/>
      <point x="340" y="70" type="line"/>
      <point x="340" y="316" type="line"/>
      <point x="106" y="316" type="line"/>
      <point x="106" y="386" type="line"/>
      <point x="340" y="386" type="line"/>
      <point x="340" y="618" type="line"/>
    </contour>
  </outline>
</glyph>
<glyph name="uni0190" format="1">
  <advance width="521"/>
  <unicode hex="0190"/>
  <outline>
    <contour>
      <point x="278" y="700" type="qcurve" smooth="yes"/>
      <point x="340" y="700"/>
      <point x="446" y="657"/>
      <point x="491" y="615" type="qcurve"/>
      <point x="443" y="563" type="line"/>
      <point x="408" y="595"/>
      <point x="328" y="628"/>
      <point x="284" y="628" type="qcurve" smooth="yes"/>
      <point x="220" y="628"/>
      <point x="160" y="565"/>
      <point x="160" y="518" type="qcurve" smooth="yes"/>
      <point x="160" y="481"/>
      <point x="194" y="428"/>
      <point x="255" y="400"/>
      <point x="296" y="400" type="qcurve" smooth="yes"/>
      <point x="361" y="400" type="line"/>
      <point x="349" y="329" type="line"/>
      <point x="296" y="329" type="line" smooth="yes"/>
      <point x="219" y="329"/>
      <point x="140" y="260"/>
      <point x="140" y="198" type="qcurve" smooth="yes"/>
      <point x="140" y="134"/>
      <point x="221" y="62"/>
      <point x="294" y="62" type="qcurve" smooth="yes"/>
      <point x="346" y="62"/>
      <point x="426" y="99"/>
      <point x="457" y="131" type="qcurve"/>
      <point x="508" y="81" type="line"/>
      <point x="465" y="34"/>
      <point x="353" y="-12"/>
      <point x="290" y="-12" type="qcurve" smooth="yes"/>
      <point x="220" y="-12"/>
      <point x="110" y="40"/>
      <point x="47" y="135"/>
      <point x="47" y="198" type="qcurve" smooth="yes"/>
      <point x="47" y="252"/>
      <point x="91" y="324"/>
      <point x="162" y="365"/>
      <point x="204" y="369" type="qcurve"/>
      <point x="165" y="378"/>
      <point x="104" y="418"/>
      <point x="70" y="482"/>
      <point x="70" y="525" type="qcurve" smooth="yes"/>
      <point x="70" y="574"/>
      <point x="118" y="653"/>
      <point x="211" y="700"/>
    </contour>
    <contour>
      <point x="254" y="680" type="move" name="top"/>
    </contour>
    <contour>
      <point x="254" y="0" type="move" name="bottom"/>
    </contour>
  </outline>
</glyph>
<glyph name="florin" format="1">
  <advance width="337"/>
  <unicode hex="0192"/>
  <outline>
    <contour>
      <point x="276" y="680" type="qcurve" smooth="yes"/>
      <point x="232" y="680"/>
      <point x="195" y="642"/>
      <point x="195" y="602" type="qcurve" smooth="yes"/>
      <point x="195" y="526" type="line"/>
      <point x="325" y="526" type="line"/>
      <point x="316" y="461" type="line"/>
      <point x="195" y="461" type="line"/>
      <point x="195" y="29" type="line" smooth="yes"/>
      <point x="195" y="-45"/>
      <point x="160" y="-131"/>
      <point x="88" y="-186"/>
      <point x="34" y="-210" type="qcurve"/>
      <point x="10" y="-149" type="line"/>
      <point x="45" y="-133"/>
      <point x="89" y="-96"/>
      <point x="111" y="-33"/>
      <point x="111" y="24" type="qcurve" smooth="yes"/>
      <point x="111" y="461" type="line"/>
      <point x="26" y="461" type="line"/>
      <point x="26" y="526" type="line"/>
      <point x="111" y="526" type="line"/>
      <point x="111" y="601" type="line" smooth="yes"/>
      <point x="111" y="645"/>
      <point x="148" y="711"/>
      <point x="220" y="748"/>
      <point x="271" y="748" type="qcurve" smooth="yes"/>
      <point x="308" y="748"/>
      <point x="365" y="735"/>
      <point x="396" y="721" type="qcurve"/>
      <point x="369" y="660" type="line"/>
      <point x="344" y="671"/>
      <point x="297" y="680"/>
    </contour>
  </outline>
</glyph>
<glyph name="uni0193" format="1">
  <advance width="585"/>
  <unicode hex="0193"/>
  <outline>
    <contour>
      <point x="339" y="-12" type="qcurve" smooth="yes"/>
      <point x="254" y="-12"/>
      <point x="128" y="67"/>
      <point x="58" y="226"/>
      <point x="58" y="345" type="qcurve" smooth="yes"/>
      <point x="58" y="432"/>
      <point x="106" y="565"/>
      <point x="188" y="655"/>
      <point x="289" y="700"/>
      <point x="343" y="700" type="qcurve" smooth="yes"/>
      <point x="384" y="700"/>
      <point x="445" y="686"/>
      <point x="472" y="671" type="qcurve"/>
      <point x="472" y="679" type="line" smooth="yes"/>
      <point x="472" y="753"/>
      <point x="548" y="830"/>
      <point x="617" y="830" type="qcurve" smooth="yes"/>
      <point x="656" y="830"/>
      <point x="711" y="807"/>
      <point x="729" y="793" type="qcurve"/>
      <point x="696" y="739" type="line"/>
      <point x="679" y="750"/>
      <point x="647" y="762"/>
      <point x="621" y="762" type="qcurve" smooth="yes"/>
      <point x="592" y="762"/>
      <point x="556" y="727"/>
      <point x="556" y="686" type="qcurve" smooth="yes"/>
      <point x="556" y="626" type="line"/>
      <point x="511" y="578" type="line"/>
      <point x="474" y="603"/>
      <point x="399" y="628"/>
      <point x="353" y="628" type="qcurve" smooth="yes"/>
      <point x="315" y="628"/>
      <point x="243" y="597"/>
      <point x="184" y="530"/>
      <point x="150" y="422"/>
      <point x="150" y="345" type="qcurve" smooth="yes"/>
      <point x="150" y="245"/>
      <point x="196" y="119"/>
      <point x="283" y="60"/>
      <point x="345" y="60" type="qcurve" smooth="yes"/>
      <point x="382" y="60"/>
      <point x="449" y="76"/>
      <point x="479" y="93" type="qcurve"/>
      <point x="479" y="308" type="line"/>
      <point x="354" y="308" type="line"/>
      <point x="344" y="379" type="line"/>
      <point x="565" y="379" type="line"/>
      <point x="565" y="48" type="line"/>
      <point x="519" y="20"/>
      <point x="409" y="-12"/>
    </contour>
    <contour>
      <point x="268" y="680" type="move" name="top"/>
    </contour>
    <contour>
      <point x="268" y="0" type="move" name="bottom"/>
    </contour>
  </outline>
</glyph>
<glyph name="uni0194" format="1">
  <advance width="552"/>
  <unicode hex="0194"/>
  <outline>
    <contour>
      <point x="277" y="-211" type="qcurve" smooth="yes"/>
      <point x="220" y="-211"/>
      <point x="163" y="-159"/>
      <point x="163" y="-113" type="qcurve" smooth="yes"/>
      <point x="163" y="-77"/>
      <point x="194" y="4"/>
      <point x="225" y="67" type="qcurve"/>
      <point x="8" y="688" type="line"/>
      <point x="102" y="688" type="line"/>
      <point x="278" y="127" type="line"/>
      <point x="456" y="688" type="line"/>
      <point x="543" y="688" type="line"/>
      <point x="329" y="67" type="line"/>
      <point x="360" y="9"/>
      <point x="391" y="-70"/>
      <point x="391" y="-112" type="qcurve" smooth="yes"/>
      <point x="391" y="-159"/>
      <point x="333" y="-211"/>
    </contour>
    <contour>
      <point x="277" y="-144" type="qcurve" smooth="yes"/>
      <point x="294" y="-144"/>
      <point x="310" y="-124"/>
      <point x="310" y="-106" type="qcurve" smooth="yes"/>
      <point x="310" y="-83"/>
      <point x="292" y="-26"/>
      <point x="277" y="10" type="qcurve"/>
      <point x="262" y="-26"/>
      <point x="243" y="-83"/>
      <point x="243" y="-106" type="qcurve" smooth="yes"/>
      <point x="243" y="-124"/>
      <point x="261" y="-144"/>
    </contour>
    <contour>
      <point x="262" y="680" type="move" name="top"/>
    </contour>
    <contour>
      <point x="262" y="-188" type="move" name="bottom"/>
    </contour>
  </outline>
</glyph>
<glyph name="uni0195" format="1">
  <advance width="886"/>
  <unicode hex="0195"/>
  <outline>
    <contour>
      <point x="702" y="526" type="qcurve"/>
      <point x="787" y="526" type="line"/>
      <point x="799" y="462"/>
      <point x="813" y="333"/>
      <point x="813" y="256" type="qcurve" smooth="yes"/>
      <point x="813" y="185"/>
      <point x="774" y="83"/>
      <point x="708" y="19"/>
      <point x="628" y="-12"/>
      <point x="586" y="-12" type="qcurve" smooth="yes"/>
      <point x="537" y="-12"/>
      <point x="457" y="28"/>
      <point x="409" y="105"/>
      <point x="409" y="162" type="qcurve" smooth="yes"/>
      <point x="409" y="365" type="line" smooth="yes"/>
      <point x="409" y="426"/>
      <point x="362" y="472"/>
      <point x="321" y="472" type="qcurve" smooth="yes"/>
      <point x="276" y="472"/>
      <point x="209" y="419"/>
      <point x="182" y="376" type="qcurve"/>
      <point x="182" y="0" type="line"/>
      <point x="98" y="0" type="line"/>
      <point x="98" y="737" type="line"/>
      <point x="182" y="747" type="line"/>
      <point x="182" y="450" type="line"/>
      <point x="211" y="490"/>
      <point x="291" y="538"/>
      <point x="342" y="538" type="qcurve" smooth="yes"/>
      <point x="413" y="538"/>
      <point x="493" y="451"/>
      <point x="493" y="377" type="qcurve" smooth="yes"/>
      <point x="493" y="169" type="line" smooth="yes"/>
      <point x="493" y="111"/>
      <point x="544" y="56"/>
      <point x="589" y="56" type="qcurve" smooth="yes"/>
      <point x="620" y="56"/>
      <point x="684" y="92"/>
      <point x="728" y="183"/>
      <point x="728" y="263" type="qcurve" smooth="yes"/>
      <point x="728" y="321"/>
      <point x="716" y="454"/>
    </contour>
    <contour>
      <point x="446" y="727" type="move" name="top"/>
    </contour>
    <contour>
      <point x="446" y="0" type="move" name="bottom"/>
    </contour>
  </outline>
</glyph>
<glyph name="uni0196" format="1">
  <advance width="361"/>
  <unicode hex="0196"/>
  <outline>
    <contour>
      <point x="316" y="81" type="qcurve"/>
      <point x="349" y="25" type="line"/>
      <point x="331" y="12"/>
      <point x="276" y="-12"/>
      <point x="238" y="-12" type="qcurve" smooth="yes"/>
      <point x="172" y="-12"/>
      <point x="93" y="63"/>
      <point x="93" y="139" type="qcurve" smooth="yes"/>
      <point x="93" y="688" type="line"/>
      <point x="179" y="688" type="line"/>
      <point x="179" y="134" type="line" smooth="yes"/>
      <point x="179" y="94"/>
      <point x="213" y="58"/>
      <point x="242" y="58" type="qcurve" smooth="yes"/>
      <point x="267" y="58"/>
      <point x="300" y="71"/>
    </contour>
    <contour>
      <point x="121" y="680" type="move" name="top"/>
    </contour>
    <contour>
      <point x="192" y="0" type="move" name="bottom"/>
    </contour>
  </outline>
</glyph>
<glyph name="uni0198" format="1">
  <advance width="608"/>
  <unicode hex="0198"/>
  <outline>
    <contour>
      <point x="103" y="688" type="line"/>
      <point x="189" y="688" type="line"/>
      <point x="189" y="0" type="line"/>
      <point x="103" y="0" type="line"/>
    </contour>
    <contour>
      <point x="428" y="570" type="qcurve" smooth="yes"/>
      <point x="293" y="373" type="line"/>
      <point x="579" y="0" type="line"/>
      <point x="472" y="0" type="line"/>
      <point x="194" y="368" type="line"/>
      <point x="366" y="611" type="line" smooth="yes"/>
      <point x="388" y="642"/>
      <point x="429" y="681"/>
      <point x="478" y="700"/>
      <point x="510" y="700" type="qcurve" smooth="yes"/>
      <point x="544" y="700"/>
      <point x="590" y="679"/>
      <point x="608" y="664" type="qcurve"/>
      <point x="576" y="609" type="line"/>
      <point x="565" y="617"/>
      <point x="537" y="629"/>
      <point x="515" y="629" type="qcurve" smooth="yes"/>
      <point x="500" y="629"/>
      <point x="474" y="621"/>
      <point x="446" y="596"/>
    </contour>
    <contour>
      <point x="271" y="680" type="move" name="top"/>
    </contour>
    <contour>
      <point x="271" y="0" type="move" name="bottom"/>
    </contour>
  </outline>
</glyph>
<glyph name="uni0199" format="1">
  <advance width="506"/>
  <unicode hex="0199"/>
  <outline>
    <contour>
      <point x="182" y="0" type="line"/>
      <point x="98" y="0" type="line"/>
      <point x="98" y="601" type="line" smooth="yes"/>
      <point x="98" y="645"/>
      <point x="135" y="711"/>
      <point x="207" y="748"/>
      <point x="258" y="748" type="qcurve" smooth="yes"/>
      <point x="295" y="748"/>
      <point x="352" y="735"/>
      <point x="383" y="721" type="qcurve"/>
      <point x="356" y="660" type="line"/>
      <point x="331" y="671"/>
      <point x="284" y="680"/>
      <point x="263" y="680" type="qcurve" smooth="yes"/>
      <point x="219" y="680"/>
      <point x="182" y="642"/>
      <point x="182" y="602" type="qcurve" smooth="yes"/>
    </contour>
    <contour>
      <point x="505" y="0" type="line"/>
      <point x="404" y="0" type="line"/>
      <point x="188" y="287" type="line"/>
      <point x="388" y="526" type="line"/>
      <point x="482" y="526" type="line"/>
      <point x="282" y="293" type="line"/>
    </contour>
  </outline>
</glyph>
<glyph name="uni019B" format="1">
  <advance width="485"/>
  <unicode hex="019B"/>
  <outline>
    <contour>
      <point x="247" y="440" type="qcurve"/>
      <point x="104" y="-11" type="line"/>
      <point x="23" y="9" type="line"/>
      <point x="190" y="500" type="line"/>
      <point x="233" y="500" type="line"/>
      <point x="221" y="561"/>
      <point x="184" y="635"/>
      <point x="122" y="676"/>
      <point x="70" y="685" type="qcurve"/>
      <point x="83" y="750" type="line"/>
      <point x="137" y="740"/>
      <point x="213" y="703"/>
      <point x="266" y="641"/>
      <point x="304" y="546"/>
      <point x="320" y="478" type="qcurve" smooth="yes"/>
      <point x="340" y="391"/>
      <point x="375" y="263"/>
      <point x="408" y="169"/>
      <point x="441" y="100"/>
      <point x="478" y="46"/>
      <point x="499" y="20" type="qcurve"/>
      <point x="421" y="-11" type="line"/>
      <point x="400" y="18"/>
      <point x="363" y="76"/>
      <point x="329" y="146"/>
      <point x="296" y="237"/>
      <point x="264" y="359"/>
    </contour>
    <contour>
      <point x="217" y="623" type="line"/>
      <point x="133" y="540" type="line"/>
      <point x="75" y="569" type="line"/>
      <point x="161" y="657" type="line"/>
      <point x="191" y="687" type="line"/>
      <point x="271" y="773" type="line"/>
      <point x="321" y="730" type="line"/>
      <point x="248" y="655" type="line"/>
    </contour>
    <contour>
      <point x="222" y="727" type="move" name="top"/>
    </contour>
    <contour>
      <point x="222" y="0" type="move" name="bottom"/>
    </contour>
  </outline>
</glyph>
<glyph name="uni019C" format="1">
  <advance width="932"/>
  <unicode hex="019C"/>
  <outline>
    <contour>
      <point x="259" y="-12" type="qcurve" smooth="yes"/>
      <point x="179" y="-12"/>
      <point x="93" y="100"/>
      <point x="93" y="188" type="qcurve" smooth="yes"/>
      <point x="93" y="688" type="line"/>
      <point x="179" y="688" type="line"/>
      <point x="179" y="189" type="line" smooth="yes"/>
      <point x="179" y="128"/>
      <point x="228" y="60"/>
      <point x="274" y="60" type="qcurve" smooth="yes"/>
      <point x="320" y="60"/>
      <point x="385" y="107"/>
      <point x="419" y="158" type="qcurve"/>
      <point x="418" y="166"/>
      <point x="418" y="181"/>
      <point x="418" y="188" type="qcurve" smooth="yes"/>
      <point x="418" y="688" type="line"/>
      <point x="504" y="688" type="line"/>
      <point x="504" y="189" type="line" smooth="yes"/>
      <point x="504" y="128"/>
      <point x="553" y="60"/>
      <point x="599" y="60" type="qcurve" smooth="yes"/>
      <point x="646" y="60"/>
      <point x="710" y="108"/>
      <point x="743" y="158" type="qcurve"/>
      <point x="743" y="688" type="line"/>
      <point x="829" y="688" type="line"/>
      <point x="829" y="0" type="line"/>
      <point x="754" y="0" type="line"/>
      <point x="747" y="82" type="line"/>
      <point x="715" y="36"/>
      <point x="634" y="-12"/>
      <point x="584" y="-12" type="qcurve" smooth="yes"/>
      <point x="529" y="-12"/>
      <point x="453" y="43"/>
      <point x="434" y="90" type="qcurve"/>
      <point x="397" y="39"/>
      <point x="311" y="-12"/>
    </contour>
    <contour>
      <point x="459" y="680" type="move" name="top"/>
    </contour>
    <contour>
      <point x="459" y="0" type="move" name="bottom"/>
    </contour>
  </outline>
</glyph>
<glyph name="uni019D" format="1">
  <advance width="681"/>
  <unicode hex="019D"/>
  <outline>
    <contour>
      <point x="42" y="-211" type="qcurve" smooth="yes"/>
      <point x="3" y="-211"/>
      <point x="-52" y="-188"/>
      <point x="-70" y="-174" type="qcurve"/>
      <point x="-37" y="-120" type="line"/>
      <point x="-20" y="-131"/>
      <point x="12" y="-143"/>
      <point x="37" y="-143" type="qcurve" smooth="yes"/>
      <point x="66" y="-143"/>
      <point x="103" y="-108"/>
      <point x="103" y="-67" type="qcurve" smooth="yes"/>
      <point x="103" y="688" type="line"/>
      <point x="216" y="688" type="line"/>
      <point x="508" y="94" type="line"/>
      <point x="507" y="104"/>
      <point x="502" y="171"/>
      <point x="497" y="261"/>
      <point x="497" y="303" type="qcurve" smooth="yes"/>
      <point x="497" y="688" type="line"/>
      <point x="578" y="688" type="line"/>
      <point x="578" y="0" type="line"/>
      <point x="462" y="0" type="line"/>
      <point x="172" y="593" type="line"/>
      <point x="175" y="566"/>
      <point x="180" y="493"/>
      <point x="184" y="396"/>
      <point x="184" y="332" type="qcurve" smooth="yes"/>
      <point x="184" y="-62" type="line" smooth="yes"/>
      <point x="184" y="-136"/>
      <point x="106" y="-211"/>
    </contour>
    <contour>
      <point x="331" y="680" type="move" name="top"/>
    </contour>
    <contour>
      <point x="321" y="0" type="move" name="bottom"/>
    </contour>
  </outline>
</glyph>
<glyph name="uni019E" format="1">
  <advance width="585"/>
  <unicode hex="019E"/>
  <outline>
    <contour>
      <point x="342" y="538" type="qcurve" smooth="yes"/>
      <point x="414" y="538"/>
      <point x="493" y="452"/>
      <point x="493" y="377" type="qcurve" smooth="yes"/>
      <point x="493" y="-211" type="line"/>
      <point x="409" y="-201" type="line"/>
      <point x="409" y="365" type="line" smooth="yes"/>
      <point x="409" y="426"/>
      <point x="363" y="472"/>
      <point x="322" y="472" type="qcurve" smooth="yes"/>
      <point x="276" y="472"/>
      <point x="209" y="419"/>
      <point x="182" y="375" type="qcurve"/>
      <point x="182" y="0" type="line"/>
      <point x="98" y="0" type="line"/>
      <point x="98" y="526" type="line"/>
      <point x="170" y="526" type="line"/>
      <point x="177" y="445" type="line"/>
      <point x="205" y="487"/>
      <point x="289" y="538"/>
    </contour>
    <contour>
      <point x="295" y="517" type="move" name="top"/>
    </contour>
    <contour>
      <point x="287" y="0" type="move" name="bottom"/>
    </contour>
    <contour>
      <point x="115" y="517" type="move" name="topleft"/>
    </contour>
  </outline>
</glyph>
<glyph name="uni01A2" format="1">
  <advance width="921"/>
  <unicode hex="01A2"/>
  <outline>
    <contour>
      <point x="818" y="-201" type="line"/>
      <point x="731" y="-201" type="line"/>
      <point x="731" y="548" type="line" smooth="yes"/>
      <point x="731" y="593"/>
      <point x="691" y="634"/>
      <point x="654" y="634" type="qcurve" smooth="yes"/>
      <point x="626" y="634"/>
      <point x="580" y="620"/>
      <point x="554" y="606" type="qcurve"/>
      <point x="592" y="562"/>
      <point x="634" y="429"/>
      <point x="634" y="343" type="qcurve" smooth="yes"/>
      <point x="634" y="229"/>
      <point x="562" y="71"/>
      <point x="432" y="-12"/>
      <point x="346" y="-12" type="qcurve" smooth="yes"/>
      <point x="261" y="-12"/>
      <point x="131" y="69"/>
      <point x="58" y="227"/>
      <point x="58" y="342" type="qcurve" smooth="yes"/>
      <point x="58" y="456"/>
      <point x="131" y="616"/>
      <point x="261" y="700"/>
      <point x="346" y="700" type="qcurve" smooth="yes"/>
      <point x="440" y="700"/>
      <point x="508" y="650" type="qcurve"/>
      <point x="545" y="675"/>
      <point x="616" y="702"/>
      <point x="660" y="702" type="qcurve" smooth="yes"/>
      <point x="738" y="702"/>
      <point x="818" y="622"/>
      <point x="818" y="545" type="qcurve" smooth="yes"/>
    </contour>
    <contour>
      <point x="346" y="60" type="qcurve" smooth="yes"/>
      <point x="436" y="60"/>
      <point x="542" y="192"/>
      <point x="542" y="343" type="qcurve" smooth="yes"/>
      <point x="542" y="494"/>
      <point x="437" y="628"/>
      <point x="346" y="628" type="qcurve" smooth="yes"/>
      <point x="287" y="628"/>
      <point x="199" y="569"/>
      <point x="150" y="443"/>
      <point x="150" y="342" type="qcurve" smooth="yes"/>
      <point x="150" y="242"/>
      <point x="200" y="118"/>
      <point x="288" y="60"/>
    </contour>
    <contour>
      <point x="437" y="680" type="move" name="top"/>
    </contour>
    <contour>
      <point x="437" y="-188" type="move" name="bottom"/>
    </contour>
  </outline>
</glyph>
<glyph name="uni01A3" format="1">
  <advance width="786"/>
  <unicode hex="01A3"/>
  <outline>
    <contour>
      <point x="688" y="-211" type="line"/>
      <point x="604" y="-201" type="line"/>
      <point x="604" y="384" type="line" smooth="yes"/>
      <point x="604" y="429"/>
      <point x="564" y="470"/>
      <point x="529" y="470" type="qcurve" smooth="yes"/>
      <point x="503" y="470"/>
      <point x="458" y="457"/>
      <point x="434" y="445" type="qcurve"/>
      <point x="386" y="487" type="line"/>
      <point x="422" y="511"/>
      <point x="494" y="538"/>
      <point x="537" y="538" type="qcurve" smooth="yes"/>
      <point x="611" y="538"/>
      <point x="688" y="458"/>
      <point x="688" y="381" type="qcurve" smooth="yes"/>
    </contour>
    <contour>
      <point x="291" y="538" type="qcurve" smooth="yes"/>
      <point x="362" y="538"/>
      <point x="465" y="471"/>
      <point x="522" y="348"/>
      <point x="522" y="264" type="qcurve" smooth="yes"/>
      <point x="522" y="182"/>
      <point x="467" y="57"/>
      <point x="364" y="-12"/>
      <point x="290" y="-12" type="qcurve" smooth="yes"/>
      <point x="180" y="-12"/>
      <point x="59" y="137"/>
      <point x="59" y="262" type="qcurve" smooth="yes"/>
      <point x="59" y="345"/>
      <point x="114" y="469"/>
      <point x="218" y="538"/>
    </contour>
    <contour>
      <point x="291" y="470" type="qcurve" smooth="yes"/>
      <point x="224" y="470"/>
      <point x="149" y="368"/>
      <point x="149" y="262" type="qcurve" smooth="yes"/>
      <point x="149" y="158"/>
      <point x="222" y="56"/>
      <point x="290" y="56" type="qcurve" smooth="yes"/>
      <point x="358" y="56"/>
      <point x="432" y="158"/>
      <point x="432" y="264" type="qcurve" smooth="yes"/>
      <point x="432" y="368"/>
      <point x="359" y="470"/>
    </contour>
    <contour>
      <point x="364" y="517" type="move" name="top"/>
    </contour>
    <contour>
      <point x="364" y="-188" type="move" name="bottom"/>
    </contour>
  </outline>
</glyph>
<glyph name="uni01A5" format="1">
  <advance width="591"/>
  <unicode hex="01A5"/>
  <outline>
    <contour>
      <point x="333" y="538" type="qcurve" smooth="yes"/>
      <point x="437" y="538"/>
      <point x="527" y="389"/>
      <point x="527" y="264" type="qcurve" smooth="yes"/>
      <point x="527" y="184"/>
      <point x="481" y="59"/>
      <point x="390" y="-12"/>
      <point x="322" y="-12" type="qcurve" smooth="yes"/>
      <point x="278" y="-12"/>
      <point x="207" y="20"/>
      <point x="182" y="51" type="qcurve"/>
      <point x="182" y="-201" type="line"/>
      <point x="98" y="-211" type="line"/>
      <point x="98" y="601" type="line" smooth="yes"/>
      <point x="98" y="645"/>
      <point x="135" y="711"/>
      <point x="207" y="748"/>
      <point x="258" y="748" type="qcurve" smooth="yes"/>
      <point x="295" y="748"/>
      <point x="352" y="735"/>
      <point x="383" y="721" type="qcurve"/>
      <point x="356" y="660" type="line"/>
      <point x="331" y="671"/>
      <point x="284" y="680"/>
      <point x="263" y="680" type="qcurve" smooth="yes"/>
      <point x="219" y="680"/>
      <point x="182" y="642"/>
      <point x="182" y="602" type="qcurve" smooth="yes"/>
      <point x="182" y="456" type="line"/>
      <point x="211" y="497"/>
      <point x="289" y="538"/>
    </contour>
    <contour>
      <point x="303" y="57" type="qcurve" smooth="yes"/>
      <point x="368" y="57"/>
      <point x="437" y="158"/>
      <point x="437" y="264" type="qcurve" smooth="yes"/>
      <point x="437" y="334"/>
      <point x="409" y="426"/>
      <point x="354" y="471"/>
      <point x="313" y="471" type="qcurve" smooth="yes"/>
      <point x="270" y="471"/>
      <point x="205" y="420"/>
      <point x="182" y="387" type="qcurve"/>
      <point x="182" y="125" type="line"/>
      <point x="203" y="93"/>
      <point x="265" y="57"/>
    </contour>
    <contour>
      <point x="284" y="727" type="move" name="top"/>
    </contour>
    <contour>
      <point x="284" y="-188" type="move" name="bottom"/>
    </contour>
  </outline>
</glyph>
<glyph name="uni01A6" format="1">
  <advance width="601"/>
  <unicode hex="01A6"/>
  <outline>
    <contour>
      <point x="574" y="-123" type="line"/>
      <point x="471" y="-123" type="line"/>
      <point x="303" y="173" type="line"/>
      <point x="189" y="173" type="line"/>
      <point x="189" y="0" type="line"/>
      <point x="103" y="0" type="line"/>
      <point x="103" y="688" type="line"/>
      <point x="189" y="688" type="line"/>
      <point x="189" y="565" type="line"/>
      <point x="280" y="565" type="line" smooth="yes"/>
      <point x="365" y="565"/>
      <point x="480" y="521"/>
      <point x="538" y="436"/>
      <point x="538" y="372" type="qcurve" smooth="yes"/>
      <point x="538" y="323"/>
      <point x="504" y="251"/>
      <point x="437" y="203"/>
      <point x="388" y="188" type="qcurve"/>
    </contour>
    <contour>
      <point x="189" y="497" type="line"/>
      <point x="189" y="240" type="line"/>
      <point x="290" y="240" type="line" smooth="yes"/>
      <point x="340" y="240"/>
      <point x="409" y="266"/>
      <point x="446" y="325"/>
      <point x="446" y="372" type="qcurve" smooth="yes"/>
      <point x="446" y="416"/>
      <point x="411" y="471"/>
      <point x="338" y="497"/>
      <point x="279" y="497" type="qcurve" smooth="yes"/>
    </contour>
    <contour>
      <point x="281" y="680" type="move" name="top"/>
    </contour>
    <contour>
      <point x="281" y="-188" type="move" name="bottom"/>
    </contour>
  </outline>
</glyph>
<glyph name="uni01A7" format="1">
  <advance width="535"/>
  <unicode hex="01A7"/>
  <outline>
    <contour>
      <point x="280" y="700" type="qcurve" smooth="yes"/>
      <point x="342" y="700"/>
      <point x="435" y="657"/>
      <point x="487" y="581"/>
      <point x="487" y="529" type="qcurve" smooth="yes"/>
      <point x="487" y="476"/>
      <point x="442" y="403"/>
      <point x="352" y="352"/>
      <point x="286" y="331" type="qcurve" smooth="yes"/>
      <point x="227" y="313"/>
      <point x="160" y="271"/>
      <point x="134" y="219"/>
      <point x="134" y="184" type="qcurve" smooth="yes"/>
      <point x="134" y="143"/>
      <point x="173" y="88"/>
      <point x="238" y="60"/>
      <point x="277" y="60" type="qcurve" smooth="yes"/>
      <point x="333" y="60"/>
      <point x="422" y="98"/>
      <point x="459" y="129" type="qcurve"/>
      <point x="507" y="76" type="line"/>
      <point x="464" y="35"/>
      <point x="349" y="-12"/>
      <point x="275" y="-12" type="qcurve" smooth="yes"/>
      <point x="205" y="-12"/>
      <point x="101" y="39"/>
      <point x="43" y="128"/>
      <point x="43" y="184" type="qcurve" smooth="yes"/>
      <point x="43" y="247"/>
      <point x="97" y="327"/>
      <point x="190" y="377"/>
      <point x="246" y="394" type="qcurve" smooth="yes"/>
      <point x="307" y="413"/>
      <point x="372" y="450"/>
      <point x="397" y="496"/>
      <point x="397" y="529" type="qcurve" smooth="yes"/>
      <point x="397" y="581"/>
      <point x="330" y="628"/>
      <point x="277" y="628" type="qcurve" smooth="yes"/>
      <point x="229" y="628"/>
      <point x="152" y="600"/>
      <point x="113" y="569" type="qcurve"/>
      <point x="65" y="621" type="line"/>
      <point x="111" y="659"/>
      <point x="213" y="700"/>
    </contour>
    <contour>
      <point x="270" y="680" type="move" name="top"/>
    </contour>
    <contour>
      <point x="270" y="0" type="move" name="bottom"/>
    </contour>
  </outline>
</glyph>
<glyph name="uni01A8" format="1">
  <advance width="456"/>
  <unicode hex="01A8"/>
  <outline>
    <contour>
      <point x="237" y="538" type="qcurve" smooth="yes"/>
      <point x="292" y="538"/>
      <point x="372" y="501"/>
      <point x="416" y="438"/>
      <point x="416" y="398" type="qcurve" smooth="yes"/>
      <point x="416" y="339"/>
      <point x="341" y="271"/>
      <point x="257" y="248" type="qcurve" smooth="yes"/>
      <point x="205" y="234"/>
      <point x="149" y="205"/>
      <point x="128" y="168"/>
      <point x="128" y="141" type="qcurve" smooth="yes"/>
      <point x="128" y="101"/>
      <point x="188" y="56"/>
      <point x="233" y="56" type="qcurve" smooth="yes"/>
      <point x="277" y="56"/>
      <point x="351" y="84"/>
      <point x="385" y="107" type="qcurve"/>
      <point x="428" y="57" type="line"/>
      <point x="394" y="27"/>
      <point x="298" y="-12"/>
      <point x="232" y="-12" type="qcurve" smooth="yes"/>
      <point x="184" y="-12"/>
      <point x="95" y="22"/>
      <point x="38" y="92"/>
      <point x="38" y="144" type="qcurve" smooth="yes"/>
      <point x="38" y="214"/>
      <point x="128" y="284"/>
      <point x="212" y="305" type="qcurve" smooth="yes"/>
      <point x="257" y="317"/>
      <point x="307" y="343"/>
      <point x="327" y="377"/>
      <point x="327" y="400" type="qcurve" smooth="yes"/>
      <point x="327" y="432"/>
      <point x="278" y="471"/>
      <point x="231" y="471" type="qcurve" smooth="yes"/>
      <point x="191" y="471"/>
      <point x="124" y="449"/>
      <point x="88" y="426" type="qcurve"/>
      <point x="53" y="478" type="line"/>
      <point x="93" y="507"/>
      <point x="183" y="538"/>
    </contour>
    <contour>
      <point x="229" y="517" type="move" name="top"/>
    </contour>
    <contour>
      <point x="229" y="0" type="move" name="bottom"/>
    </contour>
  </outline>
</glyph>
<glyph name="uni01AA" format="1">
  <advance width="311"/>
  <unicode hex="01AA"/>
  <outline>
    <contour>
      <point x="266" y="-211" type="qcurve" smooth="yes"/>
      <point x="201" y="-211"/>
      <point x="121" y="-135"/>
      <point x="121" y="-60" type="qcurve" smooth="yes"/>
      <point x="121" y="492" type="line"/>
      <point x="109" y="488"/>
      <point x="82" y="482"/>
      <point x="66" y="482" type="qcurve" smooth="yes"/>
      <point x="31" y="482"/>
      <point x="-28" y="514"/>
      <point x="-62" y="573"/>
      <point x="-62" y="614" type="qcurve" smooth="yes"/>
      <point x="-62" y="655"/>
      <point x="-27" y="715"/>
      <point x="33" y="748"/>
      <point x="70" y="748" type="qcurve" smooth="yes"/>
      <point x="110" y="748"/>
      <point x="170" y="715"/>
      <point x="205" y="653"/>
      <point x="205" y="608" type="qcurve" smooth="yes"/>
      <point x="205" y="-67" type="line" smooth="yes"/>
      <point x="205" y="-108"/>
      <point x="241" y="-143"/>
      <point x="270" y="-143" type="qcurve" smooth="yes"/>
      <point x="295" y="-143"/>
      <point x="328" y="-131"/>
      <point x="344" y="-121" type="qcurve"/>
      <point x="378" y="-174" type="line"/>
      <point x="359" y="-188"/>
      <point x="304" y="-211"/>
    </contour>
    <contour>
      <point x="78" y="548" type="qcurve" smooth="yes"/>
      <point x="89" y="548"/>
      <point x="110" y="552"/>
      <point x="121" y="556" type="qcurve"/>
      <point x="121" y="615" type="line" smooth="yes"/>
      <point x="121" y="649"/>
      <point x="95" y="682"/>
      <point x="72" y="682" type="qcurve" smooth="yes"/>
      <point x="47" y="682"/>
      <point x="22" y="646"/>
      <point x="22" y="616" type="qcurve" smooth="yes"/>
      <point x="22" y="581"/>
      <point x="50" y="548"/>
    </contour>
    <contour>
      <point x="128" y="727" type="move" name="top"/>
    </contour>
    <contour>
      <point x="128" y="-188" type="move" name="bottom"/>
    </contour>
  </outline>
</glyph>
<glyph name="uni01AB" format="1">
  <advance width="356"/>
  <unicode hex="01AB"/>
  <outline>
    <contour>
      <point x="212" y="-211" type="qcurve" smooth="yes"/>
      <point x="173" y="-211"/>
      <point x="119" y="-188"/>
      <point x="100" y="-174" type="qcurve"/>
      <point x="133" y="-120" type="line"/>
      <point x="150" y="-131"/>
      <point x="183" y="-143"/>
      <point x="208" y="-143" type="qcurve" smooth="yes"/>
      <point x="240" y="-143"/>
      <point x="276" y="-108"/>
      <point x="276" y="-67" type="qcurve" smooth="yes"/>
      <point x="276" y="35" type="line"/>
      <point x="357" y="23" type="line"/>
      <point x="357" y="-60" type="line" smooth="yes"/>
      <point x="357" y="-136"/>
      <point x="278" y="-211"/>
    </contour>
    <contour>
      <point x="102" y="647" type="line"/>
      <point x="186" y="656" type="line"/>
      <point x="186" y="136" type="line" smooth="yes"/>
      <point x="186" y="95"/>
      <point x="217" y="55"/>
      <point x="252" y="55" type="qcurve" smooth="yes"/>
      <point x="271" y="55"/>
      <point x="307" y="61"/>
      <point x="331" y="69" type="qcurve"/>
      <point x="357" y="23" type="line"/>
      <point x="341" y="13"/>
      <point x="308" y="1"/>
      <point x="290" y="3" type="qcurve"/>
      <point x="278" y="-4"/>
      <point x="252" y="-12"/>
      <point x="232" y="-12" type="qcurve" smooth="yes"/>
      <point x="175" y="-12"/>
      <point x="102" y="63"/>
      <point x="102" y="135" type="qcurve" smooth="yes"/>
    </contour>
    <contour>
      <point x="11" y="526" type="line"/>
      <point x="313" y="526" type="line"/>
      <point x="304" y="461" type="line"/>
      <point x="11" y="461" type="line"/>
    </contour>
    <contour>
      <point x="118" y="651" type="move" name="top"/>
    </contour>
    <contour>
      <point x="161" y="-188" type="move" name="bottom"/>
    </contour>
  </outline>
</glyph>
<glyph name="uni01AC" format="1">
  <advance width="548"/>
  <unicode hex="01AC"/>
  <outline>
    <contour>
      <point x="335" y="0" type="line"/>
      <point x="248" y="0" type="line"/>
      <point x="248" y="614" type="line"/>
      <point x="151" y="614" type="line" smooth="yes"/>
      <point x="121" y="614"/>
      <point x="93" y="586"/>
      <point x="93" y="564" type="qcurve" smooth="yes"/>
      <point x="93" y="544"/>
      <point x="105" y="512"/>
      <point x="113" y="495" type="qcurve"/>
      <point x="48" y="462" type="line"/>
      <point x="35" y="483"/>
      <point x="11" y="536"/>
      <point x="11" y="567" type="qcurve" smooth="yes"/>
      <point x="11" y="620"/>
      <point x="86" y="688"/>
      <point x="157" y="688" type="qcurve" smooth="yes"/>
      <point x="538" y="688" type="line"/>
      <point x="528" y="614" type="line"/>
      <point x="335" y="614" type="line"/>
    </contour>
    <contour>
      <point x="246" y="680" type="move" name="top"/>
    </contour>
    <contour>
      <point x="246" y="0" type="move" name="bottom"/>
    </contour>
  </outline>
</glyph>
<glyph name="uni01AD" format="1">
  <advance width="356"/>
  <unicode hex="01AD"/>
  <outline>
    <contour>
      <point x="241" y="-12" type="qcurve" smooth="yes"/>
      <point x="176" y="-12"/>
      <point x="102" y="63"/>
      <point x="102" y="135" type="qcurve" smooth="yes"/>
      <point x="102" y="548" type="line"/>
      <point x="186" y="558" type="line"/>
      <point x="186" y="139" type="line" smooth="yes"/>
      <point x="186" y="98"/>
      <point x="217" y="58"/>
      <point x="252" y="58" type="qcurve" smooth="yes"/>
      <point x="271" y="58"/>
      <point x="306" y="69"/>
      <point x="325" y="81" type="qcurve"/>
      <point x="357" y="23" type="line"/>
      <point x="332" y="6"/>
      <point x="274" y="-12"/>
    </contour>
    <contour>
      <point x="304" y="461" type="line"/>
      <point x="11" y="461" type="line"/>
      <point x="11" y="526" type="line"/>
      <point x="313" y="526" type="line"/>
    </contour>
    <contour>
      <point x="186" y="526" type="line"/>
      <point x="102" y="526" type="line"/>
      <point x="102" y="596" type="line" smooth="yes"/>
      <point x="102" y="647"/>
      <point x="138" y="714"/>
      <point x="203" y="748"/>
      <point x="246" y="748" type="qcurve" smooth="yes"/>
      <point x="283" y="748"/>
      <point x="338" y="725"/>
      <point x="357" y="711" type="qcurve"/>
      <point x="324" y="657" type="line"/>
      <point x="306" y="668"/>
      <point x="274" y="681"/>
      <point x="251" y="681" type="qcurve" smooth="yes"/>
      <point x="222" y="681"/>
      <point x="186" y="644"/>
      <point x="186" y="603" type="qcurve" smooth="yes"/>
    </contour>
    <contour>
      <point x="161" y="727" type="move" name="top"/>
    </contour>
    <contour>
      <point x="161" y="0" type="move" name="bottom"/>
    </contour>
  </outline>
</glyph>
<glyph name="uni01B1" format="1">
  <advance width="692"/>
  <unicode hex="01B1"/>
  <outline>
    <contour>
      <point x="346" y="-12" type="qcurve" smooth="yes"/>
      <point x="259" y="-12"/>
      <point x="129" y="67"/>
      <point x="58" y="215"/>
      <point x="58" y="316" type="qcurve" smooth="yes"/>
      <point x="58" y="398"/>
      <point x="95" y="510"/>
      <point x="154" y="587"/>
      <point x="188" y="616" type="qcurve"/>
      <point x="80" y="616" type="line"/>
      <point x="80" y="688" type="line"/>
      <point x="277" y="688" type="line"/>
      <point x="277" y="617" type="line"/>
      <point x="237" y="585"/>
      <point x="180" y="505"/>
      <point x="150" y="394"/>
      <point x="150" y="316" type="qcurve" smooth="yes"/>
      <point x="150" y="230"/>
      <point x="198" y="116"/>
      <point x="286" y="60"/>
      <point x="346" y="60" type="qcurve" smooth="yes"/>
      <point x="405" y="60"/>
      <point x="493" y="116"/>
      <point x="542" y="230"/>
      <point x="542" y="317" type="qcurve" smooth="yes"/>
      <point x="542" y="394"/>
      <point x="510" y="505"/>
      <point x="453" y="586"/>
      <point x="415" y="617" type="qcurve"/>
      <point x="415" y="688" type="line"/>
      <point x="613" y="688" type="line"/>
      <point x="613" y="616" type="line"/>
      <point x="504" y="616" type="line"/>
      <point x="539" y="590"/>
      <point x="598" y="514"/>
      <point x="634" y="401"/>
      <point x="634" y="317" type="qcurve" smooth="yes"/>
      <point x="634" y="218"/>
      <point x="561" y="70"/>
      <point x="431" y="-12"/>
    </contour>
    <contour>
      <point x="344" y="680" type="move" name="top"/>
    </contour>
    <contour>
      <point x="344" y="0" type="move" name="bottom"/>
    </contour>
  </outline>
</glyph>
<glyph name="uni01B2" format="1">
  <advance width="645"/>
  <unicode hex="01B2"/>
  <outline>
    <contour>
      <point x="310" y="-12" type="qcurve" smooth="yes"/>
      <point x="242" y="-12"/>
      <point x="145" y="45"/>
      <point x="93" y="144"/>
      <point x="93" y="207" type="qcurve" smooth="yes"/>
      <point x="93" y="688" type="line"/>
      <point x="179" y="688" type="line"/>
      <point x="179" y="211" type="line" smooth="yes"/>
      <point x="179" y="139"/>
      <point x="247" y="62"/>
      <point x="310" y="62" type="qcurve" smooth="yes"/>
      <point x="364" y="62"/>
      <point x="439" y="117"/>
      <point x="479" y="226"/>
      <point x="479" y="306" type="qcurve" smooth="yes"/>
      <point x="479" y="576" type="line" smooth="yes"/>
      <point x="479" y="605"/>
      <point x="463" y="629"/>
      <point x="440" y="629" type="qcurve" smooth="yes"/>
      <point x="428" y="629"/>
      <point x="410" y="626"/>
      <point x="402" y="623" type="qcurve"/>
      <point x="379" y="682" type="line"/>
      <point x="394" y="690"/>
      <point x="431" y="700"/>
      <point x="453" y="700" type="qcurve" smooth="yes"/>
      <point x="507" y="700"/>
      <point x="567" y="639"/>
      <point x="567" y="577" type="qcurve" smooth="yes"/>
      <point x="567" y="299" type="line" smooth="yes"/>
      <point x="567" y="203"/>
      <point x="503" y="64"/>
      <point x="388" y="-12"/>
    </contour>
    <contour>
      <point x="302" y="680" type="move" name="top"/>
    </contour>
    <contour>
      <point x="302" y="0" type="move" name="bottom"/>
    </contour>
  </outline>
</glyph>
<glyph name="uni01B3" format="1">
  <advance width="577"/>
  <unicode hex="01B3"/>
  <outline>
    <contour>
      <point x="316" y="0" type="line"/>
      <point x="228" y="0" type="line"/>
      <point x="228" y="265" type="line"/>
      <point x="7" y="688" type="line"/>
      <point x="103" y="688" type="line"/>
      <point x="275" y="341" type="line"/>
      <point x="389" y="590" type="line" smooth="yes"/>
      <point x="416" y="649"/>
      <point x="480" y="700"/>
      <point x="531" y="700" type="qcurve" smooth="yes"/>
      <point x="563" y="700"/>
      <point x="612" y="677"/>
      <point x="633" y="660" type="qcurve"/>
      <point x="599" y="611" type="line"/>
      <point x="587" y="621"/>
      <point x="556" y="634"/>
      <point x="536" y="634" type="qcurve" smooth="yes"/>
      <point x="513" y="634"/>
      <point x="481" y="606"/>
      <point x="461" y="566" type="qcurve" smooth="yes"/>
      <point x="316" y="266" type="line"/>
    </contour>
    <contour>
      <point x="253" y="680" type="move" name="top"/>
    </contour>
    <contour>
      <point x="253" y="0" type="move" name="bottom"/>
    </contour>
    <contour>
      <point x="15" y="680" type="move" name="topleft"/>
    </contour>
  </outline>
</glyph>
<glyph name="uni01B4" format="1">
  <advance width="491"/>
  <unicode hex="01B4"/>
  <outline>
    <contour>
      <point x="61" y="-211" type="qcurve"/>
      <point x="51" y="-145" type="line"/>
      <point x="105" y="-135"/>
      <point x="167" y="-99"/>
      <point x="203" y="-42"/>
      <point x="218" y="0" type="qcurve"/>
      <point x="189" y="0" type="line"/>
      <point x="11" y="526" type="line"/>
      <point x="101" y="526" type="line"/>
      <point x="246" y="61" type="line"/>
      <point x="356" y="466" type="line" smooth="yes"/>
      <point x="372" y="525"/>
      <point x="423" y="573"/>
      <point x="469" y="573" type="qcurve" smooth="yes"/>
      <point x="489" y="573"/>
      <point x="522" y="564"/>
      <point x="536" y="556" type="qcurve"/>
      <point x="514" y="499" type="line"/>
      <point x="507" y="502"/>
      <point x="490" y="505"/>
      <point x="480" y="505" type="qcurve" smooth="yes"/>
      <point x="462" y="505"/>
      <point x="443" y="486"/>
      <point x="435" y="459" type="qcurve" smooth="yes"/>
      <point x="302" y="5" type="line" smooth="yes"/>
      <point x="284" y="-56"/>
      <point x="225" y="-146"/>
      <point x="132" y="-202"/>
    </contour>
    <contour>
      <point x="222" y="517" type="move" name="top"/>
    </contour>
    <contour>
      <point x="222" y="-188" type="move" name="bottom"/>
    </contour>
  </outline>
</glyph>
<glyph name="uni01B6" format="1">
  <advance width="434"/>
  <unicode hex="01B6"/>
  <outline>
    <contour>
      <point x="49" y="526" type="line"/>
      <point x="400" y="526" type="line"/>
      <point x="400" y="462" type="line"/>
      <point x="119" y="71" type="line"/>
      <point x="402" y="71" type="line"/>
      <point x="392" y="0" type="line"/>
      <point x="26" y="0" type="line"/>
      <point x="26" y="63" type="line"/>
      <point x="307" y="455" type="line"/>
      <point x="49" y="455" type="line"/>
    </contour>
    <contour>
      <point x="367" y="232" type="line"/>
      <point x="64" y="232" type="line"/>
      <point x="64" y="297" type="line"/>
      <point x="367" y="297" type="line"/>
    </contour>
    <contour>
      <point x="205" y="517" type="move" name="top"/>
    </contour>
    <contour>
      <point x="205" y="0" type="move" name="bottom"/>
    </contour>
  </outline>
</glyph>
<glyph name="uni01B7" format="1">
  <advance width="511"/>
  <unicode hex="01B7"/>
  <outline>
    <contour>
      <point x="225" y="-12" type="qcurve" smooth="yes"/>
      <point x="153" y="-12"/>
      <point x="50" y="32"/>
      <point x="11" y="77" type="qcurve"/>
      <point x="62" y="127" type="line"/>
      <point x="95" y="92"/>
      <point x="170" y="60"/>
      <point x="222" y="60" type="qcurve" smooth="yes"/>
      <point x="298" y="60"/>
      <point x="375" y="134"/>
      <point x="375" y="198" type="qcurve" smooth="yes"/>
      <point x="375" y="269"/>
      <point x="295" y="331"/>
      <point x="214" y="331" type="qcurve" smooth="yes"/>
      <point x="127" y="331" type="line"/>
      <point x="127" y="393" type="line"/>
      <point x="338" y="617" type="line"/>
      <point x="40" y="617" type="line"/>
      <point x="40" y="688" type="line"/>
      <point x="441" y="688" type="line"/>
      <point x="441" y="618" type="line"/>
      <point x="225" y="394" type="line"/>
      <point x="231" y="394" type="line" smooth="yes"/>
      <point x="349" y="394"/>
      <point x="465" y="289"/>
      <point x="465" y="196" type="qcurve" smooth="yes"/>
      <point x="465" y="136"/>
      <point x="407" y="42"/>
      <point x="300" y="-12"/>
    </contour>
    <contour>
      <point x="211" y="680" type="move" name="top"/>
    </contour>
    <contour>
      <point x="232" y="0" type="move" name="bottom"/>
    </contour>
  </outline>
</glyph>
<glyph name="uni01B8" format="1">
  <advance width="511"/>
  <unicode hex="01B8"/>
  <outline>
    <contour>
      <point x="279" y="-12" type="qcurve" smooth="yes"/>
      <point x="209" y="-12"/>
      <point x="104" y="39"/>
      <point x="46" y="130"/>
      <point x="46" y="189" type="qcurve" smooth="yes"/>
      <point x="46" y="250"/>
      <point x="99" y="342"/>
      <point x="203" y="394"/>
      <point x="279" y="394" type="qcurve" smooth="yes"/>
      <point x="286" y="394" type="line"/>
      <point x="70" y="618" type="line"/>
      <point x="70" y="688" type="line"/>
      <point x="470" y="688" type="line"/>
      <point x="470" y="617" type="line"/>
      <point x="173" y="617" type="line"/>
      <point x="384" y="393" type="line"/>
      <point x="384" y="331" type="line"/>
      <point x="296" y="331" type="line" smooth="yes"/>
      <point x="216" y="331"/>
      <point x="136" y="261"/>
      <point x="136" y="191" type="qcurve" smooth="yes"/>
      <point x="136" y="132"/>
      <point x="211" y="60"/>
      <point x="281" y="60" type="qcurve" smooth="yes"/>
      <point x="339" y="60"/>
      <point x="416" y="92"/>
      <point x="449" y="127" type="qcurve"/>
      <point x="499" y="77" type="line"/>
      <point x="460" y="32"/>
      <point x="356" y="-12"/>
    </contour>
    <contour>
      <point x="232" y="680" type="move" name="top"/>
    </contour>
    <contour>
      <point x="232" y="0" type="move" name="bottom"/>
    </contour>
  </outline>
</glyph>
<glyph name="uni01B9" format="1">
  <advance width="476"/>
  <unicode hex="01B9"/>
  <outline>
    <contour>
      <point x="263" y="-211" type="qcurve" smooth="yes"/>
      <point x="194" y="-211"/>
      <point x="89" y="-158"/>
      <point x="31" y="-66"/>
      <point x="31" y="-6" type="qcurve" smooth="yes"/>
      <point x="31" y="60"/>
      <point x="86" y="154"/>
      <point x="191" y="205"/>
      <point x="266" y="205" type="qcurve" smooth="yes"/>
      <point x="289" y="205" type="line"/>
      <point x="358" y="142" type="line"/>
      <point x="283" y="142" type="line" smooth="yes"/>
      <point x="197" y="142"/>
      <point x="121" y="70"/>
      <point x="121" y="-4" type="qcurve" smooth="yes"/>
      <point x="121" y="-47"/>
      <point x="154" y="-108"/>
      <point x="218" y="-142"/>
      <point x="264" y="-142" type="qcurve" smooth="yes"/>
      <point x="315" y="-142"/>
      <point x="390" y="-111"/>
      <point x="426" y="-77" type="qcurve"/>
      <point x="474" y="-122" type="line"/>
      <point x="434" y="-166"/>
      <point x="333" y="-211"/>
    </contour>
    <contour>
      <point x="153" y="456" type="line"/>
      <point x="358" y="204" type="line"/>
      <point x="358" y="142" type="line"/>
      <point x="297" y="172" type="line"/>
      <point x="55" y="462" type="line"/>
      <point x="55" y="526" type="line"/>
      <point x="445" y="526" type="line"/>
      <point x="445" y="456" type="line"/>
    </contour>
    <contour>
      <point x="219" y="517" type="move" name="top"/>
    </contour>
    <contour>
      <point x="219" y="-188" type="move" name="bottom"/>
    </contour>
  </outline>
</glyph>
<glyph name="uni01BA" format="1">
  <advance width="467"/>
  <unicode hex="01BA"/>
  <outline>
    <contour>
      <point x="189" y="-158" type="qcurve"/>
      <point x="158" y="-213" type="line"/>
      <point x="94" y="-186"/>
      <point x="29" y="-120"/>
      <point x="29" y="-76" type="qcurve" smooth="yes"/>
      <point x="29" y="-27"/>
      <point x="111" y="29"/>
      <point x="196" y="39" type="qcurve" smooth="yes"/>
      <point x="274" y="48"/>
      <point x="350" y="88"/>
      <point x="350" y="137" type="qcurve" smooth="yes"/>
      <point x="350" y="175"/>
      <point x="303" y="209"/>
      <point x="262" y="209" type="qcurve" smooth="yes"/>
      <point x="112" y="209" type="line"/>
      <point x="112" y="271" type="line"/>
      <point x="308" y="456" type="line"/>
      <point x="26" y="456" type="line"/>
      <point x="26" y="526" type="line"/>
      <point x="411" y="526" type="line"/>
      <point x="411" y="462" type="line"/>
      <point x="204" y="272" type="line"/>
      <point x="266" y="272" type="line" smooth="yes"/>
      <point x="346" y="272"/>
      <point x="440" y="203"/>
      <point x="440" y="136" type="qcurve" smooth="yes"/>
      <point x="440" y="85"/>
      <point x="389" y="18"/>
      <point x="299" y="-20"/>
      <point x="240" y="-27" type="qcurve" smooth="yes"/>
      <point x="191" y="-33"/>
      <point x="137" y="-47"/>
      <point x="115" y="-68"/>
      <point x="115" y="-83" type="qcurve" smooth="yes"/>
      <point x="115" y="-104"/>
      <point x="153" y="-139"/>
    </contour>
    <contour>
      <point x="207" y="517" type="move" name="top"/>
    </contour>
    <contour>
      <point x="221" y="-188" type="move" name="bottom"/>
    </contour>
  </outline>
</glyph>
<glyph name="uni01BD" format="1">
  <advance width="448"/>
  <unicode hex="01BD"/>
  <outline>
    <contour>
      <point x="68" y="526" type="line"/>
      <point x="377" y="526" type="line"/>
      <point x="362" y="456" type="line"/>
      <point x="152" y="456" type="line"/>
      <point x="152" y="323" type="line"/>
      <point x="168" y="331"/>
      <point x="210" y="344"/>
      <point x="244" y="344" type="qcurve" smooth="yes"/>
      <point x="291" y="344"/>
      <point x="364" y="302"/>
      <point x="406" y="224"/>
      <point x="406" y="171" type="qcurve" smooth="yes"/>
      <point x="406" y="117"/>
      <point x="357" y="35"/>
      <point x="267" y="-12"/>
      <point x="205" y="-12" type="qcurve" smooth="yes"/>
      <point x="166" y="-12"/>
      <point x="104" y="5"/>
      <point x="54" y="37"/>
      <point x="32" y="58" type="qcurve"/>
      <point x="78" y="108" type="line"/>
      <point x="108" y="85"/>
      <point x="161" y="61"/>
      <point x="204" y="61" type="qcurve" smooth="yes"/>
      <point x="253" y="61"/>
      <point x="316" y="118"/>
      <point x="316" y="173" type="qcurve" smooth="yes"/>
      <point x="316" y="228"/>
      <point x="261" y="275"/>
      <point x="221" y="275" type="qcurve" smooth="yes"/>
      <point x="191" y="275"/>
      <point x="153" y="264"/>
      <point x="128" y="253" type="qcurve"/>
      <point x="68" y="253" type="line"/>
    </contour>
    <contour>
      <point x="211" y="517" type="move" name="top"/>
    </contour>
    <contour>
      <point x="211" y="0" type="move" name="bottom"/>
    </contour>
  </outline>
</glyph>
<glyph name="uni01BE" format="1">
  <advance width="510"/>
  <unicode hex="01BE"/>
  <outline>
    <contour>
      <point x="228" y="-10" type="qcurve" smooth="yes"/>
      <point x="168" y="-10"/>
      <point x="75" y="32"/>
      <point x="31" y="74" type="qcurve"/>
      <point x="77" y="122" type="line"/>
      <point x="112" y="91"/>
      <point x="182" y="58"/>
      <point x="226" y="58" type="qcurve" smooth="yes"/>
      <point x="295" y="58"/>
      <point x="362" y="143"/>
      <point x="362" y="213" type="qcurve" smooth="yes"/>
      <point x="362" y="264"/>
      <point x="331" y="328"/>
      <point x="273" y="366"/>
      <point x="233" y="376" type="qcurve" smooth="yes"/>
      <point x="163" y="392" type="line"/>
      <point x="163" y="548" type="line"/>
      <point x="86" y="548" type="line"/>
      <point x="86" y="612" type="line"/>
      <point x="163" y="612" type="line"/>
      <point x="163" y="737" type="line"/>
      <point x="247" y="747" type="line"/>
      <point x="247" y="612" type="line"/>
      <point x="356" y="612" type="line"/>
      <point x="356" y="548" type="line"/>
      <point x="247" y="548" type="line"/>
      <point x="247" y="435" type="line"/>
      <point x="272" y="431" type="line" smooth="yes"/>
      <point x="304" y="424"/>
      <point x="368" y="394"/>
      <point x="420" y="342"/>
      <point x="452" y="265"/>
      <point x="452" y="211" type="qcurve" smooth="yes"/>
      <point x="452" y="148"/>
      <point x="397" y="48"/>
      <point x="297" y="-10"/>
    </contour>
    <contour>
      <point x="179" y="727" type="move" name="top"/>
    </contour>
    <contour>
      <point x="226" y="0" type="move" name="bottom"/>
    </contour>
  </outline>
</glyph>
